<svg id="objects" xmlns="http://www.w3.org/2000/svg" xmlns:xlink="http://www.w3.org/1999/xlink" viewBox="0 0 447.85 604.11"><defs><linearGradient id="linear-gradient" x1="146.8" y1="381.75" x2="165.55" y2="381.75" gradientUnits="userSpaceOnUse"><stop offset=".27" stop-color="#f15a29"/><stop offset=".68" stop-color="#ef4136"/><stop offset=".76" stop-color="#e83c35"/><stop offset=".88" stop-color="#d62f31"/><stop offset="1" stop-color="#be1e2d"/></linearGradient><linearGradient id="linear-gradient-2" x1="117.43" y1="338.35" x2="165.55" y2="338.35" gradientUnits="userSpaceOnUse"><stop offset="0" stop-color="#f7941e"/><stop offset=".42" stop-color="#f7941e"/><stop offset=".56" stop-color="#f68e1f"/><stop offset=".74" stop-color="#f57d22"/><stop offset=".95" stop-color="#f26128"/><stop offset="1" stop-color="#f15a29"/></linearGradient><linearGradient id="linear-gradient-3" x1="163.75" y1="381.75" x2="206.27" y2="381.75" gradientUnits="userSpaceOnUse"><stop offset="0" stop-color="#ee2a7b"/><stop offset=".54" stop-color="#ee2a7b"/><stop offset=".74" stop-color="#ce2671"/><stop offset="1" stop-color="#9e1f63"/></linearGradient><linearGradient id="linear-gradient-4" x1="117.43" y1="317" x2="165.55" y2="317" gradientUnits="userSpaceOnUse"><stop offset=".44" stop-color="#00a79d"/><stop offset=".53" stop-color="#009798"/><stop offset=".72" stop-color="#00788f"/><stop offset=".89" stop-color="#006589"/><stop offset="1" stop-color="#005e87"/></linearGradient><linearGradient id="linear-gradient-5" x1="87.65" y1="275.39" x2="164.7" y2="275.39" xlink:href="#linear-gradient"/><linearGradient id="linear-gradient-6" x1="164.7" y1="317" x2="195.76" y2="317" xlink:href="#linear-gradient"/><linearGradient id="linear-gradient-7" x1="87.65" y1="264" x2="164.7" y2="264" xlink:href="#linear-gradient-2"/><linearGradient id="linear-gradient-8" x1="83.33" y1="223.57" x2="137.26" y2="223.57" xlink:href="#linear-gradient-3"/><linearGradient id="linear-gradient-9" x1="137.26" y1="264" x2="234.26" y2="264" xlink:href="#linear-gradient-4"/><linearGradient id="linear-gradient-10" x1="83.33" y1="195.99" x2="137.26" y2="195.99" xlink:href="#linear-gradient-4"/><linearGradient id="linear-gradient-11" x1="102.92" y1="195.99" x2="152.72" y2="195.99" xlink:href="#linear-gradient"/><linearGradient id="linear-gradient-12" x1="102.92" y1="133.69" x2="194.06" y2="133.69" xlink:href="#linear-gradient-3"/><linearGradient id="linear-gradient-13" x1="137.83" y1="114.44" x2="194.06" y2="114.44" xlink:href="#linear-gradient-4"/><linearGradient id="linear-gradient-14" x1="102.92" y1="163.88" x2="194.06" y2="163.88" xlink:href="#linear-gradient-4"/><linearGradient id="linear-gradient-15" x1="137.26" y1="222.25" x2="234.26" y2="222.25" xlink:href="#linear-gradient-2"/><linearGradient id="linear-gradient-16" x1="164.7" y1="287.14" x2="234.26" y2="287.14" xlink:href="#linear-gradient-2"/><linearGradient id="linear-gradient-17" x1="165.55" y1="355.12" x2="206.27" y2="355.12" xlink:href="#linear-gradient-4"/><linearGradient id="linear-gradient-18" x1="195.76" y1="371.11" x2="283.44" y2="371.11" xlink:href="#linear-gradient"/><linearGradient id="linear-gradient-19" x1="195.76" y1="369.33" x2="283.44" y2="369.33" xlink:href="#linear-gradient-3"/><linearGradient id="linear-gradient-20" x1="195.76" y1="287.14" x2="239.96" y2="287.14" xlink:href="#linear-gradient-4"/><linearGradient id="linear-gradient-21" x1="239.96" y1="369.33" x2="294.99" y2="369.33" xlink:href="#linear-gradient"/><linearGradient id="linear-gradient-22" x1="234.26" y1="271.95" x2="283.43" y2="271.95" xlink:href="#linear-gradient-2"/><linearGradient id="linear-gradient-23" x1="152.72" y1="222.25" x2="283.43" y2="222.25" xlink:href="#linear-gradient"/><linearGradient id="linear-gradient-24" x1="239.96" y1="271.95" x2="292.64" y2="271.95" xlink:href="#linear-gradient-3"/><linearGradient id="linear-gradient-25" x1="152.72" y1="181.99" x2="283.43" y2="181.99" xlink:href="#linear-gradient-4"/><linearGradient id="linear-gradient-26" x1="152.72" y1="163.88" x2="235.04" y2="163.88" xlink:href="#linear-gradient-3"/><linearGradient id="linear-gradient-27" x1="235.04" y1="181.99" x2="318.51" y2="181.99" xlink:href="#linear-gradient-3"/><linearGradient id="linear-gradient-28" x1="194.06" y1="117.02" x2="235.04" y2="117.02" xlink:href="#linear-gradient"/><linearGradient id="linear-gradient-29" x1="176.14" y1="111.13" x2="214.88" y2="111.13" xlink:href="#linear-gradient-2"/><linearGradient id="linear-gradient-30" x1="214.88" y1="125.55" x2="351.07" y2="125.55" xlink:href="#linear-gradient-2"/><linearGradient id="linear-gradient-31" x1="214.88" y1="125.55" x2="351.07" y2="125.55" xlink:href="#linear-gradient-4"/><linearGradient id="linear-gradient-32" x1="235.04" y1="175.5" x2="351.07" y2="175.5" xlink:href="#linear-gradient"/><linearGradient id="linear-gradient-33" x1="239.96" y1="323.29" x2="294.99" y2="323.29" xlink:href="#linear-gradient-2"/><linearGradient id="linear-gradient-34" x1="292.64" y1="323.29" x2="311.14" y2="323.29" xlink:href="#linear-gradient-4"/><linearGradient id="linear-gradient-35" x1="292.64" y1="305" x2="343.4" y2="305" xlink:href="#linear-gradient-3"/><linearGradient id="linear-gradient-36" x1="292.64" y1="244.94" x2="343.4" y2="244.94" xlink:href="#linear-gradient-4"/><linearGradient id="linear-gradient-37" x1="318.51" y1="244.94" x2="361.57" y2="244.94" xlink:href="#linear-gradient"/><linearGradient id="linear-gradient-38" x1="318.51" y1="201.78" x2="361.57" y2="201.78" xlink:href="#linear-gradient-3"/><linearGradient id="linear-gradient-39" x1="273.47" y1="129.12" x2="351.07" y2="129.12" xlink:href="#linear-gradient-3"/><linearGradient id="linear-gradient-40" x1="206.28" y1="399.4" x2="283.45" y2="399.4" xlink:href="#linear-gradient-2"/><linearGradient id="linear-gradient-41" x1="196.88" y1="399.24" x2="224.37" y2="399.24" xlink:href="#linear-gradient-3"/><linearGradient id="linear-gradient-42" x1="163.75" y1="399.16" x2="206.28" y2="399.16" xlink:href="#linear-gradient-4"/><linearGradient id="linear-gradient-43" x1="351.07" y1="200.78" x2="364.52" y2="200.78" xlink:href="#linear-gradient-4"/><linearGradient id="linear-gradient-44" x1="398.47" y1="140.04" x2="417.29" y2="140.04" xlink:href="#linear-gradient-3"/><linearGradient id="linear-gradient-45" x1="503.4" y1="177.4" x2="546.48" y2="177.4" xlink:href="#linear-gradient"/><linearGradient id="linear-gradient-46" x1="569.54" y1="275.65" x2="627.92" y2="275.65" gradientUnits="userSpaceOnUse"><stop offset="0" stop-color="#005e87"/><stop offset=".11" stop-color="#006589"/><stop offset=".28" stop-color="#00788f"/><stop offset=".47" stop-color="#009798"/><stop offset=".56" stop-color="#00a79d"/></linearGradient><linearGradient id="linear-gradient-47" x1="261.51" y1="177.4" x2="304.6" y2="177.4" xlink:href="#linear-gradient-2"/><linearGradient id="linear-gradient-48" x1="180.08" y1="275.65" x2="238.46" y2="275.65" xlink:href="#linear-gradient-4"/><style>.cls-38{fill:#4a48ca}.cls-56{fill:#2b2f3e}</style></defs><path d="M378.46 493a1.27 1.27 0 11-1.26-1.1 1.18 1.18 0 011.26 1.1z" transform="translate(-180.08 -109.69)" fill="#6a686a"/><path fill="#4fb9ca" d="M146.8 370.6l16.95 44.56"/><path fill="url(#linear-gradient)" d="M163.75 415.16l1.8-66.82-18.76 22.27 16.96 44.55z"/><path fill="url(#linear-gradient-2)" d="M165.55 348.34l-18.76 22.27-29.36-64.51 48.12 42.24z"/><path fill="url(#linear-gradient-3)" d="M163.75 415.16l1.8-66.82 40.72 35.51-42.52 31.31z"/><path fill="url(#linear-gradient-4)" d="M165.55 348.34l-.85-62.67-47.27 20.43 48.12 42.24z"/><path fill="url(#linear-gradient-5)" d="M164.7 285.67l-47.27 20.43-29.78-61.41 77.05 40.98z"/><path fill="url(#linear-gradient-6)" d="M165.55 348.34l-.85-62.67 31.06 40.72-30.21 21.95z"/><path fill="url(#linear-gradient-7)" d="M164.7 285.67l-27.44-43.33-49.61 2.35 77.05 40.98z"/><path fill="url(#linear-gradient-8)" d="M137.26 242.34l-49.61 2.35-4.32-42.24 53.93 39.89z"/><path fill="url(#linear-gradient-9)" d="M164.7 285.67l-27.44-43.33 97 5.54-69.56 37.79z"/><path fill="url(#linear-gradient-10)" d="M137.26 242.34l-34.34-92.69-19.59 52.8 53.93 39.89z"/><path fill="#76c1ca" d="M102.92 149.65l-19.59 52.8"/><path fill="url(#linear-gradient-11)" d="M137.26 242.34l-34.34-92.69 49.8 46.98-15.46 45.71z"/><path fill="#69baca" d="M102.92 149.65l34.91-31.91"/><path fill="url(#linear-gradient-12)" d="M102.92 149.65l34.91-31.92 56.23 13.4-91.14 18.52z"/><path fill="url(#linear-gradient-13)" d="M176.14 97.74l17.92 33.39-56.23-13.4 38.31-19.99z"/><path fill="url(#linear-gradient-14)" d="M194.06 131.13l-41.34 65.5-49.8-46.98 91.14-18.52z"/><path fill="url(#linear-gradient-15)" d="M152.72 196.63l81.54 51.25-97-5.54 15.46-45.71z"/><path fill="url(#linear-gradient-16)" d="M234.26 247.88l-38.5 78.51-31.06-40.72 69.56-37.79z"/><path fill="url(#linear-gradient-17)" d="M195.76 326.39l10.51 57.46-40.72-35.51 30.21-21.95z"/><path fill="url(#linear-gradient-18)" d="M283.44 415.83l-77.17-31.98-10.51-57.46 87.68 89.44z"/><path fill="url(#linear-gradient-19)" d="M283.44 415.83l-43.48-92.99-44.2 3.55 87.68 89.44z"/><path fill="url(#linear-gradient-20)" d="M239.96 322.84l-44.2 3.55 38.5-78.51 5.7 74.96z"/><path fill="url(#linear-gradient-21)" d="M283.44 415.83l-43.48-92.99 55.03 55.6-11.55 37.39z"/><path fill="url(#linear-gradient-22)" d="M239.96 322.84l43.47-101.77-49.17 26.81 5.7 74.96z"/><path fill="url(#linear-gradient-23)" d="M283.43 221.07l-49.17 26.81-81.54-51.25 130.71 24.44z"/><path fill="url(#linear-gradient-24)" d="M239.96 322.84l43.47-101.77 9.21 47.08-52.68 54.69z"/><path fill="url(#linear-gradient-25)" d="M283.43 221.07l-48.39-78.16-82.32 53.72 130.71 24.44z"/><path fill="url(#linear-gradient-26)" d="M235.04 142.91l-82.32 53.72 41.34-65.5 40.98 11.78z"/><path fill="url(#linear-gradient-27)" d="M283.43 221.07l-48.39-78.16 83.47 65.17-35.08 12.99z"/><path fill="url(#linear-gradient-28)" d="M235.04 142.91l-20.16-51.78-20.82 40 40.98 11.78z"/><path fill="url(#linear-gradient-29)" d="M214.88 91.13l-20.82 40-17.92-33.39 38.74-6.61z"/><path fill="url(#linear-gradient-30)" d="M235.04 142.91l-20.16-51.78 136.19 68.83-116.03-17.05z"/><path fill="url(#linear-gradient-31)" d="M273.47 98.28l77.6 61.68-136.19-68.83 58.59 7.15z"/><path fill="url(#linear-gradient-32)" d="M351.07 159.96l-32.56 48.12-83.47-65.17 116.03 17.05z"/><path class="cls-38" d="M318.51 208.08l-25.87 60.07-9.21-47.08 35.08-12.99z"/><path fill="url(#linear-gradient-33)" d="M292.64 268.15l2.35 110.29-55.03-55.6 52.68-54.69z"/><path class="cls-38" d="M283.44 415.83l11.55-37.39"/><path fill="#4a3fca" d="M311.14 341.85l-16.15 36.59"/><path fill="url(#linear-gradient-34)" d="M311.14 341.85l-16.15 36.59-2.35-110.29 18.5 73.7z"/><path fill="url(#linear-gradient-35)" d="M311.14 341.85l32.26-60.05-50.76-13.65 18.5 73.7z"/><path fill="url(#linear-gradient-36)" d="M343.4 281.8l-50.76-13.65 25.87-60.07 24.89 73.72z"/><path fill="url(#linear-gradient-37)" d="M343.4 281.8l18.17-38.2-43.06-35.52 24.89 73.72z"/><path fill="url(#linear-gradient-38)" d="M361.57 243.6l-43.06-35.52 32.56-48.12 10.5 83.64z"/><path fill="url(#linear-gradient-39)" d="M319.13 123.51l31.94 36.45-77.6-61.68 45.66 25.23z"/><path fill="url(#linear-gradient-40)" d="M283.45 415.4l-77.17-31.99 18.09 31.65 59.08.34z"/><path fill="url(#linear-gradient-41)" d="M224.37 415.06l-18.09-31.65-9.4 31.5 27.49.15z"/><path fill="url(#linear-gradient-42)" d="M206.28 383.41l-42.53 31.31 33.13.19 9.4-31.5z"/><path fill="url(#linear-gradient-43)" d="M351.07 159.96l13.45 48.38-3.29 33.26-10.16-81.64z"/><path d="M407.88 170.4a9.41 9.41 0 009.41-9.41V119.1a9.41 9.41 0 00-18.82 0V161a9.41 9.41 0 009.41 9.4z" transform="translate(-180.08 -109.69)" fill="url(#linear-gradient-44)"/><path d="M507.37 202.14a9.31 9.31 0 005.44 1.74 9.41 9.41 0 007.68-4l24.26-34.14a9.42 9.42 0 00-15.35-10.91L505.14 189a9.41 9.41 0 002.23 13.14z" transform="translate(-180.08 -109.69)" fill="url(#linear-gradient-45)"/><path d="M582.05 291.42l39.55-13.77a9.42 9.42 0 00-6.19-17.79l-39.55 13.79A9.42 9.42 0 00579 292a9.62 9.62 0 003.05-.58z" transform="translate(-180.08 -109.69)" fill="url(#linear-gradient-46)"/><path d="M287.52 199.92A9.41 9.41 0 00302.86 189l-24.26-34.13a9.42 9.42 0 00-15.35 10.91z" transform="translate(-180.08 -109.69)" fill="url(#linear-gradient-47)"/><path d="M232.14 273.65l-39.55-13.79a9.42 9.42 0 00-6.2 17.79l39.55 13.77a9.41 9.41 0 106.2-17.77z" transform="translate(-180.08 -109.69)" fill="url(#linear-gradient-48)"/><path class="cls-56" d="M457.23 529.32H350.77a10.59 10.59 0 000 21.17h106.46a10.59 10.59 0 000-21.17zm-6.9 25.02h-92.67a10.59 10.59 0 000 21.18h92.67a10.59 10.59 0 100-21.18zm-9.95 25.03h-72.76a10.58 10.58 0 100 21.16h72.76a10.58 10.58 0 100-21.16zM404 625a31.47 31.47 0 0029.28-20h-58.56A31.46 31.46 0 00404 625zm-109 49.3v4.29h9.73v5.15h-9.74V688h12.32v5.14h-18.1v-24.06h18.1v5.18zm39.41 6.89l8.17 8.27-4.41 4.4-8.1-8.23-8.3 8.17-4.4-4.41 8.26-8.28-8.24-8.11 4.41-4.41 8.28 8.16 8.12-8.21 4.4 4.41zm41.78 7.57a12.69 12.69 0 110-15l-4.37 2.81a8.36 8.36 0 00-5.85-2.45 7.13 7.13 0 000 14.25 8.18 8.18 0 005.85-2.4zm34.93-19.5v11.81c0 7.73-5.42 12.87-12.24 12.86s-12.24-5.16-12.23-12.89v-11.81h5.89v11.81c0 3.78 2.66 6.93 6.36 6.93s6.34-3.14 6.34-6.91v-11.81zm26.03 24.09l-3.95-6H429v6h-5.88v-24.06h11.7c4.93 0 8.62 4.23 8.62 9.48a8 8 0 01-4.31 7.33l5.29 7.26zm-8.15-11.3h4.89a3.36 3.36 0 003.6-3.29 3.55 3.55 0 00-3.55-3.56H429zm24 3.88h6.25s.26 3.29 4.52 3.3c2.29 0 4.37-1.37 4.37-2.85 0-3.07-5.59-3.3-7.18-3.63-2.81-.56-7.59-1.83-7.58-6.38 0-4.26 4.56-7.73 10.12-7.72 6.77 0 10.1 3.45 10.09 6.67h-6c0-.59-1-1.85-4.14-1.85-2.11 0-3.85 1.29-3.85 2.92 0 2 3.73 2 5.06 2.19 3.37.63 9.7 1.45 9.69 7.82 0 4.15-4.89 7.62-10.63 7.61-7.36-.01-10.72-4.82-10.72-8.08zm39.23-16.57v24.06h-5.78v-24.06zm37.85 12.11a12.68 12.68 0 11-12.64-12.71 12.66 12.66 0 0112.64 12.71zm-5.55 0a7.13 7.13 0 10-7.12 7.1 7.15 7.15 0 007.12-7.11zm40.25-12.02v24.06H559l-12-14.41v14.4h-5.77v-24.06H547l12 15v-15z" transform="translate(-180.08 -109.69)"/><path class="cls-56" d="M72.65 602.06h302.56v2.05H72.65zm0-66.94h302.56v2.05H72.65z"/><path d="M252.71 196.15l-20 46.8h-11.25l-20.09-46.8h12.82l12.89 28.66 12.81-28.66zm104.44-70.76v46.8h-11.24v-46.8zm141.85.5l-20 46.8h-11.21l-20.09-46.8h12.82l12.89 28.66 12.82-28.66zm93.28 113.03H569.6l-3.17 6.41h-12.67L577 198.52h8.49l22.4 46.81h-12.44zm-4.39-9.15l-7-15-6.62 15z" transform="translate(-180.08 -109.69)"/></svg>