<svg xmlns="http://www.w3.org/2000/svg" width="649.788" height="636.779" viewBox="0 0 171.923 168.481"><path d="M76.55 7.476l-5.006-4.957v17.047l5.006 4.956zm6.208 18.828V13.476L77.752 8.52v17.046l5.006 4.957zm-12.447 5.109h11.617l-5.054-5.106H59.493l5.054 5.106zm.445-11.194H53.375l5.054 5.106H75.81zM100.78 2.52l-5.007 4.956v17.046l5.006-4.956zm-6.008 6l-5.006 4.956v17.047l5.006-4.957zm.011 22.893h13.127l5.054-5.106H95.58l-5.054 5.106zm19.244-6.088l5.054-5.106h-17.382l-5.054 5.106zM71.544 66.83l5.006-4.957V44.826l-5.006 4.957zm6.208-6l5.006-4.958V38.826l-5.006 4.957zm4.176-22.74H64.547L59.493 43h17.38zm-6.118 5.892H58.429l-5.054 4.91h17.38zm19.963 17.891l5.006 4.956V49.783l-5.006-4.957zm-1.001-18.09l-5.006-4.957v17.046l5.006 4.957zm7.459-5.693H90.527L95.581 43h17.382l-5.054-4.91zm-.531 10.801h17.38l-5.053-4.91H96.645zm-75.811 8.412l-5.006-4.956v17.046l5.006 4.957zm1.001 18.09l5.206 4.957V63.304l-5.206-4.957zm-7.385 5.706h11.618l-5.055-4.91H8.687l5.054 4.91zM19.95 70.1H2.57l5.054 4.91h17.38zm29.968-17.753l-4.806 4.956V74.35l4.806-4.957zm-6.008 6l-5.006 4.957V80.35l5.006-4.958zm.067 22.752h13.126l5.054-4.91H44.775l-5.054 4.91zM63.22 75.01l5.055-4.91H50.893l-5.054 4.91zm-42.337 41.647l5.006-4.957V94.653l-5.006 4.957zm6.007-6.001l5.206-4.956V88.653L26.89 93.61zm.063-22.684H13.741l-5.054 4.713h17.381l5.054-4.713zm-19.33 5.892l-5.054 4.91H19.95l5.054-4.91zM45.112 111.7l4.806 4.957V99.61l-4.806-4.957zm-6.208-18.873V105.7l5.006 4.956V93.61l-5.006-4.957zm18.199-4.855H39.72l5.054 4.713h17.382zm11.172 10.801l-5.054-4.91H45.839l5.054 4.91zm7.875 7.836l-5.007-4.957V118.7l5.007 4.957zm1.201 18.09l4.806 4.957v-17.047l-4.806-4.957zm-7.571 5.693h11.616l-5.054-4.91H58.96l5.054 4.91zm.444-10.802H52.843l5.054 4.714h17.38zm30.155-.891v-17.047l-5.006 4.957v17.046zm-11.013-.567v11.524l4.805-4.957v-17.046l-4.805 4.956zm.629 12.26h17.382l5.054-4.91H95.049zm6.118-6.088h17.382l5.053-4.714h-17.381zm-24.97 41.658l5.007-4.956v-17.047l-5.007 4.957zm6.208-6l4.806-4.956v-17.047l-4.806 4.956zm-.124-22.893H64.015l-5.054 5.106h17.38l5.055-5.106zm-19.33 6.088l-5.054 5.106h17.38l5.055-5.106zm37.476 17.849l5.006 4.956v-17.046l-5.006-4.957zm-6.007-18.873v12.873l4.805 4.956v-17.047l-4.805-4.956zm12.334-5.064H89.994l5.054 5.106h17.382l-5.054-5.106zm-.533 11.194h17.382l-5.054-5.106H96.113zm25.844-91.481l-5.006-4.957V68.87l5.006 4.957zm1.002 18.09l5.006 4.956V62.782l-5.006-4.957zM114.82 80.51h17.382l-5.054-4.91h-17.382zm-11.171-10.802l5.053 4.91h17.382l-5.054-4.91zm47.591-17.883l-5.206 4.956v17.047l5.207-4.957zm-6.207 6l-5.206 4.957v17.047l5.206-4.957zm.024 22.685h13.126l5.053-4.91h-17.38l-5.055 4.91zm19.243-5.892l5.054-4.91h-17.381l-5.054 4.91zm-42.295 41.517l5.006-4.957V94.132l-5.006 4.956zm6.008-6l5.006-4.957V88.132l-5.006 4.956zm.02-22.752h-13.212l-5.055 4.91h17.382l5.054-4.91zm-19.33 6.087l-5.054 4.91h17.38l5.055-4.91zm37.331 17.708l5.207 4.957V99.088l-5.207-4.956zm-6.207-18.872v12.872l5.206 4.957V93.088l-5.206-4.956z" fill="red"/><path d="M151.973 98.38l-5.054-4.91h17.382l5.054 4.91zm-.732 17.755l-5.207-4.957V94.132l5.207 4.956zm-5.386-23.842l-5.054-4.91h17.382l5.053 4.91zm-.822 17.842l-5.206-4.957V88.132l5.206 4.956zm-5.206-28.447h5.206V86.4h-5.206zm0-6.079V62.782l5.206-4.957v17.047l-5.206 4.956zm11.614 10.792h-5.407v-4.713h5.407zM163.236 75.6l-5.053 4.91H140.8l5.054-4.91zm-17.202-18.818l5.207-4.957v17.047l-5.207 4.956zm23.32 12.926l-5.053 4.91h-17.382l5.054-4.91zm-30.328 4.91h-4.806v-5.106h4.806zm0 5.891h-4.806V75.6h4.806zm0 5.892h-4.806v-4.713h4.806zm0 5.892h-4.806v-4.91h4.806zm0 6.284h-4.806V93.47h4.806zm-6.007-30.272v11.524l-5.006-4.957V57.825l5.006 4.957zm0 18.096h-5.006v-4.713h5.006zm0 5.905v12.872l-5.006 4.957V93.088l5.006-4.956zm-5.871-.013h-17.382l5.055-4.91h17.381zm-.137 18.885l-5.006 4.957V99.088l5.006-4.956zm-5.981-12.797h-17.381l5.054-4.91h17.38zm-19.45.785h19.224v19.246H101.58zm11.915 25.138H96.113l5.054-4.714h17.381zm-6.118 6.088H89.995l5.054-4.91h17.381zm-12.004 1.178h5.206v4.517h-5.206zm17.057 10.605H95.05l-5.055-5.106h17.382zm6.118 6.088h-17.381l-5.054-5.106h17.382zm-18.169 17.7l-5.006-4.957v-17.047l5.006 4.957zm-6.208-6l-4.805-4.957v-17.047l4.805 4.956zm0-23.876h-4.805v-4.517h4.805zm0-28.434v17.046l-4.805 4.957v-17.047zm6.208-6v17.046l-5.006 4.956V106.61zm-17.08 10.475l-6.072-5.953-1.064-1.003-5.365-5.22h.045l-6.118-6.019-1.072-1.074-6.126-6.032v-4.696l6.126-6 1.068-.962 5.859-5.657h-.002l6.118-6.082 1.104-1.084 6.16-6.01v.018h4.605v-.018l6.146 5.984 1.067 1.018 5.384 5.192h-.082l6.118 6.018 1.064 1.091 6.118 6.049h.016V86.4h-.016l-6.118 5.975-1.064.917-6.118 5.873h.131l-5.94 5.876-1.042 1.087-6.05 5.999zm4.865 12.176h-4.806v-5.107h4.806zm0 6.088h-4.806v-4.91h4.806zm0 5.695h-4.806v-4.517h4.806zm0 6.088h-4.806v-5.106h4.806zm0 6.284h-4.806v-5.302h4.806zm-6.007-30.327v11.524l-4.806-4.957v-17.046l4.806 4.956zm0 17.955H77.35v-4.517h4.806zm0 6.046v12.873l-4.806 4.956v-17.047l4.806-4.956zm-5.815.042H58.96l5.054-5.106h17.381zm-.192 18.83l-5.006 4.957v-17.046l5.006-4.957zm-23.307-12.742l5.054-5.106h17.381l-5.054 5.106zm23.307-12.176h-5.207v-4.517h5.207zm-17.19-10.605h17.382l5.054 4.91H64.015zm12.184-6.783v-17.047l5.006 4.957v17.046zm-18.301.891h17.38l5.055 4.714H57.897zm-1.724-19.638h18.823v18.46H51.12zm-1.201 16.705l-4.806-4.957V94.653l4.806 4.957zM63.22 93.864l5.054 4.91H50.893l-5.054-4.91zm-18.446-1.179l-5.054-4.713h17.382l5.054 4.713zm-.865 17.971l-5.006-4.956V88.653l5.006 4.957zM38.904 82.08h5.006v4.714h-5.006zm0-5.949V63.304l5.006-4.957v17.046l-5.006 4.957zM50.52 86.794h-5.407V82.08h5.407zm11.638-10.605l-5.054 4.91H39.72l5.054-4.91zM45.112 57.303l4.806-4.956v17.046l-4.806 4.957zm23.163 12.798l-5.054 4.91H45.839l5.054-4.91zm2.468-1.178H51.12V50.069h19.624zm5.807-24.097v17.047l-5.006 4.956V49.783zm-18.121-.844h17.38l-5.053 4.91H53.375zm24.329-5.156v17.046l-5.006 4.957V43.783zm-18.211-.736h17.381L76.874 43H59.493zm12.003-1.178h-5.206v-4.714h5.206zm6.208 0h-5.006v-4.714h5.006zM59.493 26.307h17.38l5.055 5.106H64.547zm-6.118-6.088h17.38l5.055 5.106H58.429zm18.169-17.7l5.006 4.957v17.046l-5.006-4.956zm6.208 6l5.006 4.957v17.047l-5.006-4.957zm6.207 35.463h4.606v5.302h-4.606zm0-5.892h4.606V43h-4.606zm0-5.892h4.606v4.714h-4.606zm0-5.891h4.606v5.106h-4.606zm0-6.285h4.606v5.303h-4.606zm5.807 30.283V38.826l5.006 4.957v17.046l-5.006-4.957zm0-18.107h5.006v4.714h-5.006zm0-5.894V13.476l5.006-4.956v17.046l-5.006 4.957zm23.197.003l-5.054 5.106H90.527l5.054-5.106zM95.773 7.476l5.007-4.957v17.047l-5.007 4.956zm23.308 12.743l-5.054 5.106H96.645l5.054-5.106zm-23.308 11.98h5.207v4.713h-5.207zm17.19 10.8H95.58l-5.054-4.91h17.382zm-12.183 6.784v17.046l-5.007-4.956V44.826zm18.3-.892H101.7l-5.055-4.91h17.382zm1.724 19.639H101.98V50.07h18.823zm1.201-16.705l5.006 4.957v17.046l-5.006-4.956zm-13.302 22.793l-5.054-4.91h17.38l5.055 4.91zM127.01 86.4h-5.406v-4.713h5.406zm.137-10.801l5.054 4.91H114.82l-5.055-4.91zm-89.445-.59h-4.606v-5.105h4.606zm0 6.089h-4.606v-4.91h4.606zm0 5.695h-4.606V82.08h4.606zm0 5.891h-4.606v-4.713h4.606zm0 6.285h-4.606v-5.106h4.606zm-5.607-30.143V80.35l-5.206-4.958V58.347l5.206 4.957zm0 17.967H26.89V82.08h5.206zm0 6.033V105.7l-5.206 4.956V93.61l5.206-4.957zm-6.028-.142H8.687l5.054-4.713h17.382zm-.18 19.015l-5.005 4.957V99.61l5.006-4.957zM2.569 98.773l5.055-4.91h17.38l-5.053 4.91zm23.32-11.98h-5.406V82.08h5.407zM8.688 76.19h17.381l5.054 4.91H13.741zM2.569 70.1H19.95l5.054 4.91H7.623zm18.314-17.754l5.006 4.956V74.35l-5.006-4.957zm143.771 39.97l-6.205-6.011V81.61l6.205-6 1.107-1.062 6.162-6.018h-19.681V49.306l-6.163 6-1.043 1.014-6.051 5.925h-4.88l-6.072-5.925-1.064-1.016-5.366-5.235h.046l-6.118-5.99-1.044-1.061L108.389 37v-4.696l6.098-6 1.054-.957 6.108-5.914h-19.668V0l-6.17 6-1.046 1.119-6.054 6.03h-4.88l-6.072-6.03-.981-1.081L70.743 0v19.433H50.806l6.118 5.914 1.064.947 6.118 5.904h.029v4.714h-.029l-6.118 6.066-1.064 1.068-6.118 6.023h.131l-5.94 5.771-1.041 1.042-6.051 5.953h-4.88l-6.072-5.96-1.009-1.046-6.063-6.001v19.095H0l6.118 6.082 1.064 1.06L13.3 82.08h.174v4.714H13.3l-6.118 6.039-1.064 1.08L0 99.953h19.881v19.224l6.063-6 1.037-.992 6.09-5.948h4.788l6.097 5.948 1.042 1.027 5.358 5.2h-.082l6.118 5.992 1.064 1.105 6.118 6.062h-.04v4.517h.04l-6.118 6.045-1.064.98-6.118 5.936h19.668v19.433l6.17-6 1.09-1.096 6.143-6.052h4.788l6.096 6.052 1.116 1.07 6.235 6.026v-19.433h19.537L115 143.135l-1.078-1.023-6.133-5.98v-4.695l6.133-6 1.07-1.044 5.857-5.739.267-.26 5.853-5.74 1.065-1.025 6.118-5.982h4.788l6.096 5.982 1.044 1.034 6.163 5.991V99.166h19.681l-6.162-5.886z"/><path d="M158.183 87.383H140.8l5.054 4.91h17.381zM146.92 93.47l5.053 4.91h17.381l-5.053-4.91z" fill="red"/><path d="M55.475 145.735l2.244-2.268h17.009l-2.244 2.268-2.245 2.268H53.23zm3.779-3.717c0-.05 1.065-1.163 2.367-2.472l2.367-2.38h17.246l-2.47 2.471-2.47 2.473h-8.52c-4.686 0-8.52-.042-8.52-.092zm18.174 9.339v-8.434l2.333-2.378 2.334-2.378-.002 8.42-.001 8.418-2.332 2.394-2.332 2.393zm-6.281 6.03v-8.398l2.472-2.47 2.473-2.469-.002 8.485-.001 8.484-2.47 2.382-2.472 2.383zm20.597-.028l-2.289-2.391.006-8.4.007-8.4 2.329 2.405 2.329 2.405.003 8.386c.002 4.612-.019 8.385-.046 8.385s-1.08-1.075-2.338-2.39zm6.096 6.031l-2.373-2.376.034-8.363.034-8.364 2.373 2.3 2.374 2.3-.035 8.439-.034 8.44zm.903-17.672l-2.537-2.54h17.24l2.14 2.172c1.178 1.195 2.286 2.337 2.461 2.54l.32.367h-17.088zm-6.081-6.081l-2.47-2.472 8.619.003 8.618.003 2.383 2.47 2.383 2.469H95.132zm-.028-11.697l2.443-2.401 8.582.007 8.58.007-2.467 2.398-2.467 2.399-8.557-.005-8.558-.006zm4.24-4.248c.293-.28 1.381-1.304 2.419-2.273l1.886-1.762 8.567.034 8.567.035-2.406 2.238-2.405 2.239h-17.16zm-1.405-8.646v-8.42l2.405-2.402 2.406-2.402v16.838l-2.406 2.402-2.405 2.403zm-6.014 6.008v-8.426l2.332-2.398 2.332-2.398v16.838l-2.332 2.406-2.332 2.405zm-9.74 5.988l-2.281-2.372.002-8.419.002-8.419 2.328 2.406 2.328 2.405.006 8.386c.003 4.612-.02 8.385-.05 8.385-.03 0-1.08-1.067-2.335-2.372zm-6.129-6.039l-2.439-2.358v-16.959l2.473 2.473 2.474 2.474-.035 8.363-.034 8.364zm-17.874 1.184a301.136 301.136 0 01-2.401-2.266c-.262-.26-.208-.262 8.322-.262h8.587l2.167 2.025 2.431 2.271c.257.241.038.247-8.352.241l-8.616-.006zm5.894 5.759l-2.42-2.403h17.106l2.472 2.397 2.473 2.396-8.606.007-8.605.007zM41.38 108.03l-2.439-2.373V88.724l2.473 2.473 2.474 2.473-.035 8.366-.034 8.366zm6.13 6.05l-2.28-2.372v-8.42l.002-8.418 2.328 2.405 2.328 2.406.006 8.385c.003 4.612-.019 8.386-.049 8.386-.03 0-1.08-1.068-2.334-2.372zm.92-17.803l-2.473-2.396 8.608-.007 8.608-.006 2.428 2.405 2.429 2.405-8.564-.002-8.565-.003zm-6.052-5.917l-2.475-2.306 8.556-.034 8.556-.034 1.542 1.437c.849.79 1.969 1.841 2.49 2.334l.946.897-8.57.005-8.57.006zm-15.464 11.704v-8.4l2.506-2.368 2.505-2.368.037 8.383.037 8.383-1.908 1.837c-1.05 1.01-2.193 2.084-2.542 2.385l-.635.547zm-6.014 6.021v-8.407l2.473-2.47 2.472-2.47-.013 8.485-.014 8.485-2.459 2.392-2.459 2.393zM5.264 96.266l2.471-2.398 8.554.003 8.554.004-2.432 2.402-2.433 2.401-8.592-.007-8.593-.007zm3.946-3.982c.22-.21 1.344-1.262 2.5-2.339l2.103-1.957h17.172l-.465.447c-.256.247-1.376 1.3-2.489 2.34l-2.023 1.89H8.812zm97.097 3.595l2.458-2.4 8.62-.005 8.62-.006-2.473 2.398-2.472 2.398-8.606.007-8.606.006zm6.053-6.019l2.419-2.403 8.62.004 8.619.004-2.472 2.396-2.473 2.395-8.566.004-8.567.004zm9.702 17.702v-8.419l2.472-2.47 2.472-2.469v16.838l-2.472 2.47-2.472 2.47zm6.014-6.013v-8.42l2.472-2.469 2.472-2.47v16.839l-2.472 2.47-2.472 2.469zm14.258 5.906l-2.512-2.429.04-8.373.04-8.374 2.512 2.427 2.512 2.427-.04 8.375-.04 8.376zm6.288 6.093l-2.506-2.363V94.376l.769.68c.422.376 1.567 1.449 2.543 2.386l1.775 1.704-.038 8.382-.037 8.383zm-5.178-23.688l-2.473-2.395h17.24l2.453 2.4 2.454 2.399-8.601-.005-8.601-.004zm6.014 6.005l-2.471-2.398 8.618.006 8.619.007 2.472 2.396 2.472 2.396-8.62-.004-8.619-.005zm-6.068-17.768l2.42-2.404 8.606.007 8.605.007-2.472 2.397-2.472 2.396H140.97l2.42-2.403zm7.981-3.573c2.413-.02 6.321-.02 8.686 0s.392.037-4.386.037c-4.777 0-6.712-.017-4.3-.037zm-5.255-9.344v-8.399l2.506-2.368 2.506-2.369.036 8.384.037 8.383-1.908 1.837c-1.049 1.01-2.193 2.083-2.542 2.385l-.635.547zm3.42 6.979l2.393-2.332 8.62-.007 8.62-.007-2.406 2.332-2.406 2.332-8.607.007-8.607.007zm-9.706-.827l-.006-8.4 2.512-2.428 2.51-2.426.035 8.363.035 8.364-.302.324c-.166.179-1.31 1.287-2.54 2.464l-2.239 2.14zm-9.316 5.931l-2.438-2.441V57.988l2.473 2.473 2.473 2.473-.034 8.386-.035 8.385zM124.5 71.25l-2.438-2.442V51.974l2.473 2.473 2.473 2.473-.034 8.386-.034 8.385zm-18.257.896l-2.388-2.333 8.602.007 8.603.007 2.405 2.33 2.406 2.331-8.62-.005-8.62-.005zm6.197 5.954l-2.472-2.395 8.62-.002 8.619-.002 2.432 2.402 2.432 2.401-8.58-.004-8.578-.005zM98.242 64.234L95.87 61.86V45.025l2.406 2.406 2.406 2.407-.034 8.385-.034 8.386zm-6.014-6.014l-2.372-2.374V39.01l2.406 2.407 2.407 2.406-.035 8.386-.034 8.385zm.951-17.666l-2.454-2.4 8.57-.006 8.571-.006 2.454 2.399 2.454 2.4-8.57.005-8.571.007zm6.066 5.869l-2.438-2.401 8.585.006 8.585.005 2.472 2.395 2.473 2.396h-17.24zm-43.212-.003l2.459-2.398 8.566.006 8.566.005-2.45 2.4-2.448 2.4-8.576-.007-8.576-.007zm6.067-5.869l2.432-2.401h8.62l8.62.002-2.473 2.395-2.472 2.395-8.58.006-8.58.005zM45.222 65.725v-8.431l2.332-2.393 2.332-2.393v16.838l-2.332 2.405-2.332 2.405zm-6.281 5.986v-8.423l2.439-2.357 2.439-2.358.034 8.387.035 8.386-.502.52c-.277.285-1.39 1.362-2.474 2.393l-1.97 1.875zm3.429 6.919l2.425-2.402 8.6.007 8.598.007-2.472 2.397-2.472 2.398-8.553-.002-8.553-.002 2.426-2.403zm6.118-6.084l2.398-2.332 8.56.005 8.56.005-2.371 2.333-2.372 2.334-8.586-.006-8.586-.007zm-37.208 6.08l-2.471-2.398 8.618.007 8.618.006 2.464 2.399 2.463 2.399-8.61-.007-8.611-.007zm18.146-.906l-2.5-2.36-.006-8.391c-.006-7.955.006-8.383.228-8.253.128.075 1.273 1.145 2.544 2.376l2.31 2.24-.039 8.374-.038 8.375zm-6.094-5.994l-2.446-2.38.04-8.38.041-8.38 2.446 2.366 2.446 2.366-.04 8.395-.04 8.394zm-18.134.829l-2.405-2.329 8.62-.004 8.619-.004 2.353 2.337 2.353 2.336-8.567-.004-8.567-.004zM80.2 27.885l-2.371-2.374V8.676l2.406 2.407 2.407 2.406-.035 8.386-.034 8.385zM73.981 21.9l-2.444-2.4.039-8.373.039-8.372 2.445 2.359 2.444 2.359-.039 8.413-.04 8.414zm-18.001.874l-2.537-2.54h17.239l2.536 2.54 2.537 2.539H58.516zm6.14 6.114l-2.374-2.44 8.539-.034 8.539-.034 2.473 2.473 2.473 2.473H64.494zm15.709 23.35v-8.42l2.405-2.402 2.406-2.403v16.838l-2.406 2.403-2.405 2.403zm-6.287 5.997l-.005-8.4 2.444-2.361 2.445-2.361.034 8.37.035 8.372-1.304 1.316c-.718.724-1.83 1.8-2.474 2.39l-1.169 1.074zm18.314-36.333v-8.419l2.405-2.402 2.406-2.403v16.838L92.26 27.92l-2.405 2.402zm6.014-6.013v-8.42l2.405-2.402 2.405-2.402v16.838l-2.405 2.402-2.405 2.403zm-2.673 12.965l2.47-2.472h17.1l-2.402 2.452-2.401 2.452-8.619.02-8.618.02zm6.083-6.081l2.54-2.54 8.514.034 8.515.035-2.414 2.505-2.413 2.506H96.739z" fill="#c83737"/></svg>