<svg xmlns="http://www.w3.org/2000/svg" width="649.788" height="636.779" viewBox="0 0 171.923 168.481"><path d="M145.142 86.266l10.286 10.087V86.266h-10.363v-4.503h10.363V71.57l-10.286 10.193h-20.415l30.876-30.543h-33.227l-21.28 21.133 9.815 9.606h13.618l.008-.037v4.28l-.008-.132H110.91l-9.815 9.508 21.28 21.035h33.227l-30.875-30.347zM88.065 122.29H83.28v20.001l-10.439 9.758h10.44v-9.398h4.783v9.398h10.62l-10.62-9.758zm-24.08-38.569l10.337 10.155 10.117-9.939-10.337-10.155zm44.144.518L97.792 74.085l-10.118 9.94L98.012 94.18zM96.44 95.725L86.1 85.57l-10.118 9.94 10.338 10.154zm-.308-23.272L85.793 62.298l-10.118 9.939 10.338 10.155zm-8.066 94.622l10.62-9.934h-10.62zm-4.784 0v-9.934h-10.44zm2.483-16.238l-3.916 3.847 3.916 3.847 3.916-3.847zm74.647-54.484l10.574-10.087h-10.574zm0-24.783v10.193h10.574zm-2.347 8.544l-3.916 3.847 3.916 3.847 3.916-3.847zM16.316 86.266v10.087l10.685-10.087H46.81v-4.503H27.001L16.316 71.57v10.193h9.965v4.503zm-4.783 10.087V86.266H1.158zm0-24.783L1.158 81.763h10.375zm2.546 8.544l-3.916 3.847 3.916 3.847 3.916-3.847zM88.065 1.15v9.935h10.62zm-4.784 0l-10.439 9.935h10.44zm2.483 16.239l3.916-3.847-3.916-3.847-3.916 3.847zm2.3 90.974v13.378l31.29 30.526v-32.641L97.843 98.72zM60.9 86.07H47.28l-31.074 30.543h33.228l21.28-21.035zm22.58 22.292l-9.677-9.642-21.413 20.905v32.641l31.09-30.526zm35.875-92.706l-31.29 30.526V59.56l9.777 9.641 21.513-20.904zM60.9 81.96l9.814-9.606-21.28-21.133H16.208L47.281 81.96zm12.903-12.757L52.39 48.298V15.656l30.891 30.33V25.932L72.842 15.98h10.44v9.789h4.783v-9.79h10.62l-10.62 9.954V46.13h-4.51l-.074.052V59.56z" fill="red"/><path d="M20.942 112.123c2.445-2.4 9.381-9.221 15.412-15.16l10.967-10.796 6.725-.008 6.726-.008 4.747 4.564c2.611 2.51 4.748 4.696 4.748 4.856 0 .16-4.688 4.927-10.418 10.593L49.43 116.465l-16.468.01-16.468.011zm12.796-43.715c-7.47-7.386-14.413-14.27-15.427-15.297l-1.844-1.868h32.847l10.551 10.51c5.803 5.782 10.518 10.59 10.477 10.686-.042.096-2.2 2.253-4.795 4.793l-4.72 4.619-6.753-.007-6.753-.008zm29.342-9.831L52.464 48.208v-32.22l1.648 1.585c.907.871 7.85 7.67 15.43 15.11l13.78 13.525v13.218l-4.678 4.769c-2.574 2.622-4.74 4.764-4.814 4.76-.074-.005-4.912-4.675-10.75-10.378zm29.803 5.593l-4.813-4.762.012-6.566.012-6.566 12.407-12.083a13883.72 13883.72 0 0115.549-15.125l3.142-3.042V48.26l-10.566 10.285C102.814 64.2 97.978 68.852 97.878 68.88c-.1.029-2.348-2.09-4.995-4.71zm13.187 12.902l-4.814-4.753 10.616-10.527 10.617-10.528 16.48-.01 16.48-.011-1.05 1.033c-.579.569-7.542 7.456-15.474 15.304l-14.422 14.27-6.81-.012-6.81-.013zm5.792 29.01l-10.56-10.404 4.79-4.754 4.792-4.754 6.812-.012 6.812-.011 4.133 4.114c2.274 2.262 9.148 9.041 15.277 15.064 6.13 6.023 11.144 10.998 11.144 11.056 0 .058-7.344.105-16.32.105h-16.32zM92.93 88.955l-4.992-4.951 4.88-4.828c2.683-2.655 4.95-4.8 5.039-4.768.088.033 2.396 2.256 5.13 4.941l4.97 4.883-4.703 4.649c-2.586 2.557-4.844 4.734-5.017 4.837-.193.115-2.233-1.715-5.306-4.763zM80.854 77.184l-4.974-4.908 4.05-4.035c2.229-2.22 4.476-4.408 4.994-4.864l.942-.83 4.992 4.954 4.992 4.953-4.877 4.833c-2.683 2.658-4.938 4.826-5.011 4.819-.074-.008-2.372-2.223-5.108-4.922zM69.212 88.68L64.2 83.721l4.879-4.819c2.684-2.65 4.939-4.821 5.011-4.823.073-.002 2.387 2.215 5.143 4.926l5.011 4.931-4.849 4.797c-2.667 2.639-4.922 4.822-5.011 4.852-.09.03-2.417-2.178-5.173-4.905zm15.685 15.383c-.794-.751-3.072-2.993-5.064-4.982l-3.621-3.617 4.644-4.591c2.555-2.526 4.81-4.69 5.011-4.81.262-.155 1.79 1.183 5.36 4.696l4.992 4.914-.58.634c-.319.35-2.542 2.544-4.94 4.878l-4.36 4.244zM52.464 135.87v-16.11l9.56-9.336a8118.983 8118.983 0 0110.666-10.402l1.104-1.066 4.757 4.67 4.756 4.671.008 6.719.007 6.719-12.307 12.076a15144.58 15144.58 0 01-15.43 15.123l-3.121 3.047zm30.858-3.408v-10.069h4.748v20.137h-4.748zm20.243 4.258L88.07 121.546v-13.064l4.775-4.657c2.626-2.56 4.886-4.656 5.022-4.656.136 0 4.986 4.59 10.778 10.202l10.531 10.203.008 16.177c.004 8.897-.022 16.168-.058 16.158-.036-.01-7.039-6.845-15.561-15.19z" fill="#c83737"/><path d="M88.07 147.174v-4.753l.989.95c.544.522 2.859 2.66 5.145 4.753l4.155 3.804H88.07zm-14.237 4.122c.36-.348 2.197-2.062 4.082-3.81a1193.91 1193.91 0 004.286-3.984l.858-.809v9.235H73.18zm10.081 5.235l-1.913-1.796 1.826-1.844 1.825-1.845 1.866 1.716c1.026.944 1.866 1.78 1.868 1.858.001.077-.799.943-1.778 1.924l-1.78 1.783zm-5.785 5.48l-4.798-4.58 4.77-.073c2.623-.04 4.815-.027 4.87.03.055.055.068 2.15.028 4.652l-.072 4.55zm9.941.018v-4.732h5.01c2.757 0 5.012.05 5.012.109 0 .114-8.758 8.345-9.56 8.986-.437.348-.462.104-.462-4.363zm62.27-70.794l-4.852-4.82h9.837v4.833c0 2.658-.03 4.827-.066 4.82-.036-.007-2.25-2.182-4.918-4.833zm-25.61-7.236V81.85h20.31v4.296h-20.308zm21.632-3.305c.506-.49 2.729-2.686 4.941-4.881l4.022-3.993v9.762h-9.881zm14.238-3.81c0-2.584.09-4.694.198-4.69.109.006 2.334 2.116 4.945 4.689l4.748 4.678-4.945.01-4.946.011zm-4.486 8.857l-1.702-1.748 1.846-1.879 1.846-1.879 1.842 1.899 1.841 1.899-1.783 1.728c-.98.95-1.874 1.728-1.985 1.728-.112 0-.97-.786-1.905-1.748zm4.486 5.419v-4.745h5.055c2.78 0 5.006.038 4.946.083-.06.046-2.013 1.888-4.338 4.095a696.19 696.19 0 01-4.946 4.662l-.717.651zM88.07 20.926V16.07h5.196c2.857 0 5.083.1 4.945.222-.138.122-2.476 2.307-5.196 4.856l-4.945 4.634zm-4.748 15.08V26.004h4.748v19.831l-2.375.086-2.374.086zm.435-20.701l-1.793-1.84 1.924-1.787 1.923-1.787 1.789 1.807 1.789 1.808-1.774 1.819c-.975 1-1.839 1.82-1.919 1.82-.08 0-.953-.829-1.939-1.84zm-5.673 5.503l-4.842-4.604 4.814-.073c2.648-.04 4.86-.027 4.915.029.055.056.068 2.16.028 4.676l-.072 4.575zM74.65 9.547c.816-.768 3.041-2.891 4.946-4.717l3.463-3.32v9.459l-4.946-.012-4.945-.012zM88.07 6.27c0-2.584.068-4.698.152-4.698.083 0 2.395 2.114 5.138 4.698l4.985 4.699H88.07zM16.33 91.303v-4.888h10.022v-4.833H16.33v-9.766l.726.672c.399.37 2.773 2.627 5.276 5.017l4.552 4.346h19.778v4.296H26.933L22.62 90.21a1024.446 1024.446 0 00-5.302 5.022l-.989.957zM5.738 77.43c2.292-2.283 4.486-4.407 4.874-4.718l.707-.566v9.436H1.57zm.652 13.75l-4.798-4.63 4.77-.074c2.623-.04 4.814-.027 4.87.03.055.055.067 2.172.028 4.703l-.073 4.603z" fill="#c83737"/><path d="M12.108 85.741l-1.702-1.748 1.846-1.879 1.846-1.879 1.834 1.882 1.834 1.881-1.7 1.746c-.934.96-1.824 1.745-1.977 1.745-.154 0-1.045-.786-1.981-1.748z" fill="#c83737"/></svg>