<svg xmlns="http://www.w3.org/2000/svg" width="649.788" height="636.779" viewBox="0 0 171.923 168.481"><path d="M113.113 84.177l-5.652 5.499H91.884L86.217 84.2l5.667-5.52h15.577zm-29.887 0l-5.652 5.499H61.997L56.33 84.2l5.667-5.52h15.577zm1.405.497l5.615 5.534v15.253l-5.592 5.548-5.638-5.548V90.208zm.023-.978l-5.638-5.549V62.894l5.615-5.534 5.615 5.534v15.253zm44.717-8.741h-6.52V68.57h6.52zM122.85 93.4h6.52v6.385h-6.52zM46.592 74.955h-6.52V68.57h6.52zM40.073 93.4h6.52v6.385h-6.52zm54.34 28.378h6.52v6.385h-6.52zm-18.839 6.385h-6.52v-6.385h6.52zm18.838-87.616h6.52v6.385h-6.52zm-18.838 6.385h-6.52v-6.385h6.52zm-26.083 69.88h2.174v2.128H49.49zm-4.89-4.789h11.954v11.706H44.6zm-1.268 12.948h14.49v-14.19h-14.49zm74.445-8.159h2.174v2.128h-2.174zm-4.89-4.789h11.955v11.706h-11.955zm-1.268 12.948h14.49v-14.19h-14.49zm8.332-73.073h-2.174v-2.129h2.174zm-35.45 115.594l-16.489-16.145 16.488-16.145 16.489 16.145zm-18.45-16.145l18.45 18.065 18.448-18.065-18.449-18.065zm17.311-1.368h2.174v2.128h-2.174zm53.3-65.852l16.488-16.145 16.488 16.145-16.488 16.145zm16.488-18.064L134.7 84.127l18.45 18.065 18.45-18.065zm1.035 18.824h-2.173v-2.128h2.173zM.45 84.127l16.49-16.145 16.488 16.145-16.488 16.145zm16.49-18.064L-1.51 84.127l18.45 18.065 18.448-18.065zm1.035 18.824H15.8v-2.128h2.174zM84.682 1.649l16.489 16.145-16.489 16.145-16.488-16.145zm18.45 16.145L84.681-.271 66.233 17.794l18.45 18.065zm21.71 38.892h-11.954V44.981h11.955zm1.268-12.947h-14.49v14.189h14.49zM85.718 18.554h-2.174v-2.129h2.174zM51.665 51.898H49.49v-2.129h2.174zm4.89 4.788H44.6V44.981h11.955zm1.268-12.947h-14.49v14.189h14.49zM49.2 84.266l35.523-34.782 35.522 34.782-35.522 34.782zm35.523-36.723L47.218 84.266l37.504 36.723 37.503-36.723zm60.096 56.144h-36.975l18.488-18.102zm-60.096 18.67L45.82 84.267l38.9-38.091 38.901 38.09zm19.834 20.754L86.068 125.01l18.488-18.103zm-39.669 0v-36.205l18.488 18.103zm-40.262-39.424l18.487-18.102L61.6 103.687zm0-38.842H61.6L43.112 82.948zm40.262-39.424l18.488 18.103-18.488 18.102zm39.669 0v36.205L86.068 43.524zm40.262 39.424l-18.487 18.103-18.488-18.103zm4.362-1.774h-42.813v-41.92L84.722 42.315 63.076 21.15v41.921H20.263L41.88 84.266l-21.616 21.195h42.813v41.921l21.646-21.166 21.645 21.166v-41.921h42.813l-21.616-21.195z" fill="red"/></svg>