<svg version="1.1" id="Слой_1" xmlns="http://www.w3.org/2000/svg" x="0" y="0" viewBox="0 0 97.3 77.1" xml:space="preserve"><style>.st0{fill:#12b2b2}</style><path class="st0" d="M44 76.3l51.3-34c2.7-1.8 2.7-5.7 0-7.5L44 .8c-3-2-7 .2-7 3.7v68.1c.1 3.5 4.1 5.7 7 3.7z"/><path class="st0" d="M37.1 5.2c18.4 0 33.4 14.9 33.4 33.4s-15 33.3-33.4 33.3V5.2z"/><path d="M37.1 5.4c18.3 0 33.1 14.8 33.1 33.1S55.4 71.6 37.1 71.6V5.4z" fill="#12b1b1"/><path d="M37.1 5.7C55.2 5.7 70 20.4 70 38.5S55.2 71.4 37.1 71.4V5.7z" fill="#12b0b0"/><path d="M37.1 5.9c18 0 32.6 14.6 32.6 32.6S55.1 71.1 37.1 71.1V5.9z" fill="#12afaf"/><path d="M37.1 6.2c17.9 0 32.4 14.5 32.4 32.4S55 70.9 37.1 70.9V6.2z" fill="#12afae"/><path d="M37.1 6.4c17.7 0 32.1 14.4 32.1 32.1S54.8 70.6 37.1 70.6V6.4z" fill="#12aeae"/><path d="M37.1 6.7C54.7 6.7 69 21 69 38.6S54.7 70.4 37.1 70.4V6.7z" fill="#11adad"/><path d="M37.1 6.9c17.5 0 31.6 14.2 31.6 31.6S54.5 70.1 37.1 70.1V6.9z" fill="#11acac"/><path d="M37.1 7.2c17.3 0 31.4 14 31.4 31.4S54.5 70 37.1 70V7.2z" fill="#11abab"/><path d="M37.1 7.4c17.2 0 31.1 13.9 31.1 31.1S54.3 69.6 37.1 69.6V7.4z" fill="#1aa"/><path d="M37.1 7.7c17 0 30.8 13.8 30.8 30.8S54.1 69.4 37.1 69.4V7.7z" fill="#11a9a9"/><path d="M37.1 7.9c16.9 0 30.6 13.7 30.6 30.6S54 69.1 37.1 69.1V7.9z" fill="#11a9a8"/><path d="M37.1 8.2c16.8 0 30.3 13.6 30.3 30.3S53.8 68.9 37.1 68.9V8.2z" fill="#11a8a7"/><path d="M37.1 8.4c16.6 0 30.1 13.5 30.1 30.1S53.7 68.6 37.1 68.6V8.4z" fill="#11a7a6"/><path d="M37.1 8.7c16.5 0 29.8 13.4 29.8 29.8S53.6 68.4 37.1 68.4V8.7z" fill="#11a6a6"/><path d="M37.1 8.9c16.3 0 29.6 13.2 29.6 29.6S53.4 68.1 37.1 68.1V8.9z" fill="#11a5a5"/><path d="M37.1 9.2c16.2 0 29.3 13.1 29.3 29.3S53.3 67.9 37.1 67.9V9.2z" fill="#11a4a4"/><path d="M37.1 9.4c16.1 0 29.1 13 29.1 29.1s-13 29.1-29.1 29.1V9.4z" fill="#11a4a3"/><path d="M37.1 9.7c15.9 0 28.8 12.9 28.8 28.8S53 67.4 37.1 67.4V9.7z" fill="#10a3a2"/><path d="M37.1 10c15.8 0 28.6 12.8 28.6 28.6S52.9 67.1 37.1 67.1V10z" fill="#10a2a1"/><path d="M37.1 10.2c15.6 0 28.3 12.7 28.3 28.3S52.7 66.8 37.1 66.8V10.2z" fill="#10a1a0"/><path d="M37.1 10.5c15.5 0 28.1 12.6 28.1 28.1s-12.6 28-28.1 28V10.5z" fill="#10a09f"/><path d="M37.1 10.7c15.4 0 27.8 12.5 27.8 27.8S52.4 66.3 37.1 66.3V10.7z" fill="#109f9e"/><path d="M37.1 11c15.2 0 27.6 12.3 27.6 27.6S52.3 66.1 37.1 66.1V11z" fill="#109e9e"/><path d="M37.1 11.2c15.1 0 27.3 12.2 27.3 27.3S52.2 65.8 37.1 65.8V11.2z" fill="#109e9d"/><path d="M37.1 11.5c14.9 0 27.1 12.1 27.1 27.1s-12.2 27-27.1 27V11.5z" fill="#109d9c"/><path d="M37.1 11.7c14.8 0 26.8 12 26.8 26.8s-12 26.8-26.8 26.8V11.7z" fill="#109c9b"/><path d="M37.1 12c14.7 0 26.5 11.9 26.5 26.5S51.7 65.1 37.1 65.1V12z" fill="#109b9a"/><path d="M37.1 12.2c14.5 0 26.3 11.8 26.3 26.3S51.6 64.8 37.1 64.8V12.2z" fill="#109a99"/><path d="M37.1 12.5c14.4 0 26 11.7 26 26s-11.7 26-26 26v-52z" fill="#0f9998"/><path d="M37.1 12.7c14.2 0 25.8 11.5 25.8 25.8S51.3 64.3 37.1 64.3V12.7z" fill="#0f9897"/><path d="M37.1 13c14.1 0 25.5 11.4 25.5 25.5S51.2 64.1 37.1 64.1V13z" fill="#0f9896"/><path d="M37.1 13.2c14 0 25.3 11.3 25.3 25.3S51.1 63.8 37.1 63.8V13.2z" fill="#0f9796"/><path d="M37.1 13.5c13.8 0 25 11.2 25 25s-11.2 25-25 25v-50z" fill="#0f9695"/><path d="M37.1 13.7c13.7 0 24.8 11.1 24.8 24.8S50.8 63.3 37.1 63.3V13.7z" fill="#0f9594"/><path d="M37.1 14c13.5 0 24.5 11 24.5 24.5S50.6 63 37.1 63V14z" fill="#0f9493"/><path d="M37.1 14.3c13.4 0 24.3 10.9 24.3 24.3S50.5 62.8 37.1 62.8V14.3z" fill="#0f9392"/><path d="M37.1 14.5c13.3 0 24 10.8 24 24s-10.8 24-24 24v-48z" fill="#0f9291"/><path d="M37.1 14.8c13.1 0 23.8 10.6 23.8 23.8S50.2 62.3 37.1 62.3V14.8z" fill="#0f9290"/><path d="M37.1 15c13 0 23.5 10.5 23.5 23.5S50.1 62 37.1 62V15z" fill="#0f918f"/><path d="M37.1 15.3c12.8 0 23.3 10.4 23.3 23.3S49.9 61.8 37.1 61.8V15.3z" fill="#0f908e"/><path d="M37.1 15.5c12.7 0 23 10.3 23 23s-10.3 23-23 23v-46z" fill="#0e8f8e"/><path d="M37.1 15.8c12.6 0 22.8 10.2 22.8 22.8S49.7 61.3 37.1 61.3V15.8z" fill="#0e8e8d"/><path d="M37.1 16c12.4 0 22.5 10.1 22.5 22.5S49.5 61 37.1 61V16z" fill="#0e8d8c"/><path d="M37.1 16.3c12.3 0 22.3 10 22.3 22.3s-10 22.3-22.3 22.3V16.3z" fill="#0e8d8b"/><path d="M37.1 16.5c12.1 0 22 9.8 22 22s-9.8 22-22 22v-44z" fill="#0e8c8a"/><path d="M37.1 16.8c12 0 21.7 9.7 21.7 21.7s-9.7 21.7-21.7 21.7V16.8z" fill="#0e8b89"/><path d="M37.1 17c11.9 0 21.5 9.6 21.5 21.5S49 60 37.1 60V17z" fill="#0e8a88"/><path d="M37.1 17.3c11.7 0 21.2 9.5 21.2 21.2s-9.5 21.2-21.2 21.2V17.3z" fill="#0e8987"/><path d="M37.1 17.5c11.6 0 21 9.4 21 21s-9.4 21-21 21v-42z" fill="#0e8886"/><path d="M37.1 17.8c11.5 0 20.7 9.3 20.7 20.7s-9.3 20.7-20.7 20.7V17.8z" fill="#0e8786"/><path d="M37.1 18c11.3 0 20.5 9.2 20.5 20.5S48.4 59 37.1 59V18z" fill="#0e8785"/><path d="M37.1 18.3c11.2 0 20.2 9.1 20.2 20.2s-9.1 20.2-20.2 20.2V18.3z" fill="#0e8684"/><path d="M37.1 18.5c11 0 20 8.9 20 20s-8.9 20-20 20v-40z" fill="#0d8583"/><path d="M37.1 18.8c10.9 0 19.7 8.8 19.7 19.7S48 58.2 37.1 58.2V18.8z" fill="#0d8482"/><path d="M37.1 19.1c10.8 0 19.5 8.7 19.5 19.5S47.8 58 37.1 58V19.1z" fill="#0d8381"/><path d="M37.1 19.3c10.6 0 19.2 8.6 19.2 19.2s-8.6 19.2-19.2 19.2V19.3z" fill="#0d8280"/><path d="M37.1 19.6c10.5 0 19 8.5 19 19s-8.5 19-19 19v-38z" fill="#0d817f"/><path d="M37.1 19.8c10.3 0 18.7 8.4 18.7 18.7s-8.4 18.7-18.7 18.7V19.8z" fill="#0d817e"/><path d="M37.1 20.1c10.2 0 18.5 8.3 18.5 18.5S47.3 57 37.1 57V20.1z" fill="#0d807e"/><path d="M37.1 20.3c10.1 0 18.2 8.2 18.2 18.2s-8.2 18.2-18.2 18.2V20.3z" fill="#0d7f7d"/><path d="M37.1 20.6c9.9 0 18 8 18 18s-8 18-18 18v-36z" fill="#0d7e7c"/><path d="M37.1 20.8c9.8 0 17.7 7.9 17.7 17.7s-7.9 17.7-17.7 17.7V20.8z" fill="#0d7d7b"/><path d="M37.1 21.1c9.6 0 17.4 7.8 17.4 17.4S46.7 56 37.1 56V21.1z" fill="#0d7c7a"/><path d="M37.1 21.3c9.5 0 17.2 7.7 17.2 17.2s-7.7 17.2-17.2 17.2V21.3z" fill="#0c7b79"/><path d="M37.1 21.6c9.4 0 16.9 7.6 16.9 16.9s-7.6 16.9-16.9 16.9V21.6z" fill="#0c7b78"/><path d="M37.1 21.8c9.2 0 16.7 7.5 16.7 16.7s-7.5 16.7-16.7 16.7V21.8z" fill="#0c7a77"/><path d="M37.1 22.1c9.1 0 16.4 7.4 16.4 16.4S46.2 55 37.1 55V22.1z" fill="#0c7976"/><path d="M37.1 22.3c8.9 0 16.2 7.2 16.2 16.2S46 54.7 37.1 54.7V22.3z" fill="#0c7876"/><path d="M37.1 22.6c8.8 0 15.9 7.1 15.9 15.9s-7.1 15.9-15.9 15.9V22.6z" fill="#0c7775"/><path d="M37.1 22.8c8.7 0 15.7 7 15.7 15.7s-7 15.7-15.7 15.7V22.8z" fill="#0c7674"/><path d="M37.1 23.1c8.5 0 15.4 6.9 15.4 15.4S45.6 54 37.1 54V23.1z" fill="#0c7673"/><path d="M37.1 23.4c8.4 0 15.2 6.8 15.2 15.2s-6.8 15.2-15.2 15.2V23.4z" fill="#0c7572"/><path d="M37.1 23.6c8.2 0 14.9 6.7 14.9 14.9s-6.7 14.9-14.9 14.9V23.6z" fill="#0c7471"/><path d="M37.1 23.9c8.1 0 14.7 6.6 14.7 14.7s-6.6 14.7-14.7 14.7V23.9z" fill="#0c7370"/><path d="M37.1 24.1c8 0 14.4 6.5 14.4 14.4S45 52.9 37.1 52.9V24.1z" fill="#0c726f"/><path d="M37.1 24.4c7.8 0 14.2 6.3 14.2 14.2S45 52.8 37.1 52.8V24.4z" fill="#0b716e"/><path d="M37.1 24.6c7.7 0 13.9 6.2 13.9 13.9s-6.2 13.9-13.9 13.9V24.6z" fill="#0b706e"/><path d="M37.1 24.9c7.5 0 13.7 6.1 13.7 13.7s-6.1 13.7-13.7 13.7V24.9z" fill="#0b706d"/><path d="M37.1 25.1c7.4 0 13.4 6 13.4 13.4s-6 13.4-13.4 13.4V25.1z" fill="#0b6f6c"/><path d="M37.1 25.4c7.3 0 13.2 5.9 13.2 13.2s-5.9 13.2-13.2 13.2V25.4z" fill="#0b6e6b"/><path d="M37.1 25.6c7.1 0 12.9 5.8 12.9 12.9s-5.8 12.9-12.9 12.9V25.6z" fill="#0b6d6a"/><circle transform="rotate(-42.405 37.088 38.524)" class="st0" cx="37.1" cy="38.5" r="16.6"/><path class="st0" d="M4.1 34.4c-2.3 0-4.1 1.8-4.1 4.1s1.8 4.1 4.1 4.1h19.7v-8.2H4.1z"/><text transform="translate(29.343 47.798)" font-size="24.55" font-family="Axis" fill="#fff">3</text></svg>