<svg version="1.1" id="Слой_1" xmlns="http://www.w3.org/2000/svg" x="0" y="0" viewBox="0 0 97.3 77.1" xml:space="preserve"><style>.st0{fill:#2b8be2}</style><path class="st0" d="M44 76.3l51.3-34c2.7-1.8 2.7-5.7 0-7.5L44 .8c-3-2-7 .2-7 3.7v68.1c.1 3.5 4.1 5.7 7 3.7z"/><path class="st0" d="M37.1 5.2c18.4 0 33.4 14.9 33.4 33.4s-15 33.3-33.4 33.3V5.2z"/><path d="M37.1 5.4c18.3 0 33.2 14.8 33.2 33.2S55.4 71.7 37.1 71.7V5.4z" fill="#2b8ae1"/><path d="M37.1 5.6c18.2 0 33 14.8 33 33s-14.8 33-33 33v-66z" fill="#2b89e0"/><path d="M37.1 5.8c18.1 0 32.8 14.7 32.8 32.8S55.2 71.3 37.1 71.3V5.8z" fill="#2a88df"/><path d="M37.1 6c18 0 32.5 14.6 32.5 32.5S55.1 71.1 37.1 71.1V6z" fill="#2a88dd"/><path d="M37.1 6.2c17.9 0 32.3 14.5 32.3 32.3S54.9 70.9 37.1 70.9V6.2z" fill="#2a87dc"/><path d="M37.1 6.4c17.7 0 32.1 14.4 32.1 32.1S54.8 70.7 37.1 70.7V6.4z" fill="#2a86db"/><path d="M37.1 6.6C54.7 6.6 69 20.9 69 38.5S54.7 70.4 37.1 70.4V6.6z" fill="#2985da"/><path d="M37.1 6.8c17.5 0 31.7 14.2 31.7 31.7S54.6 70.2 37.1 70.2V6.8z" fill="#2984d9"/><path d="M37.1 7c17.4 0 31.5 14.1 31.5 31.5S54.5 70 37.1 70V7z" fill="#2983d8"/><path d="M37.1 7.2c17.3 0 31.3 14 31.3 31.3s-14 31.3-31.3 31.3V7.2z" fill="#2982d6"/><path d="M37.1 7.4c17.2 0 31.1 13.9 31.1 31.1S54.3 69.6 37.1 69.6V7.4z" fill="#2981d5"/><path d="M37.1 7.6c17 0 30.9 13.9 30.9 30.9S54.1 69.4 37.1 69.4V7.6z" fill="#2881d4"/><path d="M37.1 7.8c16.9 0 30.7 13.7 30.7 30.7S54 69.2 37.1 69.2V7.8z" fill="#2880d3"/><path d="M37.1 8.1c16.8 0 30.5 13.6 30.5 30.5S53.9 69 37.1 69V8.1z" fill="#287fd2"/><path d="M37.1 8.3c16.7 0 30.3 13.6 30.3 30.3S53.8 68.8 37.1 68.8V8.3z" fill="#287ed1"/><path d="M37.1 8.5c16.6 0 30.1 13.5 30.1 30.1s-13.5 30-30.1 30V8.5z" fill="#277dcf"/><path d="M37.1 8.7C53.6 8.7 67 22.1 67 38.6S53.6 68.4 37.1 68.4V8.7z" fill="#277cce"/><path d="M37.1 8.9c16.4 0 29.6 13.3 29.6 29.6S53.5 68.2 37.1 68.2V8.9z" fill="#277bcd"/><path d="M37.1 9.1c16.3 0 29.4 13.2 29.4 29.4S53.3 68 37.1 68V9.1z" fill="#277bcc"/><path d="M37.1 9.3c16.1 0 29.2 13.1 29.2 29.2S53.2 67.8 37.1 67.8V9.3z" fill="#277acb"/><path d="M37.1 9.5c16 0 29 13 29 29s-13 29-29 29v-58z" fill="#2679ca"/><path d="M37.1 9.7c15.9 0 28.8 12.9 28.8 28.8S53 67.3 37.1 67.3V9.7z" fill="#2678c8"/><path d="M37.1 9.9c15.8 0 28.6 12.8 28.6 28.6S52.9 67.1 37.1 67.1V9.9z" fill="#2677c7"/><path d="M37.1 10.1c15.7 0 28.4 12.7 28.4 28.4S52.8 66.9 37.1 66.9V10.1z" fill="#2676c6"/><path d="M37.1 10.3c15.6 0 28.2 12.6 28.2 28.2S52.7 66.7 37.1 66.7V10.3z" fill="#2575c5"/><path d="M37.1 10.5c15.5 0 28 12.5 28 28s-12.5 28-28 28v-56z" fill="#2575c4"/><path d="M37.1 10.7c15.3 0 27.8 12.4 27.8 27.8S52.4 66.3 37.1 66.3V10.7z" fill="#2574c3"/><path d="M37.1 11c15.2 0 27.6 12.3 27.6 27.6S52.3 66.1 37.1 66.1V11z" fill="#2573c2"/><path d="M37.1 11.2c15.1 0 27.4 12.3 27.4 27.4S52.2 65.9 37.1 65.9V11.2z" fill="#2572c0"/><path d="M37.1 11.4c15 0 27.2 12.2 27.2 27.2S52.1 65.7 37.1 65.7V11.4z" fill="#2471bf"/><path d="M37.1 11.6C52 11.6 64 23.6 64 38.5s-12 27-26.9 27V11.6z" fill="#2470be"/><path d="M37.1 11.8c14.8 0 26.7 12 26.7 26.7s-12 26.7-26.7 26.7V11.8z" fill="#246fbd"/><path d="M37.1 12c14.7 0 26.5 11.9 26.5 26.5S51.7 65.1 37.1 65.1V12z" fill="#246ebc"/><path d="M37.1 12.2c14.5 0 26.3 11.8 26.3 26.3S51.6 64.9 37.1 64.9V12.2z" fill="#236ebb"/><path d="M37.1 12.4c14.4 0 26.1 11.7 26.1 26.1S51.5 64.6 37.1 64.6V12.4z" fill="#236db9"/><path d="M37.1 12.6C51.4 12.6 63 24.2 63 38.5S51.4 64.4 37.1 64.4V12.6z" fill="#236cb8"/><path d="M37.1 12.8c14.2 0 25.7 11.5 25.7 25.7S51.3 64.2 37.1 64.2V12.8z" fill="#236bb7"/><path d="M37.1 13c14.1 0 25.5 11.4 25.5 25.5S51.2 64 37.1 64V13z" fill="#236ab6"/><path d="M37.1 13.2c14 0 25.3 11.3 25.3 25.3S51.1 63.8 37.1 63.8V13.2z" fill="#2269b5"/><path d="M37.1 13.4c13.9 0 25.1 11.2 25.1 25.1S50.9 63.6 37.1 63.6V13.4z" fill="#2268b4"/><path d="M37.1 13.6C50.8 13.6 62 24.8 62 38.5S50.8 63.4 37.1 63.4V13.6z" fill="#2268b2"/><path d="M37.1 13.9c13.6 0 24.7 11 24.7 24.7s-11 24.7-24.7 24.7V13.9z" fill="#2267b1"/><path d="M37.1 14.1c13.5 0 24.5 11 24.5 24.5S50.6 63 37.1 63V14.1z" fill="#2166b0"/><path d="M37.1 14.3c13.4 0 24.3 10.9 24.3 24.3S50.5 62.8 37.1 62.8V14.3z" fill="#2165af"/><path d="M37.1 14.5c13.3 0 24 10.8 24 24s-10.8 24-24 24v-48z" fill="#2164ae"/><path d="M37.1 14.7c13.2 0 23.8 10.7 23.8 23.8S50.3 62.4 37.1 62.4V14.7z" fill="#2163ad"/><path d="M37.1 14.9c13.1 0 23.6 10.6 23.6 23.6S50.1 62.2 37.1 62.2V14.9z" fill="#2162ab"/><path d="M37.1 15.1c12.9 0 23.4 10.5 23.4 23.4S50 62 37.1 62V15.1z" fill="#2062aa"/><path d="M37.1 15.3c12.8 0 23.2 10.4 23.2 23.2S49.9 61.7 37.1 61.7V15.3z" fill="#2061a9"/><path d="M37.1 15.5c12.7 0 23 10.3 23 23s-10.3 23-23 23v-46z" fill="#2060a8"/><path d="M37.1 15.7c12.6 0 22.8 10.2 22.8 22.8S49.7 61.3 37.1 61.3V15.7z" fill="#205fa7"/><path d="M37.1 15.9c12.5 0 22.6 10.1 22.6 22.6S49.6 61.1 37.1 61.1V15.9z" fill="#1f5ea6"/><path d="M37.1 16.1c12.4 0 22.4 10 22.4 22.4s-10 22.4-22.4 22.4V16.1z" fill="#1f5da4"/><path d="M37.1 16.3c12.3 0 22.2 9.9 22.2 22.2s-9.9 22.2-22.2 22.2V16.3z" fill="#1f5ca3"/><path d="M37.1 16.6c12.1 0 22 9.8 22 22s-9.8 22-22 22v-44z" fill="#1f5ba2"/><path d="M37.1 16.8c12 0 21.8 9.7 21.8 21.8s-9.7 21.8-21.8 21.8V16.8z" fill="#1f5ba1"/><path d="M37.1 17c11.9 0 21.6 9.7 21.6 21.6S49 60.1 37.1 60.1V17z" fill="#1e5aa0"/><path d="M37.1 17.2c11.8 0 21.4 9.6 21.4 21.4S48.9 60 37.1 60V17.2z" fill="#1e599f"/><path d="M37.1 17.4c11.7 0 21.1 9.5 21.1 21.1s-9.5 21.1-21.1 21.1V17.4z" fill="#1e589e"/><path d="M37.1 17.6C48.6 17.6 58 27 58 38.5s-9.4 20.9-20.9 20.9V17.6z" fill="#1e579c"/><path d="M37.1 17.8c11.4 0 20.7 9.3 20.7 20.7s-9.3 20.7-20.7 20.7V17.8z" fill="#1d569b"/><path d="M37.1 18c11.3 0 20.5 9.2 20.5 20.5S48.4 59 37.1 59V18z" fill="#1d559a"/><path d="M37.1 18.2c11.2 0 20.3 9.1 20.3 20.3s-9.1 20.3-20.3 20.3V18.2z" fill="#1d5599"/><path d="M37.1 18.4c11.1 0 20.1 9 20.1 20.1s-9 20.1-20.1 20.1V18.4z" fill="#1d5498"/><path d="M37.1 18.6c11 0 19.9 8.9 19.9 19.9s-8.9 19.9-19.9 19.9V18.6z" fill="#1d5397"/><path d="M37.1 18.8c10.9 0 19.7 8.8 19.7 19.7S48 58.2 37.1 58.2V18.8z" fill="#1c5295"/><path d="M37.1 19c10.8 0 19.5 8.7 19.5 19.5S47.8 58 37.1 58V19z" fill="#1c5194"/><path d="M37.1 19.2c10.6 0 19.3 8.6 19.3 19.3s-8.6 19.3-19.3 19.3V19.2z" fill="#1c5093"/><path d="M37.1 19.5c10.5 0 19.1 8.5 19.1 19.1s-8.5 19.1-19.1 19.1V19.5z" fill="#1c4f92"/><path d="M37.1 19.7c10.4 0 18.9 8.4 18.9 18.9s-8.4 18.9-18.9 18.9V19.7z" fill="#1b4f91"/><path d="M37.1 19.9c10.3 0 18.7 8.4 18.7 18.7s-8.4 18.7-18.7 18.7V19.9z" fill="#1b4e90"/><path d="M37.1 20.1c10.2 0 18.5 8.3 18.5 18.5S47.3 57 37.1 57V20.1z" fill="#1b4d8e"/><path d="M37.1 20.3c10.1 0 18.2 8.2 18.2 18.2s-8.2 18.2-18.2 18.2V20.3z" fill="#1b4c8d"/><path d="M37.1 20.5c10 0 18 8.1 18 18s-8.1 18-18 18v-36z" fill="#1b4b8c"/><path d="M37.1 20.7c9.8 0 17.8 8 17.8 17.8s-8 17.8-17.8 17.8V20.7z" fill="#1a4a8b"/><path d="M37.1 20.9c9.7 0 17.6 7.9 17.6 17.6s-7.9 17.6-17.6 17.6V20.9z" fill="#1a498a"/><path d="M37.1 21.1c9.6 0 17.4 7.8 17.4 17.4s-7.8 17.4-17.4 17.4V21.1z" fill="#1a4889"/><path d="M37.1 21.3c9.5 0 17.2 7.7 17.2 17.2s-7.7 17.2-17.2 17.2V21.3z" fill="#1a4887"/><path d="M37.1 21.5c9.4 0 17 7.6 17 17s-7.6 17-17 17v-34z" fill="#194786"/><path d="M37.1 21.7c9.3 0 16.8 7.5 16.8 16.8s-7.5 16.8-16.8 16.8V21.7z" fill="#194685"/><path d="M37.1 21.9c9.2 0 16.6 7.4 16.6 16.6s-7.4 16.6-16.6 16.6V21.9z" fill="#194584"/><circle transform="rotate(-41.236 37.085 38.523)" class="st0" cx="37.1" cy="38.5" r="16.6"/><path class="st0" d="M4.1 34.4c-2.3 0-4.1 1.8-4.1 4.1s1.8 4.1 4.1 4.1h19.7v-8.2H4.1z"/><text transform="translate(28.665 47.797)" font-size="25" font-family="Axis" fill="#fff">5</text></svg>