<svg id="Layer_1" height="512" viewBox="0 0 512 512" width="512" xmlns="http://www.w3.org/2000/svg" data-name="Layer 1"><path d="m256 502a246.02 246.02 0 0 0 173.949-419.976 244.741 244.741 0 0 0 -169.887-72.024 6 6 0 0 0 -.2 12 234.021 234.021 0 0 1 161.6 399.46 234.008 234.008 0 0 1 -335.114-326.653l46.11 46.112c-61.628 66.118-60.249 170.044 4.158 234.455a168.826 168.826 0 0 0 238.768 0c65.828-65.832 65.828-172.949 0-238.781a168.346 168.346 0 0 0 -112.184-49.301c-.086 0-.173 0-.259 0a6 6 0 0 0 -.249 11.994 156.378 156.378 0 0 1 104.208 45.8c61.151 61.153 61.151 160.657 0 221.812a156.825 156.825 0 0 1 -221.794 0c-59.732-59.741-61.106-156.054-4.158-217.487l44.014 44.016a94.641 94.641 0 1 0 71.038-32.121 6 6 0 0 0 0 12 82.694 82.694 0 1 1 -62.53 28.629l39.947 39.949a30.26 30.26 0 1 0 8.479-8.491l-151.359-151.369a6 6 0 0 0 -8.485 0 246.017 246.017 0 0 0 173.948 419.976zm-10.278-256.3a18.325 18.325 0 1 1 0 25.917 18.2 18.2 0 0 1 0-25.917z"/></svg>