<svg height="512" width="512" xmlns="http://www.w3.org/2000/svg" data-name="Layer 1"><path d="M256 502A246.02 246.02 0 00429.949 82.024 244.741 244.741 0 00260.062 10a6 6 0 00-.2 12 234.021 234.021 0 01161.6 399.46A234.008 234.008 0 0186.348 94.807l46.11 46.112c-61.628 66.118-60.249 170.044 4.158 234.455a168.826 168.826 0 00238.768 0c65.828-65.832 65.828-172.949 0-238.781A168.346 168.346 0 00263.2 87.292h-.259a6 6 0 00-.249 11.994 156.378 156.378 0 01104.208 45.8c61.151 61.153 61.151 160.657 0 221.812a156.825 156.825 0 01-221.794 0C85.374 307.157 84 210.844 140.948 149.411l44.014 44.016A94.641 94.641 0 10256 161.306a6 6 0 000 12 82.694 82.694 0 11-62.53 28.629l39.947 39.949a30.26 30.26 0 108.479-8.491L90.537 82.024a6 6 0 00-8.485 0A246.017 246.017 0 00256 502zm-10.278-256.3a18.325 18.325 0 110 25.917 18.2 18.2 0 010-25.917z"/></svg>