<?xml version="1.0" encoding="utf-8"?>
<!-- Generator: Adobe Illustrator 23.0.3, SVG Export Plug-In . SVG Version: 6.00 Build 0)  -->
<svg version="1.1" id="Слой_1" xmlns="http://www.w3.org/2000/svg" xmlns:xlink="http://www.w3.org/1999/xlink" x="0px" y="0px"
	 viewBox="0 0 97.3 77.1" style="enable-background:new 0 0 97.3 77.1;" xml:space="preserve">
<style type="text/css">
	.st0{fill:#0FB787;}
	.st1{fill:#0FB686;}
	.st2{fill:#0FB586;}
	.st3{fill:#0FB485;}
	.st4{fill:#0FB484;}
	.st5{fill:#0FB384;}
	.st6{fill:#0FB283;}
	.st7{fill:#0FB182;}
	.st8{fill:#0FB082;}
	.st9{fill:#0EAF81;}
	.st10{fill:#0EAE80;}
	.st11{fill:#0EAD7F;}
	.st12{fill:#0EAC7E;}
	.st13{fill:#0EAB7E;}
	.st14{fill:#0EAA7D;}
	.st15{fill:#0EA97D;}
	.st16{fill:#0EA97C;}
	.st17{fill:#0EA87B;}
	.st18{fill:#0EA77B;}
	.st19{fill:#0EA67A;}
	.st20{fill:#0EA579;}
	.st21{fill:#0EA479;}
	.st22{fill:#0EA378;}
	.st23{fill:#0EA377;}
	.st24{fill:#0DA277;}
	.st25{fill:#0DA176;}
	.st26{fill:#0DA075;}
	.st27{fill:#0D9F75;}
	.st28{fill:#0D9E74;}
	.st29{fill:#0D9D73;}
	.st30{fill:#0D9C72;}
	.st31{fill:#0D9B71;}
	.st32{fill:#0D9A71;}
	.st33{fill:#0D9970;}
	.st34{fill:#0D986F;}
	.st35{fill:#0D976F;}
	.st36{fill:#0D976E;}
	.st37{fill:#0D966D;}
	.st38{fill:#0D956D;}
	.st39{fill:#0C946C;}
	.st40{fill:#0C936C;}
	.st41{fill:#0C926B;}
	.st42{fill:#0C926A;}
	.st43{fill:#0C916A;}
	.st44{fill:#0C9069;}
	.st45{fill:#0C8F68;}
	.st46{fill:#0C8E68;}
	.st47{fill:#0C8D67;}
	.st48{fill:#0C8C66;}
	.st49{fill:#0C8B65;}
	.st50{fill:#0C8A64;}
	.st51{fill:#0C8964;}
	.st52{fill:#0C8863;}
	.st53{fill:#0C8762;}
	.st54{fill:#0B8662;}
	.st55{fill:#0B8661;}
	.st56{fill:#0B8560;}
	.st57{fill:#0B8460;}
	.st58{fill:#0B835F;}
	.st59{fill:#0B825E;}
	.st60{fill:#0B815E;}
	.st61{fill:#0B805D;}
	.st62{fill:#0B805C;}
	.st63{fill:#0B7F5C;}
	.st64{fill:#0B7E5B;}
	.st65{fill:#0B7D5B;}
	.st66{fill:#0B7C5A;}
	.st67{fill:#0B7B59;}
	.st68{fill:#0B7A58;}
	.st69{fill:#0A7957;}
	.st70{fill:#0A7857;}
	.st71{fill:#0A7756;}
	.st72{fill:#0A7655;}
	.st73{fill:#0A7555;}
	.st74{fill:#0A7554;}
	.st75{fill:#0A7453;}
	.st76{fill:#0A7353;}
	.st77{fill:#0A7252;}
	.st78{fill:#FFFFFF;}
	.st79{font-family:'Axis';}
	.st80{font-size:24px;}
</style>
<g>
	<path class="st0" d="M44,76.3l51.3-34c2.7-1.8,2.7-5.7,0-7.5L44,0.8c-3-2-7,0.2-7,3.7v68.1C37.1,76.1,41.1,78.3,44,76.3z"/>
	<g>
		<path class="st0" d="M37.1,5.2c18.4,0,33.4,14.9,33.4,33.4S55.5,71.9,37.1,71.9V5.2z"/>
		<path class="st1" d="M37.1,5.4c18.3,0,33.2,14.8,33.2,33.2S55.4,71.7,37.1,71.7V5.4z"/>
		<path class="st2" d="M37.1,5.6c18.2,0,33,14.8,33,33s-14.8,33-33,33V5.6z"/>
		<path class="st3" d="M37.1,5.8c18.1,0,32.8,14.7,32.8,32.8S55.2,71.3,37.1,71.3V5.8z"/>
		<path class="st4" d="M37.1,6c18,0,32.5,14.6,32.5,32.5S55.1,71.1,37.1,71.1V6z"/>
		<path class="st5" d="M37.1,6.2c17.9,0,32.3,14.5,32.3,32.3S54.9,70.9,37.1,70.9V6.2z"/>
		<path class="st6" d="M37.1,6.4c17.7,0,32.1,14.4,32.1,32.1S54.8,70.7,37.1,70.7V6.4z"/>
		<path class="st7" d="M37.1,6.6C54.7,6.6,69,20.9,69,38.5S54.7,70.4,37.1,70.4V6.6z"/>
		<path class="st8" d="M37.1,6.8c17.5,0,31.7,14.2,31.7,31.7S54.6,70.2,37.1,70.2V6.8z"/>
		<path class="st9" d="M37.1,7c17.4,0,31.5,14.1,31.5,31.5S54.5,70,37.1,70V7z"/>
		<path class="st10" d="M37.1,7.2c17.3,0,31.3,14,31.3,31.3s-14,31.3-31.3,31.3V7.2z"/>
		<path class="st10" d="M37.1,7.4c17.2,0,31.1,13.9,31.1,31.1S54.3,69.6,37.1,69.6V7.4z"/>
		<path class="st11" d="M37.1,7.6C54.1,7.6,68,21.5,68,38.5S54.1,69.4,37.1,69.4V7.6z"/>
		<path class="st12" d="M37.1,7.8c16.9,0,30.7,13.7,30.7,30.7S54,69.2,37.1,69.2V7.8z"/>
		<path class="st13" d="M37.1,8.1c16.8,0,30.5,13.6,30.5,30.5S53.9,69,37.1,69V8.1z"/>
		<path class="st14" d="M37.1,8.3c16.7,0,30.3,13.6,30.3,30.3S53.8,68.8,37.1,68.8V8.3z"/>
		<path class="st15" d="M37.1,8.5c16.6,0,30.1,13.5,30.1,30.1S53.7,68.6,37.1,68.6V8.5z"/>
		<path class="st16" d="M37.1,8.7c16.5,0,29.9,13.4,29.9,29.9S53.6,68.4,37.1,68.4V8.7z"/>
		<path class="st17" d="M37.1,8.9c16.4,0,29.6,13.3,29.6,29.6S53.5,68.2,37.1,68.2V8.9z"/>
		<path class="st18" d="M37.1,9.1c16.3,0,29.4,13.2,29.4,29.4S53.3,68,37.1,68V9.1z"/>
		<path class="st19" d="M37.1,9.3c16.1,0,29.2,13.1,29.2,29.2S53.2,67.8,37.1,67.8V9.3z"/>
		<path class="st20" d="M37.1,9.5c16,0,29,13,29,29s-13,29-29,29V9.5z"/>
		<path class="st21" d="M37.1,9.7c15.9,0,28.8,12.9,28.8,28.8S53,67.3,37.1,67.3V9.7z"/>
		<path class="st22" d="M37.1,9.9c15.8,0,28.6,12.8,28.6,28.6S52.9,67.1,37.1,67.1V9.9z"/>
		<path class="st23" d="M37.1,10.1c15.7,0,28.4,12.7,28.4,28.4S52.8,66.9,37.1,66.9V10.1z"/>
		<path class="st24" d="M37.1,10.3c15.6,0,28.2,12.6,28.2,28.2S52.7,66.7,37.1,66.7V10.3z"/>
		<path class="st25" d="M37.1,10.5c15.5,0,28,12.5,28,28s-12.5,28-28,28V10.5z"/>
		<path class="st26" d="M37.1,10.7c15.3,0,27.8,12.4,27.8,27.8S52.4,66.3,37.1,66.3V10.7z"/>
		<path class="st27" d="M37.1,11c15.2,0,27.6,12.3,27.6,27.6S52.3,66.1,37.1,66.1V11z"/>
		<path class="st28" d="M37.1,11.2c15.1,0,27.4,12.3,27.4,27.4S52.2,65.9,37.1,65.9V11.2z"/>
		<path class="st29" d="M37.1,11.4c15,0,27.2,12.2,27.2,27.2S52.1,65.7,37.1,65.7V11.4z"/>
		<path class="st29" d="M37.1,11.6C52,11.6,64,23.6,64,38.5S52,65.5,37.1,65.5V11.6z"/>
		<path class="st30" d="M37.1,11.8c14.8,0,26.7,12,26.7,26.7s-12,26.7-26.7,26.7V11.8z"/>
		<path class="st31" d="M37.1,12c14.7,0,26.5,11.9,26.5,26.5S51.7,65.1,37.1,65.1V12z"/>
		<path class="st32" d="M37.1,12.2c14.5,0,26.3,11.8,26.3,26.3S51.6,64.9,37.1,64.9V12.2z"/>
		<path class="st33" d="M37.1,12.4c14.4,0,26.1,11.7,26.1,26.1S51.5,64.6,37.1,64.6V12.4z"/>
		<path class="st34" d="M37.1,12.6C51.4,12.6,63,24.2,63,38.5S51.4,64.4,37.1,64.4V12.6z"/>
		<path class="st35" d="M37.1,12.8c14.2,0,25.7,11.5,25.7,25.7S51.3,64.2,37.1,64.2V12.8z"/>
		<path class="st36" d="M37.1,13c14.1,0,25.5,11.4,25.5,25.5S51.2,64,37.1,64V13z"/>
		<path class="st37" d="M37.1,13.2c14,0,25.3,11.3,25.3,25.3S51.1,63.8,37.1,63.8V13.2z"/>
		<path class="st38" d="M37.1,13.4c13.9,0,25.1,11.2,25.1,25.1S50.9,63.6,37.1,63.6V13.4z"/>
		<path class="st39" d="M37.1,13.6C50.8,13.6,62,24.8,62,38.5S50.8,63.4,37.1,63.4V13.6z"/>
		<path class="st40" d="M37.1,13.9c13.6,0,24.7,11,24.7,24.7s-11,24.7-24.7,24.7V13.9z"/>
		<path class="st41" d="M37.1,14.1c13.5,0,24.5,11,24.5,24.5S50.6,63,37.1,63V14.1z"/>
		<path class="st42" d="M37.1,14.3c13.4,0,24.3,10.9,24.3,24.3S50.5,62.8,37.1,62.8V14.3z"/>
		<path class="st43" d="M37.1,14.5c13.3,0,24,10.8,24,24s-10.8,24-24,24V14.5z"/>
		<path class="st44" d="M37.1,14.7c13.2,0,23.8,10.7,23.8,23.8S50.3,62.4,37.1,62.4V14.7z"/>
		<path class="st45" d="M37.1,14.9c13.1,0,23.6,10.6,23.6,23.6S50.1,62.2,37.1,62.2V14.9z"/>
		<path class="st46" d="M37.1,15.1c12.9,0,23.4,10.5,23.4,23.4S50,62,37.1,62V15.1z"/>
		<path class="st47" d="M37.1,15.3c12.8,0,23.2,10.4,23.2,23.2S49.9,61.7,37.1,61.7V15.3z"/>
		<path class="st48" d="M37.1,15.5c12.7,0,23,10.3,23,23s-10.3,23-23,23V15.5z"/>
		<path class="st48" d="M37.1,15.7c12.6,0,22.8,10.2,22.8,22.8S49.7,61.3,37.1,61.3V15.7z"/>
		<path class="st49" d="M37.1,15.9c12.5,0,22.6,10.1,22.6,22.6S49.6,61.1,37.1,61.1V15.9z"/>
		<path class="st50" d="M37.1,16.1c12.4,0,22.4,10,22.4,22.4s-10,22.4-22.4,22.4V16.1z"/>
		<path class="st51" d="M37.1,16.3c12.3,0,22.2,9.9,22.2,22.2s-9.9,22.2-22.2,22.2V16.3z"/>
		<path class="st52" d="M37.1,16.6c12.1,0,22,9.8,22,22s-9.8,22-22,22V16.6z"/>
		<path class="st53" d="M37.1,16.8c12,0,21.8,9.7,21.8,21.8s-9.7,21.8-21.8,21.8V16.8z"/>
		<path class="st54" d="M37.1,17c11.9,0,21.6,9.7,21.6,21.6S49,60.1,37.1,60.1V17z"/>
		<path class="st55" d="M37.1,17.2c11.8,0,21.4,9.6,21.4,21.4s-9.6,21.4-21.4,21.4V17.2z"/>
		<path class="st56" d="M37.1,17.4c11.7,0,21.1,9.5,21.1,21.1s-9.5,21.1-21.1,21.1V17.4z"/>
		<path class="st57" d="M37.1,17.6C48.6,17.6,58,27,58,38.5s-9.4,20.9-20.9,20.9V17.6z"/>
		<path class="st58" d="M37.1,17.8c11.4,0,20.7,9.3,20.7,20.7s-9.3,20.7-20.7,20.7V17.8z"/>
		<path class="st59" d="M37.1,18c11.3,0,20.5,9.2,20.5,20.5S48.4,59,37.1,59V18z"/>
		<path class="st60" d="M37.1,18.2c11.2,0,20.3,9.1,20.3,20.3s-9.1,20.3-20.3,20.3V18.2z"/>
		<path class="st61" d="M37.1,18.4c11.1,0,20.1,9,20.1,20.1s-9,20.1-20.1,20.1V18.4z"/>
		<path class="st62" d="M37.1,18.6c11,0,19.9,8.9,19.9,19.9s-8.9,19.9-19.9,19.9V18.6z"/>
		<path class="st63" d="M37.1,18.8c10.9,0,19.7,8.8,19.7,19.7S48,58.2,37.1,58.2V18.8z"/>
		<path class="st64" d="M37.1,19c10.8,0,19.5,8.7,19.5,19.5S47.8,58,37.1,58V19z"/>
		<path class="st65" d="M37.1,19.2c10.6,0,19.3,8.6,19.3,19.3s-8.6,19.3-19.3,19.3V19.2z"/>
		<path class="st66" d="M37.1,19.5c10.5,0,19.1,8.5,19.1,19.1s-8.5,19.1-19.1,19.1V19.5z"/>
		<path class="st67" d="M37.1,19.7c10.4,0,18.9,8.4,18.9,18.9s-8.4,18.9-18.9,18.9V19.7z"/>
		<path class="st67" d="M37.1,19.9c10.3,0,18.7,8.4,18.7,18.7s-8.4,18.7-18.7,18.7V19.9z"/>
		<path class="st68" d="M37.1,20.1c10.2,0,18.5,8.3,18.5,18.5S47.3,57,37.1,57V20.1z"/>
		<path class="st69" d="M37.1,20.3c10.1,0,18.2,8.2,18.2,18.2s-8.2,18.2-18.2,18.2V20.3z"/>
		<path class="st70" d="M37.1,20.5c10,0,18,8.1,18,18s-8.1,18-18,18V20.5z"/>
		<path class="st71" d="M37.1,20.7c9.8,0,17.8,8,17.8,17.8s-8,17.8-17.8,17.8V20.7z"/>
		<path class="st72" d="M37.1,20.9c9.7,0,17.6,7.9,17.6,17.6s-7.9,17.6-17.6,17.6V20.9z"/>
		<path class="st73" d="M37.1,21.1c9.6,0,17.4,7.8,17.4,17.4s-7.8,17.4-17.4,17.4V21.1z"/>
		<path class="st74" d="M37.1,21.3c9.5,0,17.2,7.7,17.2,17.2s-7.7,17.2-17.2,17.2V21.3z"/>
		<path class="st75" d="M37.1,21.5c9.4,0,17,7.6,17,17s-7.6,17-17,17V21.5z"/>
		<path class="st76" d="M37.1,21.7c9.3,0,16.8,7.5,16.8,16.8s-7.5,16.8-16.8,16.8V21.7z"/>
		<path class="st77" d="M37.1,21.9c9.2,0,16.6,7.4,16.6,16.6s-7.4,16.6-16.6,16.6V21.9z"/>
	</g>
	<ellipse transform="matrix(0.2298 -0.9732 0.9732 0.2298 -8.9295 65.7683)" class="st0" cx="37.1" cy="38.5" rx="16.6" ry="16.6"/>
	<path class="st0" d="M4.1,34.4c-2.3,0-4.1,1.8-4.1,4.1c0,2.3,1.8,4.1,4.1,4.1h19.7v-8.2H4.1z"/>
	<text transform="matrix(1.0592 0 0 1 27.8631 46.4551)" class="st78 st79 st80">2</text>
</g>
</svg>
