<?xml version="1.0" encoding="utf-8"?>
<!-- Generator: Adobe Illustrator 23.0.3, SVG Export Plug-In . SVG Version: 6.00 Build 0)  -->
<svg version="1.1" id="Слой_1" xmlns="http://www.w3.org/2000/svg" xmlns:xlink="http://www.w3.org/1999/xlink" x="0px" y="0px"
	 viewBox="0 0 97.3 77.1" style="enable-background:new 0 0 97.3 77.1;" xml:space="preserve">
<style type="text/css">
	.st0{fill:#12B2B2;}
	.st1{fill:#12B1B1;}
	.st2{fill:#12B0B0;}
	.st3{fill:#12AFAF;}
	.st4{fill:#12AFAE;}
	.st5{fill:#12AEAE;}
	.st6{fill:#11ADAD;}
	.st7{fill:#11ACAC;}
	.st8{fill:#11ABAB;}
	.st9{fill:#11AAAA;}
	.st10{fill:#11A9A9;}
	.st11{fill:#11A9A8;}
	.st12{fill:#11A8A7;}
	.st13{fill:#11A7A6;}
	.st14{fill:#11A6A6;}
	.st15{fill:#11A5A5;}
	.st16{fill:#11A4A4;}
	.st17{fill:#11A4A3;}
	.st18{fill:#10A3A2;}
	.st19{fill:#10A2A1;}
	.st20{fill:#10A1A0;}
	.st21{fill:#10A09F;}
	.st22{fill:#109F9E;}
	.st23{fill:#109E9E;}
	.st24{fill:#109E9D;}
	.st25{fill:#109D9C;}
	.st26{fill:#109C9B;}
	.st27{fill:#109B9A;}
	.st28{fill:#109A99;}
	.st29{fill:#0F9998;}
	.st30{fill:#0F9897;}
	.st31{fill:#0F9896;}
	.st32{fill:#0F9796;}
	.st33{fill:#0F9695;}
	.st34{fill:#0F9594;}
	.st35{fill:#0F9493;}
	.st36{fill:#0F9392;}
	.st37{fill:#0F9291;}
	.st38{fill:#0F9290;}
	.st39{fill:#0F918F;}
	.st40{fill:#0F908E;}
	.st41{fill:#0E8F8E;}
	.st42{fill:#0E8E8D;}
	.st43{fill:#0E8D8C;}
	.st44{fill:#0E8D8B;}
	.st45{fill:#0E8C8A;}
	.st46{fill:#0E8B89;}
	.st47{fill:#0E8A88;}
	.st48{fill:#0E8987;}
	.st49{fill:#0E8886;}
	.st50{fill:#0E8786;}
	.st51{fill:#0E8785;}
	.st52{fill:#0E8684;}
	.st53{fill:#0D8583;}
	.st54{fill:#0D8482;}
	.st55{fill:#0D8381;}
	.st56{fill:#0D8280;}
	.st57{fill:#0D817F;}
	.st58{fill:#0D817E;}
	.st59{fill:#0D807E;}
	.st60{fill:#0D7F7D;}
	.st61{fill:#0D7E7C;}
	.st62{fill:#0D7D7B;}
	.st63{fill:#0D7C7A;}
	.st64{fill:#0C7B79;}
	.st65{fill:#0C7B78;}
	.st66{fill:#0C7A77;}
	.st67{fill:#0C7976;}
	.st68{fill:#0C7876;}
	.st69{fill:#0C7775;}
	.st70{fill:#0C7674;}
	.st71{fill:#0C7673;}
	.st72{fill:#0C7572;}
	.st73{fill:#0C7471;}
	.st74{fill:#0C7370;}
	.st75{fill:#0C726F;}
	.st76{fill:#0B716E;}
	.st77{fill:#0B706E;}
	.st78{fill:#0B706D;}
	.st79{fill:#0B6F6C;}
	.st80{fill:#0B6E6B;}
	.st81{fill:#0B6D6A;}
	.st82{fill:#FFFFFF;}
	.st83{font-family:'Axis';}
	.st84{font-size:24.55px;}
</style>
<g>
	<path class="st0" d="M44,76.3l51.3-34c2.7-1.8,2.7-5.7,0-7.5L44,0.8c-3-2-7,0.2-7,3.7v68.1C37.1,76.1,41.1,78.3,44,76.3z"/>
	<g>
		<path class="st0" d="M37.1,5.2c18.4,0,33.4,14.9,33.4,33.4S55.5,71.9,37.1,71.9V5.2z"/>
		<path class="st1" d="M37.1,5.4c18.3,0,33.1,14.8,33.1,33.1S55.4,71.6,37.1,71.6V5.4z"/>
		<path class="st2" d="M37.1,5.7C55.2,5.7,70,20.4,70,38.5S55.2,71.4,37.1,71.4V5.7z"/>
		<path class="st3" d="M37.1,5.9c18,0,32.6,14.6,32.6,32.6S55.1,71.1,37.1,71.1V5.9z"/>
		<path class="st4" d="M37.1,6.2c17.9,0,32.4,14.5,32.4,32.4S55,70.9,37.1,70.9V6.2z"/>
		<path class="st5" d="M37.1,6.4c17.7,0,32.1,14.4,32.1,32.1S54.8,70.6,37.1,70.6V6.4z"/>
		<path class="st6" d="M37.1,6.7c17.6,0,31.9,14.3,31.9,31.9S54.7,70.4,37.1,70.4V6.7z"/>
		<path class="st7" d="M37.1,6.9c17.5,0,31.6,14.2,31.6,31.6S54.5,70.1,37.1,70.1V6.9z"/>
		<path class="st8" d="M37.1,7.2c17.3,0,31.4,14,31.4,31.4s-14,31.4-31.4,31.4V7.2z"/>
		<path class="st9" d="M37.1,7.4c17.2,0,31.1,13.9,31.1,31.1S54.3,69.6,37.1,69.6V7.4z"/>
		<path class="st10" d="M37.1,7.7c17,0,30.8,13.8,30.8,30.8S54.1,69.4,37.1,69.4V7.7z"/>
		<path class="st11" d="M37.1,7.9c16.9,0,30.6,13.7,30.6,30.6S54,69.1,37.1,69.1V7.9z"/>
		<path class="st12" d="M37.1,8.2c16.8,0,30.3,13.6,30.3,30.3S53.8,68.9,37.1,68.9V8.2z"/>
		<path class="st13" d="M37.1,8.4c16.6,0,30.1,13.5,30.1,30.1S53.7,68.6,37.1,68.6V8.4z"/>
		<path class="st14" d="M37.1,8.7c16.5,0,29.8,13.4,29.8,29.8S53.6,68.4,37.1,68.4V8.7z"/>
		<path class="st15" d="M37.1,8.9c16.3,0,29.6,13.2,29.6,29.6S53.4,68.1,37.1,68.1V8.9z"/>
		<path class="st16" d="M37.1,9.2c16.2,0,29.3,13.1,29.3,29.3S53.3,67.9,37.1,67.9V9.2z"/>
		<path class="st17" d="M37.1,9.4c16.1,0,29.1,13,29.1,29.1s-13,29.1-29.1,29.1V9.4z"/>
		<path class="st18" d="M37.1,9.7c15.9,0,28.8,12.9,28.8,28.8S53,67.4,37.1,67.4V9.7z"/>
		<path class="st19" d="M37.1,10c15.8,0,28.6,12.8,28.6,28.6S52.9,67.1,37.1,67.1V10z"/>
		<path class="st20" d="M37.1,10.2c15.6,0,28.3,12.7,28.3,28.3S52.7,66.8,37.1,66.8V10.2z"/>
		<path class="st21" d="M37.1,10.5c15.5,0,28.1,12.6,28.1,28.1S52.6,66.6,37.1,66.6V10.5z"/>
		<path class="st22" d="M37.1,10.7c15.4,0,27.8,12.5,27.8,27.8S52.4,66.3,37.1,66.3V10.7z"/>
		<path class="st23" d="M37.1,11c15.2,0,27.6,12.3,27.6,27.6S52.3,66.1,37.1,66.1V11z"/>
		<path class="st24" d="M37.1,11.2c15.1,0,27.3,12.2,27.3,27.3S52.2,65.8,37.1,65.8V11.2z"/>
		<path class="st25" d="M37.1,11.5c14.9,0,27.1,12.1,27.1,27.1S52,65.6,37.1,65.6V11.5z"/>
		<path class="st26" d="M37.1,11.7c14.8,0,26.8,12,26.8,26.8s-12,26.8-26.8,26.8V11.7z"/>
		<path class="st27" d="M37.1,12c14.7,0,26.5,11.9,26.5,26.5S51.7,65.1,37.1,65.1V12z"/>
		<path class="st28" d="M37.1,12.2c14.5,0,26.3,11.8,26.3,26.3S51.6,64.8,37.1,64.8V12.2z"/>
		<path class="st29" d="M37.1,12.5c14.4,0,26,11.7,26,26s-11.7,26-26,26V12.5z"/>
		<path class="st30" d="M37.1,12.7c14.2,0,25.8,11.5,25.8,25.8S51.3,64.3,37.1,64.3V12.7z"/>
		<path class="st31" d="M37.1,13c14.1,0,25.5,11.4,25.5,25.5S51.2,64.1,37.1,64.1V13z"/>
		<path class="st32" d="M37.1,13.2c14,0,25.3,11.3,25.3,25.3S51.1,63.8,37.1,63.8V13.2z"/>
		<path class="st33" d="M37.1,13.5c13.8,0,25,11.2,25,25s-11.2,25-25,25V13.5z"/>
		<path class="st34" d="M37.1,13.7c13.7,0,24.8,11.1,24.8,24.8S50.8,63.3,37.1,63.3V13.7z"/>
		<path class="st35" d="M37.1,14c13.5,0,24.5,11,24.5,24.5s-11,24.5-24.5,24.5V14z"/>
		<path class="st36" d="M37.1,14.3c13.4,0,24.3,10.9,24.3,24.3S50.5,62.8,37.1,62.8V14.3z"/>
		<path class="st37" d="M37.1,14.5c13.3,0,24,10.8,24,24s-10.8,24-24,24V14.5z"/>
		<path class="st38" d="M37.1,14.8c13.1,0,23.8,10.6,23.8,23.8S50.2,62.3,37.1,62.3V14.8z"/>
		<path class="st39" d="M37.1,15c13,0,23.5,10.5,23.5,23.5S50.1,62,37.1,62V15z"/>
		<path class="st40" d="M37.1,15.3c12.8,0,23.3,10.4,23.3,23.3S49.9,61.8,37.1,61.8V15.3z"/>
		<path class="st41" d="M37.1,15.5c12.7,0,23,10.3,23,23s-10.3,23-23,23V15.5z"/>
		<path class="st42" d="M37.1,15.8c12.6,0,22.8,10.2,22.8,22.8S49.7,61.3,37.1,61.3V15.8z"/>
		<path class="st43" d="M37.1,16c12.4,0,22.5,10.1,22.5,22.5S49.5,61,37.1,61V16z"/>
		<path class="st44" d="M37.1,16.3c12.3,0,22.3,10,22.3,22.3s-10,22.3-22.3,22.3V16.3z"/>
		<path class="st45" d="M37.1,16.5c12.1,0,22,9.8,22,22s-9.8,22-22,22V16.5z"/>
		<path class="st46" d="M37.1,16.8c12,0,21.7,9.7,21.7,21.7s-9.7,21.7-21.7,21.7V16.8z"/>
		<path class="st47" d="M37.1,17c11.9,0,21.5,9.6,21.5,21.5S49,60,37.1,60V17z"/>
		<path class="st48" d="M37.1,17.3c11.7,0,21.2,9.5,21.2,21.2s-9.5,21.2-21.2,21.2V17.3z"/>
		<path class="st49" d="M37.1,17.5c11.6,0,21,9.4,21,21s-9.4,21-21,21V17.5z"/>
		<path class="st50" d="M37.1,17.8c11.5,0,20.7,9.3,20.7,20.7s-9.3,20.7-20.7,20.7V17.8z"/>
		<path class="st51" d="M37.1,18c11.3,0,20.5,9.2,20.5,20.5S48.4,59,37.1,59V18z"/>
		<path class="st52" d="M37.1,18.3c11.2,0,20.2,9.1,20.2,20.2s-9.1,20.2-20.2,20.2V18.3z"/>
		<path class="st53" d="M37.1,18.5c11,0,20,8.9,20,20s-8.9,20-20,20V18.5z"/>
		<path class="st54" d="M37.1,18.8c10.9,0,19.7,8.8,19.7,19.7S48,58.2,37.1,58.2V18.8z"/>
		<path class="st55" d="M37.1,19.1c10.8,0,19.5,8.7,19.5,19.5S47.8,58,37.1,58V19.1z"/>
		<path class="st56" d="M37.1,19.3c10.6,0,19.2,8.6,19.2,19.2s-8.6,19.2-19.2,19.2V19.3z"/>
		<path class="st57" d="M37.1,19.6c10.5,0,19,8.5,19,19s-8.5,19-19,19V19.6z"/>
		<path class="st58" d="M37.1,19.8c10.3,0,18.7,8.4,18.7,18.7s-8.4,18.7-18.7,18.7V19.8z"/>
		<path class="st59" d="M37.1,20.1c10.2,0,18.5,8.3,18.5,18.5S47.3,57,37.1,57V20.1z"/>
		<path class="st60" d="M37.1,20.3c10.1,0,18.2,8.2,18.2,18.2s-8.2,18.2-18.2,18.2V20.3z"/>
		<path class="st61" d="M37.1,20.6c9.9,0,18,8,18,18s-8,18-18,18V20.6z"/>
		<path class="st62" d="M37.1,20.8c9.8,0,17.7,7.9,17.7,17.7s-7.9,17.7-17.7,17.7V20.8z"/>
		<path class="st63" d="M37.1,21.1c9.6,0,17.4,7.8,17.4,17.4S46.7,56,37.1,56V21.1z"/>
		<path class="st64" d="M37.1,21.3c9.5,0,17.2,7.7,17.2,17.2s-7.7,17.2-17.2,17.2V21.3z"/>
		<path class="st65" d="M37.1,21.6c9.4,0,16.9,7.6,16.9,16.9s-7.6,16.9-16.9,16.9V21.6z"/>
		<path class="st66" d="M37.1,21.8c9.2,0,16.7,7.5,16.7,16.7s-7.5,16.7-16.7,16.7V21.8z"/>
		<path class="st67" d="M37.1,22.1c9.1,0,16.4,7.4,16.4,16.4S46.2,55,37.1,55V22.1z"/>
		<path class="st68" d="M37.1,22.3c8.9,0,16.2,7.2,16.2,16.2S46,54.7,37.1,54.7V22.3z"/>
		<path class="st69" d="M37.1,22.6c8.8,0,15.9,7.1,15.9,15.9s-7.1,15.9-15.9,15.9V22.6z"/>
		<path class="st70" d="M37.1,22.8c8.7,0,15.7,7,15.7,15.7s-7,15.7-15.7,15.7V22.8z"/>
		<path class="st71" d="M37.1,23.1c8.5,0,15.4,6.9,15.4,15.4S45.6,54,37.1,54V23.1z"/>
		<path class="st72" d="M37.1,23.4c8.4,0,15.2,6.8,15.2,15.2s-6.8,15.2-15.2,15.2V23.4z"/>
		<path class="st73" d="M37.1,23.6c8.2,0,14.9,6.7,14.9,14.9s-6.7,14.9-14.9,14.9V23.6z"/>
		<path class="st74" d="M37.1,23.9c8.1,0,14.7,6.6,14.7,14.7s-6.6,14.7-14.7,14.7V23.9z"/>
		<path class="st75" d="M37.1,24.1c8,0,14.4,6.5,14.4,14.4S45,52.9,37.1,52.9V24.1z"/>
		<path class="st76" d="M37.1,24.4c7.8,0,14.2,6.3,14.2,14.2s-6.3,14.2-14.2,14.2V24.4z"/>
		<path class="st77" d="M37.1,24.6c7.7,0,13.9,6.2,13.9,13.9s-6.2,13.9-13.9,13.9V24.6z"/>
		<path class="st78" d="M37.1,24.9c7.5,0,13.7,6.1,13.7,13.7s-6.1,13.7-13.7,13.7V24.9z"/>
		<path class="st79" d="M37.1,25.1c7.4,0,13.4,6,13.4,13.4c0,7.4-6,13.4-13.4,13.4V25.1z"/>
		<path class="st80" d="M37.1,25.4c7.3,0,13.2,5.9,13.2,13.2s-5.9,13.2-13.2,13.2V25.4z"/>
		<path class="st81" d="M37.1,25.6c7.1,0,12.9,5.8,12.9,12.9s-5.8,12.9-12.9,12.9V25.6z"/>
	</g>
	
		<ellipse transform="matrix(0.7384 -0.6744 0.6744 0.7384 -16.2787 35.0901)" class="st0" cx="37.1" cy="38.5" rx="16.6" ry="16.6"/>
	<path class="st0" d="M4.1,34.4c-2.3,0-4.1,1.8-4.1,4.1c0,2.3,1.8,4.1,4.1,4.1h19.7v-8.2H4.1z"/>
	<text transform="matrix(1 0 0 1 29.3429 47.7976)" class="st82 st83 st84">3</text>
</g>
</svg>
