<svg id="objects" xmlns="http://www.w3.org/2000/svg" xmlns:xlink="http://www.w3.org/1999/xlink" viewBox="0 0 447.85 604.11"><defs><style>.cls-1{fill:#6a686a;}.cls-2{fill:none;}.cls-3{fill:#4fb9ca;}.cls-4{fill:url(#linear-gradient);}.cls-5{fill:url(#linear-gradient-2);}.cls-6{fill:url(#linear-gradient-3);}.cls-7{fill:url(#linear-gradient-4);}.cls-8{fill:url(#linear-gradient-5);}.cls-9{fill:url(#linear-gradient-6);}.cls-10{fill:url(#linear-gradient-7);}.cls-11{fill:url(#linear-gradient-8);}.cls-12{fill:url(#linear-gradient-9);}.cls-13{fill:url(#linear-gradient-10);}.cls-14{fill:#76c1ca;}.cls-15{fill:url(#linear-gradient-11);}.cls-16{fill:#69baca;}.cls-17{fill:url(#linear-gradient-12);}.cls-18{fill:url(#linear-gradient-13);}.cls-19{fill:url(#linear-gradient-14);}.cls-20{fill:url(#linear-gradient-15);}.cls-21{fill:url(#linear-gradient-16);}.cls-22{fill:url(#linear-gradient-17);}.cls-23{fill:url(#linear-gradient-18);}.cls-24{fill:url(#linear-gradient-19);}.cls-25{fill:url(#linear-gradient-20);}.cls-26{fill:url(#linear-gradient-21);}.cls-27{fill:url(#linear-gradient-22);}.cls-28{fill:url(#linear-gradient-23);}.cls-29{fill:url(#linear-gradient-24);}.cls-30{fill:url(#linear-gradient-25);}.cls-31{fill:url(#linear-gradient-26);}.cls-32{fill:url(#linear-gradient-27);}.cls-33{fill:url(#linear-gradient-28);}.cls-34{fill:url(#linear-gradient-29);}.cls-35{fill:url(#linear-gradient-30);}.cls-36{fill:url(#linear-gradient-31);}.cls-37{fill:url(#linear-gradient-32);}.cls-38{fill:#4a48ca;}.cls-39{fill:url(#linear-gradient-33);}.cls-40{fill:#4a3fca;}.cls-41{fill:url(#linear-gradient-34);}.cls-42{fill:url(#linear-gradient-35);}.cls-43{fill:url(#linear-gradient-36);}.cls-44{fill:url(#linear-gradient-37);}.cls-45{fill:url(#linear-gradient-38);}.cls-46{fill:url(#linear-gradient-39);}.cls-47{fill:url(#linear-gradient-40);}.cls-48{fill:url(#linear-gradient-41);}.cls-49{fill:url(#linear-gradient-42);}.cls-50{fill:url(#linear-gradient-43);}.cls-51{fill:url(#linear-gradient-44);}.cls-52{fill:url(#linear-gradient-45);}.cls-53{fill:url(#linear-gradient-46);}.cls-54{fill:url(#linear-gradient-47);}.cls-55{fill:url(#linear-gradient-48);}.cls-56{fill:#2b2f3e;}</style><linearGradient id="linear-gradient" x1="146.8" y1="381.75" x2="165.55" y2="381.75" gradientUnits="userSpaceOnUse"><stop offset="0.27" stop-color="#f15a29"/><stop offset="0.68" stop-color="#ef4136"/><stop offset="0.76" stop-color="#e83c35"/><stop offset="0.88" stop-color="#d62f31"/><stop offset="1" stop-color="#be1e2d"/></linearGradient><linearGradient id="linear-gradient-2" x1="117.43" y1="338.35" x2="165.55" y2="338.35" gradientUnits="userSpaceOnUse"><stop offset="0" stop-color="#f7941e"/><stop offset="0.42" stop-color="#f7941e"/><stop offset="0.56" stop-color="#f68e1f"/><stop offset="0.74" stop-color="#f57d22"/><stop offset="0.95" stop-color="#f26128"/><stop offset="1" stop-color="#f15a29"/></linearGradient><linearGradient id="linear-gradient-3" x1="163.75" y1="381.75" x2="206.27" y2="381.75" gradientUnits="userSpaceOnUse"><stop offset="0" stop-color="#ee2a7b"/><stop offset="0.54" stop-color="#ee2a7b"/><stop offset="0.74" stop-color="#ce2671"/><stop offset="1" stop-color="#9e1f63"/></linearGradient><linearGradient id="linear-gradient-4" x1="117.43" y1="317" x2="165.55" y2="317" gradientUnits="userSpaceOnUse"><stop offset="0.44" stop-color="#00a79d"/><stop offset="0.53" stop-color="#009798"/><stop offset="0.72" stop-color="#00788f"/><stop offset="0.89" stop-color="#006589"/><stop offset="1" stop-color="#005e87"/></linearGradient><linearGradient id="linear-gradient-5" x1="87.65" y1="275.39" x2="164.7" y2="275.39" xlink:href="#linear-gradient"/><linearGradient id="linear-gradient-6" x1="164.7" y1="317" x2="195.76" y2="317" xlink:href="#linear-gradient"/><linearGradient id="linear-gradient-7" x1="87.65" y1="264" x2="164.7" y2="264" xlink:href="#linear-gradient-2"/><linearGradient id="linear-gradient-8" x1="83.33" y1="223.57" x2="137.26" y2="223.57" xlink:href="#linear-gradient-3"/><linearGradient id="linear-gradient-9" x1="137.26" y1="264" x2="234.26" y2="264" xlink:href="#linear-gradient-4"/><linearGradient id="linear-gradient-10" x1="83.33" y1="195.99" x2="137.26" y2="195.99" xlink:href="#linear-gradient-4"/><linearGradient id="linear-gradient-11" x1="102.92" y1="195.99" x2="152.72" y2="195.99" xlink:href="#linear-gradient"/><linearGradient id="linear-gradient-12" x1="102.92" y1="133.69" x2="194.06" y2="133.69" xlink:href="#linear-gradient-3"/><linearGradient id="linear-gradient-13" x1="137.83" y1="114.44" x2="194.06" y2="114.44" xlink:href="#linear-gradient-4"/><linearGradient id="linear-gradient-14" x1="102.92" y1="163.88" x2="194.06" y2="163.88" xlink:href="#linear-gradient-4"/><linearGradient id="linear-gradient-15" x1="137.26" y1="222.25" x2="234.26" y2="222.25" xlink:href="#linear-gradient-2"/><linearGradient id="linear-gradient-16" x1="164.7" y1="287.14" x2="234.26" y2="287.14" xlink:href="#linear-gradient-2"/><linearGradient id="linear-gradient-17" x1="165.55" y1="355.12" x2="206.27" y2="355.12" xlink:href="#linear-gradient-4"/><linearGradient id="linear-gradient-18" x1="195.76" y1="371.11" x2="283.44" y2="371.11" xlink:href="#linear-gradient"/><linearGradient id="linear-gradient-19" x1="195.76" y1="369.33" x2="283.44" y2="369.33" xlink:href="#linear-gradient-3"/><linearGradient id="linear-gradient-20" x1="195.76" y1="287.14" x2="239.96" y2="287.14" xlink:href="#linear-gradient-4"/><linearGradient id="linear-gradient-21" x1="239.96" y1="369.33" x2="294.99" y2="369.33" xlink:href="#linear-gradient"/><linearGradient id="linear-gradient-22" x1="234.26" y1="271.95" x2="283.43" y2="271.95" xlink:href="#linear-gradient-2"/><linearGradient id="linear-gradient-23" x1="152.72" y1="222.25" x2="283.43" y2="222.25" xlink:href="#linear-gradient"/><linearGradient id="linear-gradient-24" x1="239.96" y1="271.95" x2="292.64" y2="271.95" xlink:href="#linear-gradient-3"/><linearGradient id="linear-gradient-25" x1="152.72" y1="181.99" x2="283.43" y2="181.99" xlink:href="#linear-gradient-4"/><linearGradient id="linear-gradient-26" x1="152.72" y1="163.88" x2="235.04" y2="163.88" xlink:href="#linear-gradient-3"/><linearGradient id="linear-gradient-27" x1="235.04" y1="181.99" x2="318.51" y2="181.99" xlink:href="#linear-gradient-3"/><linearGradient id="linear-gradient-28" x1="194.06" y1="117.02" x2="235.04" y2="117.02" xlink:href="#linear-gradient"/><linearGradient id="linear-gradient-29" x1="176.14" y1="111.13" x2="214.88" y2="111.13" xlink:href="#linear-gradient-2"/><linearGradient id="linear-gradient-30" x1="214.88" y1="125.55" x2="351.07" y2="125.55" xlink:href="#linear-gradient-2"/><linearGradient id="linear-gradient-31" x1="214.88" y1="125.55" x2="351.07" y2="125.55" xlink:href="#linear-gradient-4"/><linearGradient id="linear-gradient-32" x1="235.04" y1="175.5" x2="351.07" y2="175.5" xlink:href="#linear-gradient"/><linearGradient id="linear-gradient-33" x1="239.96" y1="323.29" x2="294.99" y2="323.29" xlink:href="#linear-gradient-2"/><linearGradient id="linear-gradient-34" x1="292.64" y1="323.29" x2="311.14" y2="323.29" xlink:href="#linear-gradient-4"/><linearGradient id="linear-gradient-35" x1="292.64" y1="305" x2="343.4" y2="305" xlink:href="#linear-gradient-3"/><linearGradient id="linear-gradient-36" x1="292.64" y1="244.94" x2="343.4" y2="244.94" xlink:href="#linear-gradient-4"/><linearGradient id="linear-gradient-37" x1="318.51" y1="244.94" x2="361.57" y2="244.94" xlink:href="#linear-gradient"/><linearGradient id="linear-gradient-38" x1="318.51" y1="201.78" x2="361.57" y2="201.78" xlink:href="#linear-gradient-3"/><linearGradient id="linear-gradient-39" x1="273.47" y1="129.12" x2="351.07" y2="129.12" xlink:href="#linear-gradient-3"/><linearGradient id="linear-gradient-40" x1="206.28" y1="399.4" x2="283.45" y2="399.4" xlink:href="#linear-gradient-2"/><linearGradient id="linear-gradient-41" x1="196.88" y1="399.24" x2="224.37" y2="399.24" xlink:href="#linear-gradient-3"/><linearGradient id="linear-gradient-42" x1="163.75" y1="399.16" x2="206.28" y2="399.16" xlink:href="#linear-gradient-4"/><linearGradient id="linear-gradient-43" x1="351.07" y1="200.78" x2="364.52" y2="200.78" xlink:href="#linear-gradient-4"/><linearGradient id="linear-gradient-44" x1="398.47" y1="140.04" x2="417.29" y2="140.04" xlink:href="#linear-gradient-3"/><linearGradient id="linear-gradient-45" x1="503.4" y1="177.4" x2="546.48" y2="177.4" xlink:href="#linear-gradient"/><linearGradient id="linear-gradient-46" x1="569.54" y1="275.65" x2="627.92" y2="275.65" gradientUnits="userSpaceOnUse"><stop offset="0" stop-color="#005e87"/><stop offset="0.11" stop-color="#006589"/><stop offset="0.28" stop-color="#00788f"/><stop offset="0.47" stop-color="#009798"/><stop offset="0.56" stop-color="#00a79d"/></linearGradient><linearGradient id="linear-gradient-47" x1="261.51" y1="177.4" x2="304.6" y2="177.4" xlink:href="#linear-gradient-2"/><linearGradient id="linear-gradient-48" x1="180.08" y1="275.65" x2="238.46" y2="275.65" xlink:href="#linear-gradient-4"/></defs><title>idea</title><path class="cls-1" d="M378.46,493a1.27,1.27,0,1,1-1.26-1.1A1.18,1.18,0,0,1,378.46,493Z" transform="translate(-180.08 -109.69)"/><path class="cls-2" d="M343.82,524.85" transform="translate(-180.08 -109.69)"/><line class="cls-3" x1="146.8" y1="370.6" x2="163.75" y2="415.16"/><polygon class="cls-4" points="163.75 415.16 165.55 348.34 146.79 370.61 163.75 415.16"/><polygon class="cls-5" points="165.55 348.34 146.79 370.61 117.43 306.1 165.55 348.34"/><polygon class="cls-6" points="163.75 415.16 165.55 348.34 206.27 383.85 163.75 415.16"/><polygon class="cls-7" points="165.55 348.34 164.7 285.67 117.43 306.1 165.55 348.34"/><polygon class="cls-8" points="164.7 285.67 117.43 306.1 87.65 244.69 164.7 285.67"/><polygon class="cls-9" points="165.55 348.34 164.7 285.67 195.76 326.39 165.55 348.34"/><polygon class="cls-10" points="164.7 285.67 137.26 242.34 87.65 244.69 164.7 285.67"/><polygon class="cls-11" points="137.26 242.34 87.65 244.69 83.33 202.45 137.26 242.34"/><polygon class="cls-12" points="164.7 285.67 137.26 242.34 234.26 247.88 164.7 285.67"/><polygon class="cls-13" points="137.26 242.34 102.92 149.65 83.33 202.45 137.26 242.34"/><line class="cls-14" x1="102.92" y1="149.65" x2="83.33" y2="202.45"/><polygon class="cls-15" points="137.26 242.34 102.92 149.65 152.72 196.63 137.26 242.34"/><line class="cls-16" x1="102.92" y1="149.65" x2="137.83" y2="117.74"/><path class="cls-2" d="M317.9,227.42" transform="translate(-180.08 -109.69)"/><polygon class="cls-17" points="102.92 149.65 137.83 117.73 194.06 131.13 102.92 149.65"/><polygon class="cls-18" points="176.14 97.74 194.06 131.13 137.83 117.73 176.14 97.74"/><polygon class="cls-19" points="194.06 131.13 152.72 196.63 102.92 149.65 194.06 131.13"/><polygon class="cls-20" points="152.72 196.63 234.26 247.88 137.26 242.34 152.72 196.63"/><polygon class="cls-21" points="234.26 247.88 195.76 326.39 164.7 285.67 234.26 247.88"/><polygon class="cls-22" points="195.76 326.39 206.27 383.85 165.55 348.34 195.76 326.39"/><polygon class="cls-23" points="283.44 415.83 206.27 383.85 195.76 326.39 283.44 415.83"/><polygon class="cls-24" points="283.44 415.83 239.96 322.84 195.76 326.39 283.44 415.83"/><polygon class="cls-25" points="239.96 322.84 195.76 326.39 234.26 247.88 239.96 322.84"/><polygon class="cls-26" points="283.44 415.83 239.96 322.84 294.99 378.44 283.44 415.83"/><polygon class="cls-27" points="239.96 322.84 283.43 221.07 234.26 247.88 239.96 322.84"/><polygon class="cls-28" points="283.43 221.07 234.26 247.88 152.72 196.63 283.43 221.07"/><polygon class="cls-29" points="239.96 322.84 283.43 221.07 292.64 268.15 239.96 322.84"/><polygon class="cls-30" points="283.43 221.07 235.04 142.91 152.72 196.63 283.43 221.07"/><polygon class="cls-31" points="235.04 142.91 152.72 196.63 194.06 131.13 235.04 142.91"/><polygon class="cls-32" points="283.43 221.07 235.04 142.91 318.51 208.08 283.43 221.07"/><polygon class="cls-33" points="235.04 142.91 214.88 91.13 194.06 131.13 235.04 142.91"/><polygon class="cls-34" points="214.88 91.13 194.06 131.13 176.14 97.74 214.88 91.13"/><polygon class="cls-35" points="235.04 142.91 214.88 91.13 351.07 159.96 235.04 142.91"/><polygon class="cls-36" points="273.47 98.28 351.07 159.96 214.88 91.13 273.47 98.28"/><polygon class="cls-37" points="351.07 159.96 318.51 208.08 235.04 142.91 351.07 159.96"/><polygon class="cls-38" points="318.51 208.08 292.64 268.15 283.43 221.07 318.51 208.08"/><polygon class="cls-39" points="292.64 268.15 294.99 378.44 239.96 322.84 292.64 268.15"/><line class="cls-38" x1="283.44" y1="415.83" x2="294.99" y2="378.44"/><path class="cls-2" d="M475.06,488.13" transform="translate(-180.08 -109.69)"/><line class="cls-40" x1="311.14" y1="341.85" x2="294.99" y2="378.44"/><polygon class="cls-41" points="311.14 341.85 294.99 378.44 292.64 268.15 311.14 341.85"/><polygon class="cls-42" points="311.14 341.85 343.4 281.8 292.64 268.15 311.14 341.85"/><polygon class="cls-43" points="343.4 281.8 292.64 268.15 318.51 208.08 343.4 281.8"/><polygon class="cls-44" points="343.4 281.8 361.57 243.6 318.51 208.08 343.4 281.8"/><polygon class="cls-45" points="361.57 243.6 318.51 208.08 351.07 159.96 361.57 243.6"/><polygon class="cls-46" points="319.13 123.51 351.07 159.96 273.47 98.28 319.13 123.51"/><polygon class="cls-47" points="283.45 415.4 206.28 383.41 224.37 415.06 283.45 415.4"/><polygon class="cls-48" points="224.37 415.06 206.28 383.41 196.88 414.91 224.37 415.06"/><polygon class="cls-49" points="206.28 383.41 163.75 414.72 196.88 414.91 206.28 383.41"/><polygon class="cls-50" points="351.07 159.96 364.52 208.34 361.23 241.6 351.07 159.96"/><path class="cls-51" d="M407.88,170.4a9.41,9.41,0,0,0,9.41-9.41V119.1a9.41,9.41,0,0,0-18.82,0V161A9.41,9.41,0,0,0,407.88,170.4Z" transform="translate(-180.08 -109.69)"/><path class="cls-52" d="M507.37,202.14a9.31,9.31,0,0,0,5.44,1.74,9.41,9.41,0,0,0,7.68-4l24.26-34.14a9.42,9.42,0,0,0-15.35-10.91L505.14,189A9.41,9.41,0,0,0,507.37,202.14Z" transform="translate(-180.08 -109.69)"/><path class="cls-53" d="M582.05,291.42l39.55-13.77a9.42,9.42,0,0,0-6.19-17.79l-39.55,13.79A9.42,9.42,0,0,0,579,292,9.62,9.62,0,0,0,582.05,291.42Z" transform="translate(-180.08 -109.69)"/><path class="cls-54" d="M287.52,199.92A9.41,9.41,0,0,0,302.86,189L278.6,154.87a9.42,9.42,0,0,0-15.35,10.91Z" transform="translate(-180.08 -109.69)"/><path class="cls-55" d="M232.14,273.65l-39.55-13.79a9.42,9.42,0,0,0-6.2,17.79l39.55,13.77a9.41,9.41,0,1,0,6.2-17.77Z" transform="translate(-180.08 -109.69)"/><path class="cls-56" d="M457.23,529.32H350.77a10.59,10.59,0,0,0,0,21.17H457.23a10.59,10.59,0,0,0,0-21.17Z" transform="translate(-180.08 -109.69)"/><path class="cls-56" d="M450.33,554.34H357.66a10.59,10.59,0,0,0,0,21.18h92.67a10.59,10.59,0,1,0,0-21.18Z" transform="translate(-180.08 -109.69)"/><path class="cls-56" d="M440.38,579.37H367.62a10.58,10.58,0,1,0,0,21.16h72.76a10.58,10.58,0,1,0,0-21.16Z" transform="translate(-180.08 -109.69)"/><path class="cls-56" d="M404,625a31.47,31.47,0,0,0,29.28-20H374.72A31.46,31.46,0,0,0,404,625Z" transform="translate(-180.08 -109.69)"/><path class="cls-56" d="M295,674.3v4.29h9.73v5.15h-9.74V688l12.32,0v5.14l-18.1,0,0-24.06,18.1,0v5.18Z" transform="translate(-180.08 -109.69)"/><path class="cls-56" d="M334.41,681.19l8.17,8.27-4.41,4.4-8.1-8.23-8.3,8.17-4.4-4.41,8.26-8.28L317.39,673l4.41-4.41,8.28,8.16,8.12-8.21,4.4,4.41Z" transform="translate(-180.08 -109.69)"/><path class="cls-56" d="M376.19,688.76a12.69,12.69,0,1,1,0-15l-4.37,2.81a8.36,8.36,0,0,0-5.85-2.45,7.13,7.13,0,0,0,0,14.25,8.18,8.18,0,0,0,5.85-2.4Z" transform="translate(-180.08 -109.69)"/><path class="cls-56" d="M411.12,669.26v11.81c0,7.73-5.42,12.87-12.24,12.86s-12.24-5.16-12.23-12.89V669.23h5.89l0,11.81c0,3.78,2.66,6.93,6.36,6.93s6.34-3.14,6.34-6.91V669.25Z" transform="translate(-180.08 -109.69)"/><path class="cls-56" d="M437.15,693.35l-3.95-6H429v6h-5.88l0-24.06,11.7,0c4.93,0,8.62,4.23,8.62,9.48a8,8,0,0,1-4.31,7.33l5.29,7.26ZM429,682.05h4.89a3.36,3.36,0,0,0,3.6-3.29,3.55,3.55,0,0,0-3.55-3.56H429Z" transform="translate(-180.08 -109.69)"/><path class="cls-56" d="M453,685.93h6.25s.26,3.29,4.52,3.3c2.29,0,4.37-1.37,4.37-2.85,0-3.07-5.59-3.3-7.18-3.63-2.81-.56-7.59-1.83-7.58-6.38,0-4.26,4.56-7.73,10.12-7.72,6.77,0,10.1,3.45,10.09,6.67h-6c0-.59-1-1.85-4.14-1.85-2.11,0-3.85,1.29-3.85,2.92,0,2,3.73,2,5.06,2.19,3.37.63,9.7,1.45,9.69,7.82,0,4.15-4.89,7.62-10.63,7.61C456.36,694,453,689.19,453,685.93Z" transform="translate(-180.08 -109.69)"/><path class="cls-56" d="M492.23,669.36l0,24.06h-5.78l0-24.06Z" transform="translate(-180.08 -109.69)"/><path class="cls-56" d="M530.08,681.47a12.68,12.68,0,1,1-12.64-12.71A12.66,12.66,0,0,1,530.08,681.47Zm-5.55,0a7.13,7.13,0,1,0-7.12,7.1A7.15,7.15,0,0,0,524.53,681.46Z" transform="translate(-180.08 -109.69)"/><path class="cls-56" d="M564.78,669.45l0,24.06H559l-12-14.41,0,14.4h-5.77l0-24.06H547l12,15,0-15Z" transform="translate(-180.08 -109.69)"/><rect class="cls-56" x="72.65" y="602.06" width="302.56" height="2.05"/><rect class="cls-56" x="72.65" y="535.12" width="302.56" height="2.05"/><path d="M252.71,196.15l-20,46.8H221.46l-20.09-46.8h12.82l12.89,28.66,12.81-28.66Z" transform="translate(-180.08 -109.69)"/><path d="M357.15,125.39v46.8H345.91v-46.8Z" transform="translate(-180.08 -109.69)"/><path d="M499,125.89l-20,46.8H467.79l-20.09-46.8h12.82l12.89,28.66,12.82-28.66Z" transform="translate(-180.08 -109.69)"/><path d="M592.28,238.92H569.6l-3.17,6.41H553.76L577,198.52h8.49l22.4,46.81H595.45Zm-4.39-9.15-7-15-6.62,15Z" transform="translate(-180.08 -109.69)"/></svg>