<?xml version="1.0" encoding="UTF-8" standalone="no"?>
<!-- Created with Inkscape (http://www.inkscape.org/) -->

<svg
   xmlns:dc="http://purl.org/dc/elements/1.1/"
   xmlns:cc="http://creativecommons.org/ns#"
   xmlns:rdf="http://www.w3.org/1999/02/22-rdf-syntax-ns#"
   xmlns:svg="http://www.w3.org/2000/svg"
   xmlns="http://www.w3.org/2000/svg"
   xmlns:sodipodi="http://sodipodi.sourceforge.net/DTD/sodipodi-0.dtd"
   xmlns:inkscape="http://www.inkscape.org/namespaces/inkscape"
   width="171.92303mm"
   height="168.48123mm"
   viewBox="0 0 171.92303 168.48123"
   version="1.1"
   id="svg8"
   inkscape:version="0.92.1 r15371"
   sodipodi:docname="рисунок-4.svg">
  <defs
     id="defs2" />
  <sodipodi:namedview
     id="base"
     pagecolor="#ffffff"
     bordercolor="#666666"
     borderopacity="1.0"
     inkscape:pageopacity="0.0"
     inkscape:pageshadow="2"
     inkscape:zoom="0.35"
     inkscape:cx="318.68759"
     inkscape:cy="77.903186"
     inkscape:document-units="mm"
     inkscape:current-layer="layer1"
     showgrid="false"
     inkscape:window-width="2560"
     inkscape:window-height="1057"
     inkscape:window-x="1592"
     inkscape:window-y="-8"
     inkscape:window-maximized="1" />
  <metadata
     id="metadata5">
    <rdf:RDF>
      <cc:Work
         rdf:about="">
        <dc:format>image/svg+xml</dc:format>
        <dc:type
           rdf:resource="http://purl.org/dc/dcmitype/StillImage" />
        <dc:title></dc:title>
      </cc:Work>
    </rdf:RDF>
  </metadata>
  <g
     inkscape:label="Layer 1"
     inkscape:groupmode="layer"
     id="layer1"
     transform="translate(-21.513909,-0.96399362)">
    <g
       transform="matrix(0.18113329,0,0,-0.17736152,15.759298,175.95059)"
       inkscape:label="_ (12)"
       id="g1010">
      <g
         transform="translate(656.2412,512)"
         id="g1012">
        <path
           inkscape:connector-curvature="0"
           id="path1014"
           style="fill:#ff0000;fill-opacity:1;fill-rule:nonzero;stroke:none"
           d="m 0,0 -31.2,-31 h -85.999 L -148.482,-0.128 -117.199,31 H -31.2 Z m -165,0 -31.2,-31 h -85.999 L -313.482,-0.128 -282.199,31 h 85.999 z m 7.759,-2.8 31,-31.2 v -86 l -30.872,-31.283 -31.128,31.283 v 86 z m 0.128,5.517 L -188.241,34 v 86 l 31,31.2 31,-31.2 V 34 Z M 89.759,52 h -36 v 36 h 36 z m -36,-104 h 36 v -36 h -36 z m -421,104 h -36 v 36 h 36 z m -36,-104 h 36 v -36 h -36 z m 300,-160 h 36 v -36 h -36 z m -104,-36 h -36 v 36 h 36 z m 104,494 h 36 v -36 h -36 z m -104,-36 h -36 v 36 h 36 z m -144,-394 h 12 v -12 h -12 z m -27,27 h 66 v -66 h -66 z m -7,-73 h 80 v 80 h -80 z m 411,46 h 12 v -12 h -12 z m -27,27 h 66 v -66 h -66 z m -7,-73 h 80 v 80 h -80 z m 46,412 h -12 v 12 h 12 z m -195.716,-651.746 -91.028,91.029 91.028,91.03 91.029,-91.03 z m -101.853,91.029 101.853,-101.851 101.853,101.851 -101.853,101.854 z m 95.569,7.717 h 12 v -12 h -12 z M 130.015,0.284 221.043,91.312 312.072,0.284 221.043,-90.746 Z M 221.043,102.136 119.19,0.284 221.043,-101.568 322.896,0.284 Z M 226.759,-4 h -12 V 8 h 12 z m -848.745,4.284 91.029,91.028 91.029,-91.028 -91.029,-91.03 z M -530.957,102.136 -632.81,0.284 -530.957,-101.568 -429.104,0.284 Z M -525.241,-4 h -12 V 8 h 12 z m 368.284,469.312 91.029,-91.028 -91.029,-91.03 -91.029,91.03 z M -55.104,374.284 -156.957,476.136 -258.81,374.284 -156.957,272.431 Z M 64.759,155 h -66 v 66 h 66 z m 7,73 h -80 v -80 h 80 z m -223,142 h -12 v 12 h 12 z m -188,-188 h -12 v 12 h 12 z m 27,-27 h -66 v 66 h 66 z m 7,73 h -80 v -80 h 80 z M -352.851,-0.5 -156.741,195.609 39.369,-0.5 -156.741,-196.608 Z M -156.741,206.55 -363.792,-0.5 -156.741,-207.551 50.31,-0.5 Z M 175.04,-110 H -29.092 L 72.974,-7.934 Z M -156.741,-215.263 -371.503,-0.5 -156.741,214.262 58.021,-0.5 Z m 109.5,-117.018 -102.067,102.066 102.067,102.066 z m -219,0 v 204.132 l 102.067,-102.066 z M -488.523,-110 -386.457,-7.934 -284.391,-110 Z m 0,219 h 204.132 L -386.457,6.933 Z m 222.282,222.282 102.067,-102.067 -102.067,-102.066 z m 219,0 V 127.149 L -149.308,229.215 Z M 175.04,109 72.974,6.933 -29.092,109 Z m 24.079,10 h -236.36 v 236.36 l -119.5,-119.338 -119.5,119.338 V 119 H -512.602 L -393.264,-0.5 -512.602,-120 h 236.361 v -236.36 l 119.5,119.338 119.5,-119.338 V -120 h 236.36 L 79.781,-0.5 Z" />
      </g>
    </g>
  </g>
</svg>
