<?xml version="1.0" encoding="UTF-8" standalone="no"?>
<!-- Created with Inkscape (http://www.inkscape.org/) -->

<svg
   xmlns:dc="http://purl.org/dc/elements/1.1/"
   xmlns:cc="http://creativecommons.org/ns#"
   xmlns:rdf="http://www.w3.org/1999/02/22-rdf-syntax-ns#"
   xmlns:svg="http://www.w3.org/2000/svg"
   xmlns="http://www.w3.org/2000/svg"
   xmlns:sodipodi="http://sodipodi.sourceforge.net/DTD/sodipodi-0.dtd"
   xmlns:inkscape="http://www.inkscape.org/namespaces/inkscape"
   width="171.92303mm"
   height="168.48123mm"
   viewBox="0 0 171.92304 168.48124"
   version="1.1"
   id="svg8"
   sodipodi:docname="рисунок4.svg"
   inkscape:version="0.92.1 r15371">
  <defs
     id="defs2" />
  <sodipodi:namedview
     id="base"
     pagecolor="#ffffff"
     bordercolor="#666666"
     borderopacity="1.0"
     inkscape:pageopacity="0.0"
     inkscape:pageshadow="2"
     inkscape:zoom="0.35"
     inkscape:cx="-8.0964505"
     inkscape:cy="692.99707"
     inkscape:document-units="mm"
     inkscape:current-layer="layer1"
     showgrid="false"
     inkscape:window-width="1278"
     inkscape:window-height="1048"
     inkscape:window-x="2873"
     inkscape:window-y="0"
     inkscape:window-maximized="0" />
  <metadata
     id="metadata5">
    <rdf:RDF>
      <cc:Work
         rdf:about="">
        <dc:format>image/svg+xml</dc:format>
        <dc:type
           rdf:resource="http://purl.org/dc/dcmitype/StillImage" />
        <dc:title></dc:title>
      </cc:Work>
    </rdf:RDF>
  </metadata>
  <g
     inkscape:label="Layer 1"
     inkscape:groupmode="layer"
     id="layer1"
     transform="translate(-2.2842333,-64.837315)">
    <g
       transform="matrix(0.20024301,0,0,-0.19638635,-11.875791,247.2712)"
       inkscape:label="_ (13)"
       id="g3891">
      <g
         transform="translate(453,890.8862)"
         id="g3893">
        <path
           inkscape:connector-curvature="0"
           id="path3895"
           style="fill:#ff0000;fill-opacity:1;fill-rule:nonzero;stroke:none"
           d="m 0,0 -25,25.239 v -86.8 L 0,-86.8 Z" />
      </g>
      <g
         transform="translate(484,795.0146)"
         id="g3897">
        <path
           inkscape:connector-curvature="0"
           id="path3899"
           style="fill:#ff0000;fill-opacity:1;fill-rule:nonzero;stroke:none"
           d="m 0,0 v 5.313 26.568 5.313 28.124 l -25,25.24 V 3.757 L 0,-21.482 Z" />
      </g>
      <g
         transform="translate(421.8437,769)"
         id="g3901">
        <path
           inkscape:connector-curvature="0"
           id="path3903"
           style="fill:#ff0000;fill-opacity:1;fill-rule:nonzero;stroke:none"
           d="m 0,0 h 5.314 26.567 5.314 20.817 L 32.773,26 h -86.8 L -28.788,0 Z" />
      </g>
      <g
         transform="translate(424.064,826)"
         id="g3905">
        <path
           inkscape:connector-curvature="0"
           id="path3907"
           style="fill:#ff0000;fill-opacity:1;fill-rule:nonzero;stroke:none"
           d="m 0,0 h -86.8 l 25.239,-26 H 25.24 Z" />
      </g>
      <g
         transform="translate(574,916.125)"
         id="g3909">
        <path
           inkscape:connector-curvature="0"
           id="path3911"
           style="fill:#ff0000;fill-opacity:1;fill-rule:nonzero;stroke:none"
           d="m 0,0 -25,-25.239 v -86.8 L 0,-86.8 Z" />
      </g>
      <g
         transform="translate(544,885.5723)"
         id="g3913">
        <path
           inkscape:connector-curvature="0"
           id="path3915"
           style="fill:#ff0000;fill-opacity:1;fill-rule:nonzero;stroke:none"
           d="m 0,0 -25,-25.239 v -28.124 -5.313 -26.568 -5.314 -21.482 L 0,-86.8 Z" />
      </g>
      <g
         transform="translate(544.0547,769)"
         id="g3917">
        <path
           inkscape:connector-curvature="0"
           id="path3919"
           style="fill:#ff0000;fill-opacity:1;fill-rule:nonzero;stroke:none"
           d="m 0,0 h 5.314 26.567 5.314 28.353 L 90.787,26 H 3.985 L -21.253,0 Z" />
      </g>
      <g
         transform="translate(640.1553,800)"
         id="g3921">
        <path
           inkscape:connector-curvature="0"
           id="path3923"
           style="fill:#ff0000;fill-opacity:1;fill-rule:nonzero;stroke:none"
           d="M 0,0 25.239,26 H -61.562 L -86.801,0 Z" />
      </g>
      <g
         transform="translate(428,588.6597)"
         id="g3925">
        <path
           inkscape:connector-curvature="0"
           id="path3927"
           style="fill:#ff0000;fill-opacity:1;fill-rule:nonzero;stroke:none"
           d="m 0,0 25,25.239 v 86.8 L 0,86.8 Z" />
      </g>
      <g
         transform="translate(459,619.2119)"
         id="g3929">
        <path
           inkscape:connector-curvature="0"
           id="path3931"
           style="fill:#ff0000;fill-opacity:1;fill-rule:nonzero;stroke:none"
           d="m 0,0 25,25.24 v 28.351 5.314 26.568 5.314 21.253 L 0,86.8 Z" />
      </g>
      <g
         transform="translate(479.856,735)"
         id="g3933">
        <path
           inkscape:connector-curvature="0"
           id="path3935"
           style="fill:#ff0000;fill-opacity:1;fill-rule:nonzero;stroke:none"
           d="m 0,0 h -20.817 -5.314 -26.567 -5.314 -28.788 l -25.24,-25 h 86.801 z" />
      </g>
      <g
         transform="translate(449.3037,705)"
         id="g3937">
        <path
           inkscape:connector-curvature="0"
           id="path3939"
           style="fill:#ff0000;fill-opacity:1;fill-rule:nonzero;stroke:none"
           d="m 0,0 h -86.8 l -25.24,-25 h 86.8 z" />
      </g>
      <g
         transform="translate(549,613.8984)"
         id="g3941">
        <path
           inkscape:connector-curvature="0"
           id="path3943"
           style="fill:#ff0000;fill-opacity:1;fill-rule:nonzero;stroke:none"
           d="m 0,0 25,-25.239 v 86.8 L 0,86.8 Z" />
      </g>
      <g
         transform="translate(544,706.0122)"
         id="g3945">
        <path
           inkscape:connector-curvature="0"
           id="path3947"
           style="fill:#ff0000;fill-opacity:1;fill-rule:nonzero;stroke:none"
           d="M 0,0 -25,25.24 V 3.986 -1.328 -27.895 -33.209 -61.561 L 0,-86.8 Z" />
      </g>
      <g
         transform="translate(581.25,735)"
         id="g3949">
        <path
           inkscape:connector-curvature="0"
           id="path3951"
           style="fill:#ff0000;fill-opacity:1;fill-rule:nonzero;stroke:none"
           d="m 0,0 h -5.314 -26.567 -5.314 -21.253 L -33.21,-25 H 53.592 L 28.353,0 Z" />
      </g>
      <g
         transform="translate(578.5937,680)"
         id="g3953">
        <path
           inkscape:connector-curvature="0"
           id="path3955"
           style="fill:#ff0000;fill-opacity:1;fill-rule:nonzero;stroke:none"
           d="M 0,0 H 86.801 L 61.562,25 h -86.801 z" />
      </g>
      <g
         transform="translate(200,637.165)"
         id="g3957">
        <path
           inkscape:connector-curvature="0"
           id="path3959"
           style="fill:#ff0000;fill-opacity:1;fill-rule:nonzero;stroke:none"
           d="m 0,0 -25,25.239 v -86.8 L 0,-86.8 Z" />
      </g>
      <g
         transform="translate(205,545.0513)"
         id="g3961">
        <path
           inkscape:connector-curvature="0"
           id="path3963"
           style="fill:#ff0000;fill-opacity:1;fill-rule:nonzero;stroke:none"
           d="m 0,0 26,-25.24 v 21.482 5.314 26.568 5.314 28.123 L 0,86.8 Z" />
      </g>
      <g
         transform="translate(168.123,516)"
         id="g3965">
        <path
           inkscape:connector-curvature="0"
           id="path3967"
           style="fill:#ff0000;fill-opacity:1;fill-rule:nonzero;stroke:none"
           d="m 0,0 h 5.313 26.568 5.313 20.819 l -25.24,25 h -86.8 L -28.788,0 Z" />
      </g>
      <g
         transform="translate(170.3437,572)"
         id="g3969">
        <path
           inkscape:connector-curvature="0"
           id="path3971"
           style="fill:#ff0000;fill-opacity:1;fill-rule:nonzero;stroke:none"
           d="m 0,0 h -86.8 l 25.238,-25 h 86.8 z" />
      </g>
      <g
         transform="translate(320,662.4038)"
         id="g3973">
        <path
           inkscape:connector-curvature="0"
           id="path3975"
           style="fill:#ff0000;fill-opacity:1;fill-rule:nonzero;stroke:none"
           d="m 0,0 -24,-25.239 v -86.8 L 0,-86.8 Z" />
      </g>
      <g
         transform="translate(290,631.8516)"
         id="g3977">
        <path
           inkscape:connector-curvature="0"
           id="path3979"
           style="fill:#ff0000;fill-opacity:1;fill-rule:nonzero;stroke:none"
           d="m 0,0 -25,-25.24 v -28.123 -5.314 -26.567 -5.314 -21.483 L 0,-86.8 Z" />
      </g>
      <g
         transform="translate(290.3335,516)"
         id="g3981">
        <path
           inkscape:connector-curvature="0"
           id="path3983"
           style="fill:#ff0000;fill-opacity:1;fill-rule:nonzero;stroke:none"
           d="m 0,0 h 5.314 26.568 5.313 28.353 L 90.787,25 H 3.986 L -21.253,0 Z" />
      </g>
      <g
         transform="translate(386.4341,547)"
         id="g3985">
        <path
           inkscape:connector-curvature="0"
           id="path3987"
           style="fill:#ff0000;fill-opacity:1;fill-rule:nonzero;stroke:none"
           d="M 0,0 25.239,25 H -61.562 L -86.802,0 Z" />
      </g>
      <g
         transform="translate(175,334.9375)"
         id="g3989">
        <path
           inkscape:connector-curvature="0"
           id="path3991"
           style="fill:#ff0000;fill-opacity:1;fill-rule:nonzero;stroke:none"
           d="m 0,0 25,25.239 v 86.802 L 0,86.802 Z" />
      </g>
      <g
         transform="translate(205,365.4912)"
         id="g3993">
        <path
           inkscape:connector-curvature="0"
           id="path3995"
           style="fill:#ff0000;fill-opacity:1;fill-rule:nonzero;stroke:none"
           d="m 0,0 26,25.238 v 28.353 5.314 26.568 5.313 21.254 L 0,86.801 Z" />
      </g>
      <g
         transform="translate(205.3174,481)"
         id="g3997">
        <path
           inkscape:connector-curvature="0"
           id="path3999"
           style="fill:#ff0000;fill-opacity:1;fill-rule:nonzero;stroke:none"
           d="m 0,0 h -5.313 -26.568 -5.313 -28.788 l -25.24,-24 H -4.421 L 20.818,0 Z" />
      </g>
      <g
         transform="translate(108.7817,451)"
         id="g4001">
        <path
           inkscape:connector-curvature="0"
           id="path4003"
           style="fill:#ff0000;fill-opacity:1;fill-rule:nonzero;stroke:none"
           d="m 0,0 -25.238,-25 h 86.8 L 86.8,0 Z" />
      </g>
      <g
         transform="translate(296,360.1768)"
         id="g4005">
        <path
           inkscape:connector-curvature="0"
           id="path4007"
           style="fill:#ff0000;fill-opacity:1;fill-rule:nonzero;stroke:none"
           d="M 0,0 24,-25.239 V 61.563 L 0,86.802 Z" />
      </g>
      <g
         transform="translate(265,456.2773)"
         id="g4009">
        <path
           inkscape:connector-curvature="0"
           id="path4011"
           style="fill:#ff0000;fill-opacity:1;fill-rule:nonzero;stroke:none"
           d="m 0,0 v -5.313 -26.568 -5.314 -28.353 L 25,-90.786 V -3.985 L 0,21.254 Z" />
      </g>
      <g
         transform="translate(355.8813,481)"
         id="g4013">
        <path
           inkscape:connector-curvature="0"
           id="path4015"
           style="fill:#ff0000;fill-opacity:1;fill-rule:nonzero;stroke:none"
           d="m 0,0 h -28.353 -5.313 -26.568 -5.314 -21.253 l 25.239,-24 h 86.801 z" />
      </g>
      <g
         transform="translate(411.6733,426)"
         id="g4017">
        <path
           inkscape:connector-curvature="0"
           id="path4019"
           style="fill:#ff0000;fill-opacity:1;fill-rule:nonzero;stroke:none"
           d="m 0,0 -25.239,25 h -86.802 l 25.24,-25 z" />
      </g>
      <g
         transform="translate(451,386.1016)"
         id="g4021">
        <path
           inkscape:connector-curvature="0"
           id="path4023"
           style="fill:#ff0000;fill-opacity:1;fill-rule:nonzero;stroke:none"
           d="M 0,0 -25,25.239 V -61.563 L 0,-86.802 Z" />
      </g>
      <g
         transform="translate(457,293.9863)"
         id="g4025">
        <path
           inkscape:connector-curvature="0"
           id="path4027"
           style="fill:#ff0000;fill-opacity:1;fill-rule:nonzero;stroke:none"
           d="m 0,0 24,-25.24 v 21.483 5.314 26.567 5.314 28.125 L 0,86.801 Z" />
      </g>
      <g
         transform="translate(419.187,265)"
         id="g4029">
        <path
           inkscape:connector-curvature="0"
           id="path4031"
           style="fill:#ff0000;fill-opacity:1;fill-rule:nonzero;stroke:none"
           d="m 0,0 h 5.313 26.568 5.314 20.818 l -25.24,25 h -86.8 L -28.788,0 Z" />
      </g>
      <g
         transform="translate(421.4077,320)"
         id="g4033">
        <path
           inkscape:connector-curvature="0"
           id="path4035"
           style="fill:#ff0000;fill-opacity:1;fill-rule:nonzero;stroke:none"
           d="m 0,0 h -86.8 l 25.239,-24 h 86.8 z" />
      </g>
      <g
         transform="translate(572,324.5381)"
         id="g4037">
        <path
           inkscape:connector-curvature="0"
           id="path4039"
           style="fill:#ff0000;fill-opacity:1;fill-rule:nonzero;stroke:none"
           d="M 0,0 V 86.803 L -25,61.563 V -25.238 Z" />
      </g>
      <g
         transform="translate(517,327.4248)"
         id="g4041">
        <path
           inkscape:connector-curvature="0"
           id="path4043"
           style="fill:#ff0000;fill-opacity:1;fill-rule:nonzero;stroke:none"
           d="m 0,0 v -5.314 -26.568 -5.313 -21.484 l 24,25.241 v 86.8 L 0,28.124 Z" />
      </g>
      <g
         transform="translate(520.1436,265)"
         id="g4045">
        <path
           inkscape:connector-curvature="0"
           id="path4047"
           style="fill:#ff0000;fill-opacity:1;fill-rule:nonzero;stroke:none"
           d="m 0,0 h 21.255 5.313 26.568 5.314 28.352 l 25.239,25 H 25.24 Z" />
      </g>
      <g
         transform="translate(550.6973,296)"
         id="g4049">
        <path
           inkscape:connector-curvature="0"
           id="path4051"
           style="fill:#ff0000;fill-opacity:1;fill-rule:nonzero;stroke:none"
           d="M 0,0 H 86.802 L 112.04,24 H 25.238 Z" />
      </g>
      <g
         transform="translate(426,83.873)"
         id="g4053">
        <path
           inkscape:connector-curvature="0"
           id="path4055"
           style="fill:#ff0000;fill-opacity:1;fill-rule:nonzero;stroke:none"
           d="m 0,0 25,25.24 v 86.801 L 0,86.802 Z" />
      </g>
      <g
         transform="translate(457,114.4258)"
         id="g4057">
        <path
           inkscape:connector-curvature="0"
           id="path4059"
           style="fill:#ff0000;fill-opacity:1;fill-rule:nonzero;stroke:none"
           d="m 0,0 24,25.239 v 28.354 5.312 26.569 5.313 21.254 L 0,86.802 Z" />
      </g>
      <g
         transform="translate(456.3823,231)"
         id="g4061">
        <path
           inkscape:connector-curvature="0"
           id="path4063"
           style="fill:#ff0000;fill-opacity:1;fill-rule:nonzero;stroke:none"
           d="m 0,0 h -5.314 -26.568 -5.313 -28.788 l -25.24,-26 H -4.422 L 20.817,0 Z" />
      </g>
      <g
         transform="translate(359.8467,200)"
         id="g4065">
        <path
           inkscape:connector-curvature="0"
           id="path4067"
           style="fill:#ff0000;fill-opacity:1;fill-rule:nonzero;stroke:none"
           d="m 0,0 -25.239,-26 h 86.8 L 86.8,0 Z" />
      </g>
      <g
         transform="translate(547,109.1133)"
         id="g4069">
        <path
           inkscape:connector-curvature="0"
           id="path4071"
           style="fill:#ff0000;fill-opacity:1;fill-rule:nonzero;stroke:none"
           d="M 0,0 25,-25.24 V 61.562 L 0,86.801 Z" />
      </g>
      <g
         transform="translate(517,205.2129)"
         id="g4073">
        <path
           inkscape:connector-curvature="0"
           id="path4075"
           style="fill:#ff0000;fill-opacity:1;fill-rule:nonzero;stroke:none"
           d="m 0,0 v -5.313 -26.569 -5.312 -28.354 L 24,-90.787 V -3.985 L 0,21.254 Z" />
      </g>
      <g
         transform="translate(578.5937,231)"
         id="g4077">
        <path
           inkscape:connector-curvature="0"
           id="path4079"
           style="fill:#ff0000;fill-opacity:1;fill-rule:nonzero;stroke:none"
           d="m 0,0 h -5.314 -26.568 -5.313 -21.255 l 25.24,-26 H 53.591 L 28.352,0 Z" />
      </g>
      <g
         transform="translate(575.9355,174)"
         id="g4081">
        <path
           inkscape:connector-curvature="0"
           id="path4083"
           style="fill:#ff0000;fill-opacity:1;fill-rule:nonzero;stroke:none"
           d="M 0,0 H 86.802 L 61.563,26 h -86.801 z" />
      </g>
      <g
         transform="translate(705,639.8223)"
         id="g4085">
        <path
           inkscape:connector-curvature="0"
           id="path4087"
           style="fill:#ff0000;fill-opacity:1;fill-rule:nonzero;stroke:none"
           d="M 0,0 -25,25.239 V -61.562 L 0,-86.802 Z" />
      </g>
      <g
         transform="translate(710,547.707)"
         id="g4089">
        <path
           inkscape:connector-curvature="0"
           id="path4091"
           style="fill:#ff0000;fill-opacity:1;fill-rule:nonzero;stroke:none"
           d="m 0,0 25,-25.239 v 21.483 5.313 26.568 5.313 28.125 L 0,86.802 Z" />
      </g>
      <g
         transform="translate(644.1201,519)"
         id="g4093">
        <path
           inkscape:connector-curvature="0"
           id="path4095"
           style="fill:#ff0000;fill-opacity:1;fill-rule:nonzero;stroke:none"
           d="m 0,0 h 28.788 5.314 26.568 5.312 20.819 L 61.562,25 H -25.24 Z" />
      </g>
      <g
         transform="translate(588.3281,574)"
         id="g4097">
        <path
           inkscape:connector-curvature="0"
           id="path4099"
           style="fill:#ff0000;fill-opacity:1;fill-rule:nonzero;stroke:none"
           d="M 0,0 25.239,-25 H 112.04 L 86.801,0 Z" />
      </g>
      <g
         transform="translate(826,665.0615)"
         id="g4101">
        <path
           inkscape:connector-curvature="0"
           id="path4103"
           style="fill:#ff0000;fill-opacity:1;fill-rule:nonzero;stroke:none"
           d="m 0,0 -26,-25.239 v -86.802 l 26,25.24 z" />
      </g>
      <g
         transform="translate(795,634.5088)"
         id="g4105">
        <path
           inkscape:connector-curvature="0"
           id="path4107"
           style="fill:#ff0000;fill-opacity:1;fill-rule:nonzero;stroke:none"
           d="m 0,0 -26,-25.239 v -28.125 -5.313 -26.568 -5.313 -21.483 l 26,25.239 z" />
      </g>
      <g
         transform="translate(795.1191,519)"
         id="g4109">
        <path
           inkscape:connector-curvature="0"
           id="path4111"
           style="fill:#ff0000;fill-opacity:1;fill-rule:nonzero;stroke:none"
           d="m 0,0 h 5.314 26.568 5.313 28.353 L 90.787,25 H 3.986 L -21.254,0 Z" />
      </g>
      <g
         transform="translate(891.2197,549)"
         id="g4113">
        <path
           inkscape:connector-curvature="0"
           id="path4115"
           style="fill:#ff0000;fill-opacity:1;fill-rule:nonzero;stroke:none"
           d="M 0,0 25.239,25 H -61.563 L -86.802,0 Z" />
      </g>
      <g
         transform="translate(680,337.5947)"
         id="g4117">
        <path
           inkscape:connector-curvature="0"
           id="path4119"
           style="fill:#ff0000;fill-opacity:1;fill-rule:nonzero;stroke:none"
           d="M 0,0 25,25.238 V 112.04 L 0,86.802 Z" />
      </g>
      <g
         transform="translate(710,368.1475)"
         id="g4121">
        <path
           inkscape:connector-curvature="0"
           id="path4123"
           style="fill:#ff0000;fill-opacity:1;fill-rule:nonzero;stroke:none"
           d="m 0,0 25,25.239 v 28.353 5.313 26.569 5.312 21.254 L 0,86.802 Z" />
      </g>
      <g
         transform="translate(710.1025,484)"
         id="g4125">
        <path
           inkscape:connector-curvature="0"
           id="path4127"
           style="fill:#ff0000;fill-opacity:1;fill-rule:nonzero;stroke:none"
           d="m 0,0 h -5.312 -26.569 -5.313 -28.788 L -91.223,-25 H -4.421 L 20.818,0 Z" />
      </g>
      <g
         transform="translate(613.5674,453)"
         id="g4129">
        <path
           inkscape:connector-curvature="0"
           id="path4131"
           style="fill:#ff0000;fill-opacity:1;fill-rule:nonzero;stroke:none"
           d="M 0,0 -25.239,-25 H 61.562 L 86.801,0 Z" />
      </g>
      <g
         transform="translate(800,362.833)"
         id="g4133">
        <path
           inkscape:connector-curvature="0"
           id="path4135"
           style="fill:#ff0000;fill-opacity:1;fill-rule:nonzero;stroke:none"
           d="M 0,0 26,-25.238 V 61.563 L 0,86.802 Z" />
      </g>
      <g
         transform="translate(769,458.9336)"
         id="g4137">
        <path
           inkscape:connector-curvature="0"
           id="path4139"
           style="fill:#ff0000;fill-opacity:1;fill-rule:nonzero;stroke:none"
           d="m 0,0 v -5.312 -26.569 -5.313 -28.353 L 26,-90.786 V -3.984 L 0,21.254 Z" />
      </g>
      <g
         transform="translate(829.6572,428)"
         id="g4141">
        <path
           inkscape:connector-curvature="0"
           id="path4143"
           style="fill:#000000;fill-opacity:1;fill-rule:nonzero;stroke:none"
           d="M 0,0 -25.239,25 H 61.563 L 86.802,0 Z m -3.657,-90.405 -26,25.238 v 86.802 l 26,-25.239 z M -30.552,31 -55.792,56 h 21.254 5.314 26.568 5.313 28.353 L 56.249,31 Z m -4.105,-90.853 -26,25.24 v 28.352 5.314 26.568 5.313 21.254 l 26,-25.239 z M -60.657,85 h 26 V 61 h -26 z m 0,30.951 v 5.313 26.568 5.313 28.125 l 26,25.239 v -86.802 l -26,-25.239 z M -2.657,61 h -27 v 24 h 27 z M 56.249,116 31.01,91 H 2.657 -2.656 -29.224 -34.538 -55.792 l 25.24,25 z m -85.906,95.822 26,25.24 V 150.26 l -26,-25.239 z M 86.802,146 61.563,121 H -25.239 L 0,146 Z M -64.657,121 h -24 v 26 h 24 z m 0,-30 h -24 v 25 h 24 z m 0,-30 h -24 v 24 h 24 z m 0,-30 h -24 v 25 h 24 z m 0,-32 h -24 v 26 h 24 z m -30,154.145 v -5.313 -26.568 -5.313 -21.483 l -25,25.239 v 86.802 l 25,-25.239 z m 0,-92.145 h -25 v 24 h 25 z m 0,-30.066 V 25.621 -0.947 -6.261 -34.613 l -25,-25.24 v 86.802 l 25,25.239 z M -123.976,31 h -86.801 l 25.24,25 h 28.788 5.313 26.569 5.312 20.819 z m -0.681,-96.167 -25,-25.238 v 86.801 l 25,25.239 z M -154.528,0 h -86.801 l 25.239,25 h 86.801 z m -97.129,-4 h 96 v -98 h -96 z m 59.499,-128 h -86.802 l 25.238,24 h 86.802 z m -30.554,-31 h -28.351 -5.315 -26.567 -5.314 -21.255 l 25.241,25 h 86.8 z m -59.945,-6 h 26 v -23 h -26 z m 85.184,-54 h -86.8 l -25.241,26 h 21.255 5.314 26.567 5.315 28.351 z m 30.553,-31 h -86.802 l -25.238,26 h 86.802 z m -90.737,-90.127 -25,25.24 v 86.801 l 25,-25.239 z m -31,30.553 -24,25.239 v 28.354 5.312 26.568 5.314 21.254 l 24,-25.239 z m 0,121.574 h -24 v 23 h 24 z m 0,144.787 v -86.801 l -24,-25.24 v 21.483 5.314 26.567 5.315 28.124 z m 31,30.554 v -86.803 l -25,-25.238 v 86.802 z M -342.951,-70 l -30.324,30.312 -5.314,5.104 L -405.384,-8 h 0.227 l -30.552,30.645 -5.354,5.472 -30.594,30.713 v 23.911 l 30.594,30.552 5.333,4.898 29.258,28.809 h -0.007 l 30.55,30.968 5.515,5.521 30.757,30.603 V 214 h 23 v 0.092 l 30.693,-30.474 5.332,-5.182 26.883,-26.436 h -0.407 l 30.552,-30.645 5.313,-5.557 L -187.737,85 h 0.08 V 61 h -0.08 L -218.291,30.576 -223.604,25.908 -254.156,-4 h 0.655 l -29.662,-29.918 -5.205,-5.537 L -318.585,-70 Z m 24.294,-62 h -24 v 26 h 24 z m 0,-31 h -24 v 25 h 24 z m 0,-29 h -24 v 23 h 24 z m 0,-31 h -24 v 26 h 24 z m 0,-32 h -24 v 27 h 24 z m -30,154.425 v -5.315 -26.567 -5.314 -21.483 l -24,25.24 v 86.801 l 24,-25.238 z m 0,-91.425 h -24 v 23 h 24 z m 0,-30.787 v -5.314 -26.568 -5.312 -28.354 l -24,-25.239 v 86.802 l 24,25.239 z m -29.04,-0.213 h -86.801 l 25.24,26 h 28.788 5.313 26.568 5.314 20.817 z m -0.96,-95.887 -25,-25.24 v 86.802 l 25,25.239 z M -495.05,-254 l 25.239,26 h 86.801 l -25.24,-26 z m 116.393,62 h -26 v 23 h 26 z m -85.841,54 h 86.801 l 25.239,-25 h -20.817 -5.314 -26.568 -5.313 -28.788 z m 60.841,34.538 v 86.803 l 25,-25.239 V -128.7 Z M -495.05,-108 h 86.8 l 25.24,-24 h -86.801 z m -8.607,100 h 94 v -94 h -94 z m -6,-85.063 -24,25.24 v 86.802 l 24,-25.24 z M -443.223,23 -417.984,-2 h -86.801 l -25.24,25 z m -92.115,6 -25.239,24 h 21.253 5.314 26.568 5.313 28.353 l 25.239,-24 z m -4.319,-91.509 -25,25.238 v 28.353 5.314 26.568 5.313 21.254 l 25,-25.239 z m -25,145.509 h 25 V 59 h -25 z m 0,30.293 v 5.314 26.568 5.314 28.123 l 25,25.24 v -86.801 l -25,-25.24 z m 58,-54.293 h -27 v 24 h 27 z m 58.12,54 -25.239,-25 h -28.353 -5.313 -26.568 -5.314 -21.253 l 25.239,25 z m -85.12,96.165 24,25.239 v -86.8 l -24,-25.239 z M -417.984,144 -443.223,119 h -86.802 l 25.24,25 z m 12.327,6 h -98 v 96 h 98 z m 29,122.699 v -86.801 l -25,-25.238 v 86.799 z M -467.154,277 h 86.8 l -25.239,-25 h -86.801 z m 121.497,26.252 v -21.253 -5.314 -26.568 -5.314 -28.351 l -25,-25.24 v 86.8 z M -436.602,307 h 28.789 5.314 26.566 5.315 20.817 l -25.24,-25 h -86.8 z m 59.945,6 h -26 v 24 h 26 z m 31,0 h -25 v 24 h 25 z m -116.184,54 h 86.8 l 25.24,-26 h -20.817 -5.315 -26.566 -5.314 -28.789 z m -30.553,31 h 86.801 l 25.239,-26 h -86.8 z m 90.737,90.125 25,-25.239 v -86.8 l -25,25.239 z m 31,-30.553 25,-25.239 v -28.124 -5.313 -26.568 -5.313 -21.482 l -25,25.239 z m 31,-180.572 h 23 v -27 h -23 z m 0,30 h 23 v -25 h -23 z m 0,30 h 23 v -24 h -23 z m 0,30 h 23 v -26 h -23 z m 0,32 h 23 v -27 h -23 z m 29,-154.197 v 5.314 26.568 5.314 21.253 l 25,-25.24 v -86.8 l -25,25.24 z m 0,92.197 h 25 v -24 h -25 z m 0,30.015 v 5.313 26.568 5.313 28.124 l 25,25.239 v -86.8 l -25,-25.239 z m 115.842,-0.015 -25.24,-26 h -28.352 -5.315 -26.566 -5.315 -21.252 l 25.238,26 z m -85.842,95.886 25,25.239 v -86.8 l -25,-25.239 z M -164.263,398 -189.502,372 h -86.801 l 25.24,26 z m -116.394,-61 h 26 v -24 h -26 z m 85.842,-55 h -86.802 l -25.238,25 h 21.252 5.315 26.566 5.315 28.352 z m -60.842,-34.541 V 160.66 l -25,25.238 v 86.801 z m 91.394,4.541 h -86.8 l -25.24,25 h 86.801 z m 8.606,-100 h -94 v 94 h 94 z m 6,85.062 25,-25.24 v -86.801 l -25,25.239 z M -216.09,121 l -25.239,25 h 86.801 l 25.239,-25 z m 91.433,-60 h -27 v 24 h 27 z m 0.681,55 25.24,-25 h -20.819 -5.312 -26.569 -5.313 -28.788 l -25.24,25 z m -446.681,3 h -23 v 26 h 23 z m 0,-31 h -23 v 25 h 23 z m 0,-29 h -23 v 24 h 23 z m 0,-30 h -23 v 24 h 23 z m 0,-32 h -23 v 26 h 23 z m -28,153.489 v -5.314 -26.568 -5.314 -21.482 l -26,25.24 v 86.801 l 26,-25.24 z m 0,-91.489 h -26 v 24 h 26 z m 0,-30.723 V 22.964 -3.604 -8.918 -37.271 l -26,-25.238 v 86.801 l 26,25.239 z M -628.761,29 h -86.801 l 25.24,24 h 28.788 5.313 26.568 5.313 20.819 z m -0.896,-96.823 -25,-25.24 v 86.802 l 25,25.24 z M -746.114,-2 l 25.239,25 h 86.8 l -25.238,-25 z m 116.457,61 h -27 v 24 h 27 z m -85.905,54 h 86.801 l 25.24,-25 h -20.819 -5.313 -26.568 -5.313 -28.788 z m -30.552,31 h 86.801 l 25.238,-25 h -86.8 z m 91.457,90.404 25,-25.239 v -86.8 l -25,25.239 z M 63.328,30.877 32.343,61.486 v 23.911 l 30.985,30.554 5.53,5.404 L 99.629,152 H 1.343 v 97.889 L -29.435,219.336 -34.644,214.173 -64.863,184 H -89.23 l -30.325,30.173 -5.312,5.172 -26.797,26.655 h 0.228 l -30.552,30.504 -5.215,5.404 -30.454,30.643 v 23.911 l 30.454,30.553 5.264,4.873 30.503,30.112 h -98.221 v 98.954 l -30.809,-30.553 -5.225,-5.695 L -315.928,434 h -24.366 l -30.324,30.706 -4.901,5.504 -30.138,30.744 V 402 h -99.565 l 30.553,-30.112 5.313,-4.825 30.554,-30.063 h 0.145 v -24 h -0.145 l -30.554,-30.891 -5.313,-5.436 L -505.222,246 h 0.657 l -29.663,-29.386 -5.204,-5.301 L -569.649,181 h -24.366 l -30.325,30.346 -5.039,5.324 -30.278,30.562 V 150 h -99.286 l 30.552,-30.973 5.314,-5.394 L -692.524,83 h 0.867 V 59 h -0.867 L -723.077,28.248 -728.391,22.744 -758.943,-8 h 99.286 v -97.89 l 30.278,30.553 5.176,5.05 30.415,30.287 h 23.912 l 30.444,-30.287 5.204,-5.231 26.757,-26.482 h -0.407 l 30.552,-30.506 5.313,-5.628 30.553,-30.866 h -0.197 v -23 h 0.197 l -30.553,-30.784 -5.313,-4.987 -30.552,-30.229 h 98.221 v -98.953 l 30.811,30.552 5.442,5.58 30.681,30.821 h 23.911 l 30.444,-30.821 5.572,-5.447 31.139,-30.685 V -258 h 97.565 l -30.554,30.111 -5.384,5.209 -30.627,30.446 v 23.911 l 30.627,30.552 5.347,5.314 29.245,29.224 1.337,1.329 29.23,29.224 5.315,5.22 30.554,30.46 h 23.911 l 30.445,-30.46 5.211,-5.267 30.778,-30.506 V -4 H 99.629 L 68.858,25.972 Z" />
      </g>
      <g
         transform="translate(860.667,484)"
         id="g4145">
        <path
           inkscape:connector-curvature="0"
           id="path4147"
           style="fill:#ff0000;fill-opacity:1;fill-rule:nonzero;stroke:none"
           d="m 0,0 h -28.353 -5.313 -26.567 -5.315 -21.254 l 25.24,-25 h 86.801 z" />
      </g>
      <g
         transform="translate(804.418,453)"
         id="g4149">
        <path
           inkscape:connector-curvature="0"
           id="path4151"
           style="fill:#ff0000;fill-opacity:1;fill-rule:nonzero;stroke:none"
           d="m 0,0 25.239,-25 h 86.802 L 86.802,0 Z" />
      </g>
    </g>
    <path
       style="fill:#c83737;stroke-width:1.42857146"
       d="m 209.66777,550.80968 8.48199,-8.57143 h 32.14285 32.14286 l -8.48199,8.57143 -8.48199,8.57143 h -32.14286 -32.14285 z"
       id="path4284"
       inkscape:connector-curvature="0"
       transform="matrix(0.26458333,0,0,0.26458333,2.2842333,64.837315)" />
    <path
       style="fill:#c83737;stroke-width:0.50507629"
       d="m 223.95073,536.76059 c 0,-0.19083 4.02603,-4.39559 8.94672,-9.34391 l 8.94672,-8.99696 h 32.59068 32.59069 l -9.33367,9.34391 -9.33367,9.34392 h -32.20373 c -17.71206,0 -32.20374,-0.15614 -32.20374,-0.34696 z"
       id="path4286"
       inkscape:connector-curvature="0"
       transform="matrix(0.26458333,0,0,0.26458333,2.2842333,64.837315)" />
    <path
       style="fill:#c83737;stroke-width:0.50507629"
       d="m 292.64111,572.0591 v -31.87775 l 8.81867,-8.98677 8.81868,-8.98678 -0.005,31.8198 -0.005,31.81981 -8.81375,9.04471 -8.8137,9.04472 z"
       id="path4288"
       inkscape:connector-curvature="0"
       transform="matrix(0.26458333,0,0,0.26458333,2.2842333,64.837315)" />
    <path
       style="fill:#c83737;stroke-width:0.50507629"
       d="m 268.90252,594.84678 v -31.73805 l 9.34391,-9.33367 9.34391,-9.33367 -0.005,32.06723 -0.005,32.06722 -9.33882,9.00449 -9.33882,9.0045 z"
       id="path4290"
       inkscape:connector-curvature="0"
       transform="matrix(0.26458333,0,0,0.26458333,2.2842333,64.837315)" />
    <path
       style="fill:#c83737;stroke-width:0.50507629"
       d="m 346.75086,594.74124 -8.65289,-9.03638 0.0242,-31.74853 0.0242,-31.74853 8.80245,9.09137 8.80244,9.09137 0.0122,31.69354 c 0.007,17.43144 -0.0714,31.69353 -0.17372,31.69353 -0.10227,0 -4.07974,-4.06637 -8.83883,-9.03637 z"
       id="path4292"
       inkscape:connector-curvature="0"
       transform="matrix(0.26458333,0,0,0.26458333,2.2842333,64.837315)" />
    <path
       style="fill:#c83737;stroke-width:0.50507629"
       d="m 369.78767,617.53733 -8.96894,-8.97942 0.13011,-31.61081 0.1301,-31.6108 8.9689,8.69159 8.9689,8.6916 -0.13007,31.89863 -0.13006,31.89863 z"
       id="path4294"
       inkscape:connector-curvature="0"
       transform="matrix(0.26458333,0,0,0.26458333,2.2842333,64.837315)" />
    <path
       style="fill:#c83737;stroke-width:0.50507629"
       d="m 373.20077,550.74461 -9.58648,-9.59645 h 32.57818 32.57817 l 8.09266,8.20749 c 4.45097,4.51411 8.63594,8.83252 9.29995,9.59644 l 1.20728,1.38896 h -32.29164 -32.29164 z"
       id="path4296"
       inkscape:connector-curvature="0"
       transform="matrix(0.26458333,0,0,0.26458333,2.2842333,64.837315)" />
    <path
       style="fill:#c83737;stroke-width:0.50507629"
       d="m 350.2198,527.76363 -9.33367,-9.34391 32.5723,0.0104 32.5723,0.0104 9.00656,9.33351 9.00656,9.33351 h -32.24519 -32.24519 z"
       id="path4298"
       inkscape:connector-curvature="0"
       transform="matrix(0.26458333,0,0,0.26458333,2.2842333,64.837315)" />
    <path
       style="fill:#c83737;stroke-width:0.50507629"
       d="m 350.11176,483.54965 9.23587,-9.07156 32.43292,0.0264 32.43293,0.0264 -9.32543,9.065 -9.32542,9.065 -32.34337,-0.0198 -32.34337,-0.0198 z"
       id="path4300"
       inkscape:connector-curvature="0"
       transform="matrix(0.26458333,0,0,0.26458333,2.2842333,64.837315)" />
    <path
       style="fill:#c83737;stroke-width:0.50507629"
       d="m 366.13713,467.49755 c 1.10708,-1.06138 5.22122,-4.92689 9.14253,-8.59003 l 7.12964,-6.66026 32.3783,0.13001 32.3783,0.13 -9.09171,8.46003 -9.0917,8.46003 h -32.42912 -32.42912 z"
       id="path4302"
       inkscape:connector-curvature="0"
       transform="matrix(0.26458333,0,0,0.26458333,2.2842333,64.837315)" />
    <path
       style="fill:#c83737;stroke-width:0.50507629"
       d="m 360.8264,434.81908 v -31.81981 l 9.09138,-9.08085 9.09137,-9.08085 v 31.81981 31.81981 l -9.09137,9.08084 -9.09138,9.08085 z"
       id="path4304"
       inkscape:connector-curvature="0"
       transform="matrix(0.26458333,0,0,0.26458333,2.2842333,64.837315)" />
    <path
       style="fill:#c83737;stroke-width:0.50507629"
       d="m 338.0982,457.52835 -2.3e-4,-31.84949 8.81286,-9.06169 8.81286,-9.06169 -4.9e-4,31.81981 -4.9e-4,31.8198 -8.81214,9.09138 -8.81214,9.09137 z"
       id="path4306"
       inkscape:connector-curvature="0"
       transform="matrix(0.26458333,0,0,0.26458333,2.2842333,64.837315)" />
    <path
       style="fill:#c83737;stroke-width:0.50507629"
       d="m 301.28385,480.1602 -8.62157,-8.96511 0.008,-31.8198 0.008,-31.81981 8.80001,9.09137 8.80002,9.09138 0.0206,31.69353 c 0.0113,17.43145 -0.0724,31.69354 -0.18607,31.69354 -0.11367,0 -4.08638,-4.0343 -8.82825,-8.9651 z"
       id="path4308"
       inkscape:connector-curvature="0"
       transform="matrix(0.26458333,0,0,0.26458333,2.2842333,64.837315)" />
    <path
       style="fill:#c83737;stroke-width:0.50507629"
       d="m 278.12016,457.33239 -9.21764,-8.9099 v -32.04857 -32.04858 l 9.34775,9.34775 9.34775,9.34775 -0.13011,31.61072 -0.1301,31.61071 z"
       id="path4310"
       inkscape:connector-curvature="0"
       transform="matrix(0.26458333,0,0,0.26458333,2.2842333,64.837315)" />
    <path
       style="fill:#c83737;stroke-width:0.50507629"
       d="m 210.56621,461.80737 c -4.44467,-4.16415 -8.52947,-8.01701 -9.07734,-8.56191 -0.98967,-0.98431 -0.78585,-0.99073 31.45626,-0.99073 h 32.45237 l 8.19224,7.65151 c 4.50572,4.20833 8.64048,8.07216 9.18835,8.58629 0.97001,0.91029 0.14258,0.93416 -31.56727,0.91041 l -32.56339,-0.0244 z"
       id="path4312"
       inkscape:connector-curvature="0"
       transform="matrix(0.26458333,0,0,0.26458333,2.2842333,64.837315)" />
    <path
       style="fill:#c83737;stroke-width:0.50507629"
       d="m 232.843,483.57718 -9.1448,-9.08365 32.32488,-5.6e-4 32.32488,-5.6e-4 9.34391,9.05849 9.34391,9.05848 -32.52399,0.0257 -32.52398,0.0257 z"
       id="path4314"
       inkscape:connector-curvature="0"
       transform="matrix(0.26458333,0,0,0.26458333,2.2842333,64.837315)" />
    <path
       style="fill:#c83737;stroke-width:0.50507629"
       d="m 156.39678,408.29951 -9.21764,-8.9662 v -32.00018 -32.00019 l 9.34775,9.34775 9.34775,9.34775 -0.13011,31.61864 -0.13011,31.61863 z"
       id="path4322"
       inkscape:connector-curvature="0"
       transform="matrix(0.26458333,0,0,0.26458333,2.2842333,64.837315)" />
    <path
       style="fill:#c83737;stroke-width:0.50507629"
       d="m 179.5678,431.1678 -8.62177,-8.96511 0.004,-31.8198 0.004,-31.81981 8.80002,9.09138 8.80001,9.09137 0.0206,31.69354 c 0.0113,17.43144 -0.0707,31.69353 -0.18231,31.69353 -0.11161,0 -4.08271,-4.0343 -8.82469,-8.9651 z"
       id="path4324"
       inkscape:connector-curvature="0"
       transform="matrix(0.26458333,0,0,0.26458333,2.2842333,64.837315)" />
    <path
       style="fill:#c83737;stroke-width:0.50507629"
       d="m 183.03956,363.88031 -9.34392,-9.05581 32.53397,-0.0247 32.53397,-0.0247 9.17828,9.09137 9.17828,9.09138 -32.36834,-0.0108 -32.36833,-0.0108 z"
       id="path4326"
       inkscape:connector-curvature="0"
       transform="matrix(0.26458333,0,0,0.26458333,2.2842333,64.837315)" />
    <path
       style="fill:#c83737;stroke-width:0.50507629"
       d="m 160.17022,341.51676 -9.35396,-8.71257 32.33697,-0.13 32.33697,-0.13 5.82928,5.4333 c 3.2061,2.98832 7.43939,6.95793 9.4073,8.82136 l 3.57802,3.38806 -32.39031,0.0212 -32.39032,0.0212 z"
       id="path4328"
       inkscape:connector-curvature="0"
       transform="matrix(0.26458333,0,0,0.26458333,2.2842333,64.837315)" />
    <path
       style="fill:#c83737;stroke-width:0.50507629"
       d="M 101.72228,385.75282 V 354.0071 l 9.47018,-8.95152 9.47018,-8.95153 0.13847,31.68511 0.13847,31.6851 -7.20954,6.94322 c -3.96525,3.81877 -8.28914,7.87423 -9.60865,9.01214 l -2.39911,2.06891 z"
       id="path4330"
       inkscape:connector-curvature="0"
       transform="matrix(0.26458333,0,0,0.26458333,2.2842333,64.837315)" />
    <path
       style="fill:#c83737;stroke-width:0.50507629"
       d="m 78.993843,408.51172 v -31.77613 l 9.343911,-9.33367 9.343911,-9.33367 -0.05034,32.06722 -0.05035,32.06722 -9.293566,9.04259 -9.293566,9.04258 z"
       id="path4332"
       inkscape:connector-curvature="0"
       transform="matrix(0.26458333,0,0,0.26458333,2.2842333,64.837315)" />
    <path
       style="fill:#c83737;stroke-width:0.50507629"
       d="m 19.895996,363.83985 9.339988,-9.06484 32.328803,0.0145 32.328806,0.0145 -9.192438,9.07685 -9.192434,9.07686 -32.476357,-0.0265 -32.476356,-0.0265 z"
       id="path4334"
       inkscape:connector-curvature="0"
       transform="matrix(0.26458333,0,0,0.26458333,2.2842333,64.837315)" />
    <path
       style="fill:#c83737;stroke-width:0.50507629"
       d="m 34.809382,348.7887 c 0.828034,-0.79234 5.080895,-4.76982 9.450802,-8.83884 l 7.945286,-7.3982 h 32.4524 32.4524 l -1.75935,1.69274 c -0.96765,0.931 -5.20054,4.90848 -9.40644,8.83883 l -7.647086,7.14609 H 65.800629 33.303866 Z"
       id="path4336"
       inkscape:connector-curvature="0"
       transform="matrix(0.26458333,0,0,0.26458333,2.2842333,64.837315)" />
    <path
       style="fill:#c83737;stroke-width:0.50507629"
       d="m 401.78857,362.37605 9.29292,-9.06649 32.57742,-0.0218 32.57742,-0.0218 -9.34391,9.06192 -9.34391,9.06193 -32.52643,0.0263 -32.52644,0.0263 z"
       id="path4340"
       inkscape:connector-curvature="0"
       transform="matrix(0.26458333,0,0,0.26458333,2.2842333,64.837315)" />
    <path
       style="fill:#c83737;stroke-width:0.50507629"
       d="m 424.66512,339.63045 9.1448,-9.08366 32.57742,0.0157 32.57742,0.0157 -9.34391,9.05389 -9.34391,9.0539 -32.37831,0.0141 -32.37832,0.0141 z"
       id="path4342"
       inkscape:connector-curvature="0"
       transform="matrix(0.26458333,0,0,0.26458333,2.2842333,64.837315)" />
    <path
       style="fill:#c83737;stroke-width:0.50507629"
       d="m 461.33658,406.53509 v -31.81981 l 9.34391,-9.33367 9.34391,-9.33367 v 31.81981 31.8198 l -9.34391,9.33367 -9.34391,9.33368 z"
       id="path4344"
       inkscape:connector-curvature="0"
       transform="matrix(0.26458333,0,0,0.26458333,2.2842333,64.837315)" />
    <path
       style="fill:#c83737;stroke-width:0.50507629"
       d="m 484.06501,383.80666 v -31.81981 l 9.34392,-9.33367 9.34391,-9.33367 v 31.8198 31.81981 l -9.34391,9.33367 -9.34392,9.33367 z"
       id="path4346"
       inkscape:connector-curvature="0"
       transform="matrix(0.26458333,0,0,0.26458333,2.2842333,64.837315)" />
    <path
       style="fill:#c83737;stroke-width:0.50507629"
       d="m 537.95716,406.12925 -9.49492,-9.18037 0.15101,-31.64755 0.15101,-31.64755 9.49339,9.17166 9.49339,9.17165 -0.14948,31.65627 -0.14947,31.65626 z"
       id="path4348"
       inkscape:connector-curvature="0"
       transform="matrix(0.26458333,0,0,0.26458333,2.2842333,64.837315)" />
    <path
       style="fill:#c83737;stroke-width:0.50507629"
       d="m 561.72049,429.15765 -9.47018,-8.92943 V 388.4618 356.69537 l 2.90419,2.57474 c 1.5973,1.4161 5.92266,5.47289 9.6119,9.01507 l 6.7077,6.44034 -0.14171,31.68078 -0.14172,31.68079 z"
       id="path4350"
       inkscape:connector-curvature="0"
       transform="matrix(0.26458333,0,0,0.26458333,2.2842333,64.837315)" />
    <path
       style="fill:#c83737;stroke-width:0.50507629"
       d="m 542.14879,339.62736 -9.34392,-9.05275 32.57742,0.002 32.57742,0.002 9.27501,9.0678 9.275,9.0678 -32.50851,-0.017 -32.50851,-0.017 z"
       id="path4352"
       inkscape:connector-curvature="0"
       transform="matrix(0.26458333,0,0,0.26458333,2.2842333,64.837315)" />
    <path
       style="fill:#c83737;stroke-width:0.50507629"
       d="m 564.88114,362.32462 -9.33999,-9.06484 32.5735,0.0247 32.5735,0.0248 9.34391,9.05581 9.34391,9.05581 -32.57742,-0.0157 -32.57742,-0.0157 z"
       id="path4354"
       inkscape:connector-curvature="0"
       transform="matrix(0.26458333,0,0,0.26458333,2.2842333,64.837315)" />
    <path
       style="fill:#c83737;stroke-width:0.50507629"
       d="m 541.94968,295.16829 9.14481,-9.08365 32.52398,0.0257 32.52399,0.0257 -9.34391,9.05849 -9.34391,9.05849 -32.32488,-5.6e-4 -32.32489,-5.6e-4 9.14481,-9.08365 z"
       id="path4356"
       inkscape:connector-curvature="0"
       transform="matrix(0.26458333,0,0,0.26458333,2.2842333,64.837315)" />
    <path
       style="fill:#c83737;stroke-width:0.50507629"
       d="m 572.11122,281.66542 c 9.11785,-0.0772 23.89133,-0.0772 32.82996,1e-4 8.93862,0.0772 1.47856,0.14042 -16.57792,0.14036 -18.05647,-6e-5 -25.36989,-0.0633 -16.25204,-0.14046 z"
       id="path4358"
       inkscape:connector-curvature="0"
       transform="matrix(0.26458333,0,0,0.26458333,2.2842333,64.837315)" />
    <path
       style="fill:#c83737;stroke-width:0.50507629"
       d="m 552.25031,246.35177 v -31.74572 l 9.47018,-8.95153 9.47018,-8.95152 0.13847,31.6851 0.13848,31.68511 -7.20954,6.94322 c -3.96525,3.81877 -8.28915,7.87423 -9.60866,9.01213 l -2.39911,2.06892 z"
       id="path4360"
       inkscape:connector-curvature="0"
       transform="matrix(0.26458333,0,0,0.26458333,2.2842333,64.837315)" />
    <path
       style="fill:#c83737;stroke-width:0.50507629"
       d="m 565.17641,272.72524 9.04472,-8.8137 32.57742,-0.0249 32.57742,-0.0249 -9.09137,8.81214 -9.09138,8.81214 -32.53076,0.0265 -32.53076,0.0265 z"
       id="path4362"
       inkscape:connector-curvature="0"
       transform="matrix(0.26458333,0,0,0.26458333,2.2842333,64.837315)" />
    <path
       style="fill:#c83737;stroke-width:0.50507629"
       d="m 528.49111,269.60218 -0.0206,-31.75233 9.49079,-9.17165 9.4908,-9.17166 0.13009,31.61092 0.1301,31.61093 -1.14025,1.22486 c -0.62714,0.67367 -4.94726,4.86455 -9.60028,9.31306 l -8.46002,8.0882 z"
       id="path4364"
       inkscape:connector-curvature="0"
       transform="matrix(0.26458333,0,0,0.26458333,2.2842333,64.837315)" />
    <path
       style="fill:#c83737;stroke-width:0.50507629"
       d="m 493.28266,292.01951 -9.21765,-9.22784 V 250.97853 219.1654 l 9.34775,9.34775 9.34775,9.34775 -0.1301,31.69322 -0.13011,31.69323 z"
       id="path4366"
       inkscape:connector-curvature="0"
       transform="matrix(0.26458333,0,0,0.26458333,2.2842333,64.837315)" />
    <path
       style="fill:#c83737;stroke-width:0.50507629"
       d="m 470.55422,269.29108 -9.21764,-9.22785 V 228.2501 196.43697 l 9.34775,9.34775 9.34775,9.34775 -0.13011,31.69322 -0.1301,31.69323 z"
       id="path4368"
       inkscape:connector-curvature="0"
       transform="matrix(0.26458333,0,0,0.26458333,2.2842333,64.837315)" />
    <path
       style="fill:#c83737;stroke-width:0.50507629"
       d="m 401.54985,272.67624 -9.02656,-8.81496 32.51261,0.0261 32.51261,0.0261 9.09137,8.8081 9.09138,8.8081 -32.57742,-0.0192 -32.57742,-0.0192 z"
       id="path4370"
       inkscape:connector-curvature="0"
       transform="matrix(0.26458333,0,0,0.26458333,2.2842333,64.837315)" />
    <path
       style="fill:#c83737;stroke-width:0.50507629"
       d="m 424.97109,295.18065 -9.34391,-9.05275 32.57742,-0.007 32.57742,-0.007 9.19244,9.07685 9.19243,9.07685 -32.42594,-0.017 -32.42595,-0.017 z"
       id="path4372"
       inkscape:connector-curvature="0"
       transform="matrix(0.26458333,0,0,0.26458333,2.2842333,64.837315)" />
    <path
       style="fill:#c83737;stroke-width:0.50507629"
       d="m 371.30674,242.77458 -8.96511,-8.97558 v -31.81295 -31.81296 l 9.09521,9.09521 9.09522,9.09522 -0.13011,31.69332 -0.13011,31.69332 z"
       id="path4374"
       inkscape:connector-curvature="0"
       transform="matrix(0.26458333,0,0,0.26458333,2.2842333,64.837315)" />
    <path
       style="fill:#c83737;stroke-width:0.50507629"
       d="m 348.5783,220.04615 -8.9651,-8.97558 v -31.81296 -31.81295 l 9.09521,9.09521 9.09521,9.09521 -0.1301,31.69333 -0.13011,31.69332 z"
       id="path4376"
       inkscape:connector-curvature="0"
       transform="matrix(0.26458333,0,0,0.26458333,2.2842333,64.837315)" />
    <path
       style="fill:#c83737;stroke-width:0.50507629"
       d="m 352.1712,153.27315 -9.275,-9.06779 32.39379,-0.0236 32.39378,-0.0236 9.27501,9.06779 9.275,9.0678 -32.39379,0.0236 -32.39379,0.0236 z"
       id="path4378"
       inkscape:connector-curvature="0"
       transform="matrix(0.26458333,0,0,0.26458333,2.2842333,64.837315)" />
    <path
       style="fill:#c83737;stroke-width:0.50507629"
       d="m 375.09776,175.45558 -9.21468,-9.07402 32.44819,0.0216 32.4482,0.0216 9.34391,9.05276 9.34391,9.05275 -32.57742,-3.7e-4 -32.57742,-3.6e-4 z"
       id="path4380"
       inkscape:connector-curvature="0"
       transform="matrix(0.26458333,0,0,0.26458333,2.2842333,64.837315)" />
    <path
       style="fill:#c83737;stroke-width:0.50507629"
       d="m 211.77792,175.44804 9.29292,-9.06648 32.37587,0.0219 32.37587,0.0219 -9.25599,9.06949 -9.25598,9.06949 -32.41281,-0.0249 -32.41281,-0.0249 z"
       id="path4382"
       inkscape:connector-curvature="0"
       transform="matrix(0.26458333,0,0,0.26458333,2.2842333,64.837315)" />
    <path
       style="fill:#c83737;stroke-width:0.50507629"
       d="m 234.70881,153.2641 9.19244,-9.07685 32.57742,0.005 32.57742,0.005 -9.34392,9.05237 -9.34391,9.05237 -32.42594,0.0195 -32.42595,0.0195 z"
       id="path4384"
       inkscape:connector-curvature="0"
       transform="matrix(0.26458333,0,0,0.26458333,2.2842333,64.837315)" />
    <path
       style="fill:#c83737;stroke-width:0.50507629"
       d="m 170.91796,248.4098 -2.4e-4,-31.86646 8.81371,-9.04472 8.81371,-9.04472 -0.001,31.81981 -0.001,31.81981 -8.81214,9.09137 -8.81213,9.09137 z"
       id="path4386"
       inkscape:connector-curvature="0"
       transform="matrix(0.26458333,0,0,0.26458333,2.2842333,64.837315)" />
    <path
       style="fill:#c83737;stroke-width:0.50507629"
       d="m 147.17914,271.03389 v -31.83464 l 9.21764,-8.90972 9.21764,-8.90972 0.1301,31.69585 0.13011,31.69585 -1.89787,1.96292 c -1.04383,1.07961 -5.25031,5.15145 -9.34774,9.04852 l -7.44988,7.08558 z"
       id="path4388"
       inkscape:connector-curvature="0"
       transform="matrix(0.26458333,0,0,0.26458333,2.2842333,64.837315)" />
    <path
       style="fill:#c83737;stroke-width:0.50507629"
       d="m 160.13635,297.18501 9.16914,-9.08007 32.49965,0.0263 32.49966,0.0263 -9.34391,9.06192 -9.34391,9.06193 -32.32489,-0.008 -32.32488,-0.008 9.16914,-9.08006 z"
       id="path4390"
       inkscape:connector-curvature="0"
       transform="matrix(0.26458333,0,0,0.26458333,2.2842333,64.837315)" />
    <path
       style="fill:#c83737;stroke-width:0.50507629"
       d="m 183.26241,274.18937 9.06169,-8.81286 32.35456,0.0177 32.35457,0.0177 -8.96518,8.82114 -8.96517,8.82114 -32.45108,-0.026 -32.45108,-0.026 z"
       id="path4392"
       inkscape:connector-curvature="0"
       transform="matrix(0.26458333,0,0,0.26458333,2.2842333,64.837315)" />
    <path
       style="fill:#c83737;stroke-width:0.50507629"
       d="m 42.632274,297.16978 -9.339987,-9.06484 32.573496,0.0258 32.573497,0.0258 9.30974,9.06555 9.30973,9.06555 -32.543241,-0.0265 -32.543246,-0.0265 z"
       id="path4394"
       inkscape:connector-curvature="0"
       transform="matrix(0.26458333,0,0,0.26458333,2.2842333,64.837315)" />
    <path
       style="fill:#c83737;stroke-width:0.50507629"
       d="m 111.21575,293.74463 -9.44689,-8.92268 -0.0233,-31.71131 c -0.0221,-30.06562 0.0226,-31.6844 0.86059,-31.19291 0.48613,0.28512 4.81234,4.32742 9.6138,8.98288 l 8.72991,8.46447 -0.14362,31.65111 -0.14361,31.65111 z"
       id="path4396"
       inkscape:connector-curvature="0"
       transform="matrix(0.26458333,0,0,0.26458333,2.2842333,64.837315)" />
    <path
       style="fill:#c83737;stroke-width:0.50507629"
       d="m 88.184695,271.0918 -9.244432,-8.99828 0.153059,-31.67266 0.153059,-31.67265 9.244044,8.94422 9.244044,8.94422 -0.152671,31.72672 -0.152671,31.72671 z"
       id="path4398"
       inkscape:connector-curvature="0"
       transform="matrix(0.26458333,0,0,0.26458333,2.2842333,64.837315)" />
    <path
       style="fill:#c83737;stroke-width:0.50507629"
       d="m 19.647381,274.2225 -9.091373,-8.80082 32.57742,-0.0147 32.577419,-0.0147 8.893676,8.83092 8.893681,8.83092 -32.379727,-0.0154 -32.379723,-0.0154 z"
       id="path4400"
       inkscape:connector-curvature="0"
       transform="matrix(0.26458333,0,0,0.26458333,2.2842333,64.837315)" />
    <path
       style="fill:#c83737;stroke-width:0.50507629"
       d="m 303.12144,105.39383 -8.9651,-8.975575 V 64.605301 32.792347 l 9.09521,9.095212 9.09521,9.095211 -0.13011,31.693323 -0.13011,31.693317 z"
       id="path4402"
       inkscape:connector-curvature="0"
       transform="matrix(0.26458333,0,0,0.26458333,2.2842333,64.837315)" />
    <path
       style="fill:#c83737;stroke-width:0.50507629"
       d="m 279.61408,82.770917 -9.23895,-9.070851 0.14758,-31.643951 0.14758,-31.643951 9.23991,8.915518 9.23992,8.915519 -0.14854,31.799285 -0.14855,31.799283 z"
       id="path4404"
       inkscape:connector-curvature="0"
       transform="matrix(0.26458333,0,0,0.26458333,2.2842333,64.837315)" />
    <path
       style="fill:#c83737;stroke-width:0.50507629"
       d="m 211.57636,86.074434 -9.58647,-9.596449 h 32.57742 32.57742 l 9.58647,9.596449 9.58648,9.596449 h -32.57742 -32.57742 z"
       id="path4406"
       inkscape:connector-curvature="0"
       transform="matrix(0.26458333,0,0,0.26458333,2.2842333,64.837315)" />
    <path
       style="fill:#c83737;stroke-width:0.50507629"
       d="m 234.78378,109.18167 -8.97361,-9.217638 32.27358,-0.130051 32.27358,-0.13005 9.3477,9.347689 9.34769,9.3477 h -32.64767 -32.64767 z"
       id="path4408"
       inkscape:connector-curvature="0"
       transform="matrix(0.26458333,0,0,0.26458333,2.2842333,64.837315)" />
    <path
       style="fill:#c83737;stroke-width:0.50507629"
       d="m 294.15634,197.43323 v -31.81981 l 9.09137,-9.08085 9.09137,-9.08084 v 31.8198 31.81981 l -9.09137,9.08084 -9.09137,9.08085 z"
       id="path4410"
       inkscape:connector-curvature="0"
       transform="matrix(0.26458333,0,0,0.26458333,2.2842333,64.837315)" />
    <path
       style="fill:#c83737;stroke-width:0.50507629"
       d="m 270.39633,220.10057 -0.0214,-31.74819 9.23906,-8.92397 9.23906,-8.92397 0.13011,31.63952 0.1301,31.63951 -4.92832,4.97361 c -2.71059,2.73548 -6.91707,6.80017 -9.34775,9.03264 l -4.41942,4.05904 z"
       id="path4412"
       inkscape:connector-curvature="0"
       transform="matrix(0.26458333,0,0,0.26458333,2.2842333,64.837315)" />
    <path
       style="fill:#c83737;stroke-width:0.50507629"
       d="M 339.6132,82.780914 V 50.961109 l 9.09137,-9.080849 9.09138,-9.080848 v 31.819805 31.819807 l -9.09138,9.080846 -9.09137,9.08085 z"
       id="path4414"
       inkscape:connector-curvature="0"
       transform="matrix(0.26458333,0,0,0.26458333,2.2842333,64.837315)" />
    <path
       style="fill:#c83737;stroke-width:0.50507629"
       d="M 362.34163,60.052482 V 28.232677 l 9.09138,-9.080849 9.09137,-9.080848 v 31.819805 31.819806 l -9.09137,9.080847 -9.09138,9.080848 z"
       id="path4416"
       inkscape:connector-curvature="0"
       transform="matrix(0.26458333,0,0,0.26458333,2.2842333,64.837315)" />
    <path
       style="fill:#c83737;stroke-width:0.50507629"
       d="m 352.24011,109.0554 9.33367,-9.343906 h 32.31473 32.31474 l -9.07611,9.268346 -9.07611,9.26835 -32.57229,0.0756 -32.5723,0.0756 z"
       id="path4418"
       inkscape:connector-curvature="0"
       transform="matrix(0.26458333,0,0,0.26458333,2.2842333,64.837315)" />
    <path
       style="fill:#c83737;stroke-width:0.50507629"
       d="m 375.22814,86.070653 9.60023,-9.600231 32.18294,0.130051 32.18293,0.13005 -9.12334,9.47018 -9.12335,9.47018 h -32.65982 -32.65982 z"
       id="path4420"
       inkscape:connector-curvature="0"
       transform="matrix(0.26458333,0,0,0.26458333,2.2842333,64.837315)" />
  </g>
</svg>
